<?xml version="1.0" encoding="UTF-8" standalone="no"?>
<!-- Created with Inkscape (http://www.inkscape.org/) -->

<svg
   version="1.1"
   id="svg6621"
   width="682.66669"
   height="682.66669"
   viewBox="0 0 682.66669 682.66669"
   xmlns="http://www.w3.org/2000/svg"
   xmlns:svg="http://www.w3.org/2000/svg">
  <defs
     id="defs6625">
    <clipPath
       clipPathUnits="userSpaceOnUse"
       id="clipPath6635">
      <path
         d="M 0,512 H 512 V 0 H 0 Z"
         id="path6633" />
    </clipPath>
  </defs>
  <g
     id="g6627"
     transform="matrix(1.3333333,0,0,-1.3333333,0,682.66667)">
    <g
       id="g6629">
      <g
         id="g6631"
         clip-path="url(#clipPath6635)">
        <g
           id="g6637"
           transform="translate(451.0601,21.4102)">
          <path
             d="m 0,0 h -390.12 c -10.7,0 -18.53,10.07 -15.91,20.439 l 18.11,71.471 c 5.47,21.6 21.23,39.119 42.13,46.84 l 95.433,35.249 c 2.555,0.943 5.399,0.691 7.748,-0.687 l 47.549,-27.912 47.092,28.04 c 2.358,1.404 5.224,1.667 7.798,0.716 l 95.84,-35.406 c 20.9,-7.721 36.66,-25.24 42.13,-46.84 L 15.91,20.439 C 18.53,10.07 10.7,0 0,0"
             style="fill:#868491;fill-opacity:1;fill-rule:nonzero;stroke:none"
             id="path6639" />
        </g>
        <g
           id="g6641"
           transform="translate(201.5723,166.8105)">
          <path
             d="M 0,0 27.02,16.088 6.879,27.911 C 4.53,29.29 1.686,29.542 -0.869,28.599 L -30.239,17.75 Z"
             style="fill:#787784;fill-opacity:1;fill-rule:nonzero;stroke:none"
             id="path6643" />
        </g>
        <g
           id="g6645"
           transform="translate(466.9697,41.8496)">
          <path
             d="m 0,0 -18.11,71.471 c -5.47,21.599 -21.23,39.119 -42.13,46.84 l -95.84,35.406 c -2.574,0.951 -5.44,0.687 -7.797,-0.716 l -17.112,-10.189 66.321,-24.501 c 20.9,-7.721 36.66,-25.241 42.13,-46.84 L -54.428,0 c 2.62,-10.369 -5.21,-20.439 -15.91,-20.439 H -15.91 C -5.21,-20.439 2.62,-10.369 0,0"
             style="fill:#787784;fill-opacity:1;fill-rule:nonzero;stroke:none"
             id="path6647" />
        </g>
        <g
           id="g6649"
           transform="translate(200.6992,195.4111)">
          <path
             d="m 0,0 -31.866,-11.771 44.169,-43.925 c 3.18,-3.163 8.267,-3.325 11.642,-0.368 L 55.301,-28.598 7.748,-0.687 C 5.399,0.691 2.555,0.944 0,0"
             style="fill:#4f495b;fill-opacity:1;fill-rule:nonzero;stroke:none"
             id="path6651" />
        </g>
        <g
           id="g6653"
           transform="translate(310.8862,195.5645)">
          <path
             d="m 0,0 32.281,-11.925 -45.538,-43.977 c -3.24,-3.129 -8.353,-3.202 -11.681,-0.167 l -29.948,27.318 47.089,28.035 C -5.439,0.687 -2.574,0.951 0,0"
             style="fill:#4f495b;fill-opacity:1;fill-rule:nonzero;stroke:none"
             id="path6655" />
        </g>
        <g
           id="g6657"
           transform="translate(256,42.9648)">
          <path
             d="m 0,0 c -4.142,0 -7.5,3.357 -7.5,7.5 v 79.965 c 0,4.142 3.358,7.5 7.5,7.5 4.142,0 7.5,-3.358 7.5,-7.5 V 7.5 C 7.5,3.357 4.142,0 0,0"
             style="fill:#4f495b;fill-opacity:1;fill-rule:nonzero;stroke:none"
             id="path6659" />
        </g>
        <g
           id="g6661"
           transform="translate(256.1377,211.3301)">
          <path
             d="m 0,0 c -19.902,-0.381 -36.192,16.289 -36.192,36.194 v 44.398 c 0,24.661 17.757,45.357 42.222,49.212 20.928,3.297 36.332,21.822 35.832,43.092 -0.527,22.36 -19.146,40.979 -41.507,41.505 -11.599,0.262 -22.519,-4.024 -30.786,-12.098 -8.272,-8.08 -12.827,-18.896 -12.827,-30.455 0,-19.551 -15.804,-35.41 -35.332,-35.5 -20.008,-0.093 -35.896,16.879 -35.66,36.884 0.358,30.32 12.474,58.633 34.209,79.863 22.061,21.546 51.222,32.987 82.067,32.287 29.194,-0.688 56.722,-12.515 77.512,-33.305 20.789,-20.789 32.617,-48.316 33.304,-77.512 0.654,-27.758 -8.824,-54.713 -26.687,-75.897 C 73.61,83.79 57.57,72.486 39.665,65.675 36.759,64.569 34.808,61.823 34.808,58.715 V 35.493 C 34.808,16.118 19.287,0.368 0,0"
             style="fill:#ffd782;fill-opacity:1;fill-rule:nonzero;stroke:none"
             id="path6663" />
        </g>
        <g
           id="g6665"
           transform="translate(212.8794,383.1777)">
          <path
             d="M 0,0 C 0,11.56 4.556,22.375 12.828,30.455 19.786,37.251 28.625,41.35 38.165,42.326 31.257,47.602 22.749,50.839 13.614,51.054 2.015,51.315 -8.905,47.029 -17.172,38.955 -25.444,30.875 -30,20.06 -30,8.5 c 0,-17.352 -12.453,-31.786 -28.906,-34.878 6.262,-5.681 14.49,-9.164 23.574,-9.122 C -15.803,-35.409 0,-19.551 0,0"
             style="fill:#ffd782;fill-opacity:1;fill-rule:nonzero;stroke:none"
             id="path6667" />
        </g>
        <g
           id="g6669"
           transform="translate(368.98,385.8955)">
          <path
             d="m 0,0 c -0.687,29.195 -12.515,56.723 -33.305,77.512 -17.704,17.704 -40.296,28.903 -64.642,32.263 12.757,-5.623 24.503,-13.624 34.642,-23.763 C -42.515,65.223 -30.687,37.695 -30,8.5 c 0.653,-27.759 -8.824,-54.714 -26.687,-75.897 -8.84,-10.485 -19.416,-19.194 -31.157,-25.807 -12.475,-7.026 -20.19,-20.234 -20.19,-34.553 v -2.815 c 0,-17.356 -12.457,-31.792 -28.916,-34.881 6.414,-5.788 14.87,-9.289 24.108,-9.112 19.286,0.368 34.808,16.118 34.808,35.493 v 23.221 c 0,3.109 1.951,5.855 4.856,6.96 17.906,6.812 33.946,18.116 46.491,32.994 C -8.824,-54.714 0.653,-27.759 0,0"
             style="fill:#ffd782;fill-opacity:1;fill-rule:nonzero;stroke:none"
             id="path6671" />
        </g>
        <g
           id="g6673"
           transform="translate(457.6426,78.6602)">
          <path
             d="M 0,0 9.328,-36.811 C 11.948,-47.18 4.118,-57.25 -6.583,-57.25 h -390.12 c -10.699,0 -18.529,10.07 -15.909,20.439 l 18.11,71.471 c 5.469,21.6 21.23,39.119 42.129,46.84 l 95.434,35.249 c 2.555,0.943 5.398,0.691 7.748,-0.687 l 47.548,-27.912 47.093,28.04 c 2.357,1.404 5.223,1.667 7.798,0.716 L -50.913,81.5 c 20.9,-7.721 36.661,-25.24 42.13,-46.84 l 1.963,-7.745"
             style="fill:none;stroke:#000000;stroke-width:15;stroke-linecap:round;stroke-linejoin:round;stroke-miterlimit:10;stroke-dasharray:none;stroke-opacity:1"
             id="path6675" />
        </g>
        <g
           id="g6677"
           transform="translate(200.6992,195.4111)">
          <path
             d="M 0,0 -31.866,-11.771 17.952,-61.314 55.301,-28.598 7.748,-0.687 C 5.399,0.691 2.555,0.944 0,0 Z"
             style="fill:none;stroke:#000000;stroke-width:15;stroke-linecap:round;stroke-linejoin:round;stroke-miterlimit:10;stroke-dasharray:none;stroke-opacity:1"
             id="path6679" />
        </g>
        <g
           id="g6681"
           transform="translate(310.8862,195.5645)">
          <path
             d="m 0,0 32.281,-11.925 -51.3,-49.543 -35.867,32.717 47.089,28.035 C -5.439,0.687 -2.574,0.951 0,0 Z"
             style="fill:none;stroke:#000000;stroke-width:15;stroke-linecap:round;stroke-linejoin:round;stroke-miterlimit:10;stroke-dasharray:none;stroke-opacity:1"
             id="path6683" />
        </g>
        <g
           id="g6685"
           transform="translate(256,130.4297)">
          <path
             d="M 0,0 V -79.965"
             style="fill:none;stroke:#000000;stroke-width:15;stroke-linecap:round;stroke-linejoin:round;stroke-miterlimit:10;stroke-dasharray:none;stroke-opacity:1"
             id="path6687" />
        </g>
        <g
           id="g6689"
           transform="translate(171.4136,459.5791)">
          <path
             d="m 0,0 c 1.507,1.652 3.069,3.269 4.683,4.846 22.061,21.546 51.222,32.987 82.067,32.287 29.194,-0.688 56.722,-12.515 77.512,-33.305 20.789,-20.789 32.617,-48.316 33.304,-77.512 0.654,-27.758 -8.824,-54.713 -26.687,-75.897 -12.545,-14.878 -28.585,-26.182 -46.49,-32.993 -2.906,-1.106 -4.857,-3.852 -4.857,-6.96 v -23.222 c 0,-19.375 -15.521,-35.125 -34.808,-35.493 -19.902,-0.381 -36.192,16.289 -36.192,36.194 v 44.398 c 0,24.661 17.757,45.357 42.222,49.212 9.575,1.508 17.994,6.204 24.262,12.892"
             style="fill:none;stroke:#000000;stroke-width:15;stroke-linecap:round;stroke-linejoin:round;stroke-miterlimit:10;stroke-dasharray:none;stroke-opacity:1"
             id="path6691" />
        </g>
        <g
           id="g6693"
           transform="translate(297.9995,384.2256)">
          <path
             d="m 0,0 c -0.526,22.36 -19.146,40.979 -41.506,41.506 -11.599,0.262 -22.519,-4.025 -30.786,-12.099 -8.272,-8.08 -12.828,-18.895 -12.828,-30.455 0,-19.551 -15.803,-35.409 -35.332,-35.5 -20.007,-0.093 -35.896,16.879 -35.66,36.885 0.214,18.118 4.627,35.519 12.781,51.121"
             style="fill:none;stroke:#000000;stroke-width:15;stroke-linecap:round;stroke-linejoin:round;stroke-miterlimit:10;stroke-dasharray:none;stroke-opacity:1"
             id="path6695" />
        </g>
      </g>
    </g>
  </g>
</svg>
