<svg height="500" viewBox="0 0 375 375.5" width="500" xmlns="http://www.w3.org/2000/svg"><path d="M50.4 282H326a43.9 43.9 0 1 1 0 87.7H50.4a43.9 43.9 0 0 1 0-87.7zm0 0" fill="#d4e3a5"/><path d="M301 282h25.1a43.9 43.9 0 0 1 0 87.7h-25zm0 0" fill="#67923d"/><path d="M238.4 282H301v87.7h-62.6zm0 0" fill="#7d9b3d"/><path d="M175.7 282h62.7v87.7h-62.7zm0 0" fill="#b6d554"/><path d="M113 282h62.7v87.7h-62.6zm0 0" fill="#95cd8b"/><path d="m37.7 283.9 263.8-80a43.9 43.9 0 0 1 25.5 84L63 367.9a43.9 43.9 0 0 1-25.4-84zm0 0" fill="#009245"/><path d="m277.5 211.2 24-7.3a43.9 43.9 0 1 1 25.5 84l-24 7.3zm0 0" fill="#24420e"/><path d="m217.6 229.4 60-18.2 25.4 84-60 18.1zm0 0" fill="#006837"/><path d="m157.6 247.5 60-18.1 25.4 84-60 18zm0 0" fill="#009245"/><path d="m97.6 265.7 60-18.2 25.5 84-60 18.2zm0 0" fill="#8cc63f"/><path d="m25.1 290 225.5-158.7A43.9 43.9 0 1 1 301 203L75.6 361.7A43.9 43.9 0 1 1 25.1 290zm0 0" fill="#92d7e7"/><path d="m230 145.7 20.6-14.4A43.9 43.9 0 1 1 301 203l-20.5 14.4zm0 0" fill="#29abe2"/><path d="m178.9 181.8 51.2-36.1 50.5 71.7-51.2 36.1zm0 0" fill="#0071bc"/><path d="m127.6 217.9 51.3-36.1 50.5 71.7-51.3 36.1zm0 0" fill="#2e3192"/><path d="m76.4 254 51.2-36.1 50.5 71.7-51.2 36zm0 0" fill="#1b1464"/><path d="M15.2 299.7 179.4 78.3a43.9 43.9 0 1 1 70.5 52.3L85.6 352a43.9 43.9 0 0 1-70.4-52.3zm0 0" fill="#f7931e"/><path d="m164.5 98.4 15-20.1a43.9 43.9 0 1 1 70.4 52.2l-15 20.2zm0 0" fill="#c1272d"/><path d="m127.2 148.7 37.3-50.3 70.5 52.3-37.4 50.3zm0 0" fill="#ed1c24"/><path d="m89.8 199 37.4-50.3 70.4 52.3-37.3 50.3zm0 0" fill="#f7931e"/><path d="m52.5 249.4 37.3-50.3 70.5 52.2-37.3 50.4zm0 0" fill="#f6967d"/><path d="M50.4 351a25 25 0 1 1 0-50.3 25 25 0 0 1 0 50.2zm0-37.7a12.5 12.5 0 1 0 0 25.1 12.5 12.5 0 0 0 0-25zm0 0"/><path d="M8.7 312.1 95.2 50.3a43.9 43.9 0 0 1 83.3 27.5L92 339.6a43.9 43.9 0 0 1-83.3-27.5zm0 0" fill="#f4ecce"/><path d="M50.4 351a25 25 0 1 1 0-50.3 25 25 0 0 1 0 50.2zm0-37.7a12.5 12.5 0 1 0 0 25.1 12.5 12.5 0 0 0 0-25zm0 0"/><path d="m87.4 74.1 7.8-23.8a43.9 43.9 0 0 1 83.3 27.5l-7.8 23.8zm0 0" fill="#e7685d"/><path d="m67.7 133.6 19.7-59.5 83.3 27.5-19.7 59.5zm0 0" fill="#fcd8d1"/><path d="m48 193.1 19.7-59.5 83.3 27.5-19.6 59.5zm0 0" fill="#8f6c56"/><path d="M28.4 252.6 48 193.1l83.3 27.5-19.7 59.5zm0 0" fill="#fcdd7c"/><path d="M50.4 351a25 25 0 1 1 0-50.3 25 25 0 0 1 0 50.2zm0-37.7a12.5 12.5 0 1 0 0 25.1 12.5 12.5 0 0 0 0-25zm0 0"/><path d="M50.4 351a25 25 0 1 1 0-50.3 25 25 0 0 1 0 50.2zm0-37.7a12.5 12.5 0 1 0 0 25.1 12.5 12.5 0 0 0 0-25zm0 0"/><path d="M50.4 351a25 25 0 1 1 0-50.3 25 25 0 0 1 0 50.2zm0-37.7a12.5 12.5 0 1 0 0 25.1 12.5 12.5 0 0 0 0-25zm0 0"/><path d="M50.4 6.3A43.9 43.9 0 0 1 94.3 50V326a43.9 43.9 0 0 1-87.8 0V50A43.9 43.9 0 0 1 50.4 6.3zm0 0" fill="#f1dbcb"/><path d="M6.5 75.2v-25a43.9 43.9 0 1 1 87.8 0v25zm0 0" fill="#b08874"/><path d="M6.5 75.2h87.8V138H6.5zm0 0" fill="#cea28b"/><path d="M6.5 137.9h87.8v62.6H6.5zm0 0" fill="#e4b69d"/><path d="M6.5 200.5h87.8v62.7H6.5zm0 0" fill="#efc7b0"/><path d="M69.2 325.9a18.8 18.8 0 1 1-37.6 0 18.8 18.8 0 0 1 37.6 0zm0 0" fill="#0378a3"/><path d="M50.4 351a25 25 0 1 0 0-50.2 25 25 0 0 0 0 50.1zm0-37.7a12.5 12.5 0 1 1 0 25.1 12.5 12.5 0 0 1 0-25zm0 0"/><path d="M349.5 281.5A50 50 0 0 0 317 196a50 50 0 0 0 5-48.7l-2-4-.3-.6a50 50 0 0 0-57-23.8A50 50 0 0 0 187 62.7a50 50 0 0 0-39.3-47.6h-.3a50 50 0 0 0-50 18 50 50 0 0 0-97.1 17V326a50.2 50.2 0 0 0 34.2 47.5h.2l.2.1c2.3.8 4.6 1.3 7 1.7l1.5.2c2.2.4 4.5.6 6.8.6h276a50.1 50.1 0 0 0 23.3-94.5zm.7-46.5c6 19.8-5.2 40.8-25 46.9l-18 5.4-20.2-66.7 14.3-10 2-.7c20-6 41 5.2 47 25zM12.8 144H88v50.2H12.8zM234 162.3 272 216l-41 28.8-28.2-40 5.3-7.2zm-97.8 63.4 5.5-16.8 11-33.3 36 26.7-2.7 3.8-27 36.4zm58.5-10.4 25.8 36.7-41 28.9-16.3-23.2zm-51.7-50.2-15.7 47.6-26.9-8.9V151zm-25.4 117 11-33 3.5-10.8 19.4 14.4-1 1.2a6 6 0 0 0-.4.6l-28.5 38.4-6.1-4.5zm10.3 23.3 15.4-20.7 12.1-16.4 14 19.8-41 28.8-4.5-6.2zM173.6 113l52.6 39-29.9 40.3-39.3-29.1 9.8-29.6zM147 153.2 100.5 138V85l62.3 20.5L149 147zm-46.6 110V217l23 7.6-.7 2-10.7 32.5-4.4 13.1-7.2-2.4zm11 37.7 2.7 2-6.2 8.4zm4.7 20.4 2 2.8-8.6 6zm71 2.4-8.2-27 43.2-30.5 12.9 42.6-1 .7-7.5 2.2zm45.8-65 43.2-30.5 19 62.8-48 14.5zM88 81.4v50.1H12.8V81.5zM12.8 206.8H88v50.1H12.8zm87.7 76.2 3.3 1.1-3.3 9.9zm4.8 65.5 9-6.3 1 3.3zm1.5 12.7v2.3h-7.6zm18.3-26.6 43.1-30.4 7 23.1-48 14.5zm181.5-189.1 2 3.2.4.7c.4 1 1 1.8 1.3 2.7l.1.3a37.5 37.5 0 0 1 .6 28.1l-.3.7c-.9 2-1.8 4-3 5.9l-.4.6a36.9 36.9 0 0 1-4.1 5.3l-.3.2a37.4 37.4 0 0 1-5.4 4.7L282 208.7l-40-57 10.4-14 1.7-1.3c17-12 40.4-7.9 52.4 9zM237 74.2a37.6 37.6 0 0 1 7.8 52.6L233.7 142l-56-41.5 5.5-16.7 1.2-1.7a37.7 37.7 0 0 1 52.7-7.8zm-66.6-27a38 38 0 0 1 2.1 28.7l-5.9 17.8-66.2-21.9V54.3l.7-2c.7-2.3 1.7-4.5 2.9-6.5l.2-.4c1-2 2.4-3.8 3.8-5.5l.5-.5a37 37 0 0 1 4.7-4.6l.6-.4a38.4 38.4 0 0 1 27-7.7h.4l3 .5.7.1a37.3 37.3 0 0 1 25.5 19.9zm-157.7 3a37.6 37.6 0 1 1 75.2 0v18.7H12.8zm0 275.7v-56.4H88v56.4c0 4.4-.8 8.8-2.4 13l-.7 2-1 1.8-.6 1.4-1.3 2-.6 1a36.6 36.6 0 0 1-4 4.8l-.5.6-.6.5-1.3 1.3-1 .8-1.7 1.3-1 .6c-1.1.8-2.4 1.6-3.7 2.2l-1.2.6h-.2c-1.1.6-2.3 1.1-3.5 1.5l-1.4.5H61l-1.6.4-2.7.7h-.5l-.5.2h-.3l-4.4.3h-.9l-2.3-.1-1.5-.1-1.9-.3-1.8-.3-1.4-.4-2.3-.6c-15.5-5-26-19.4-26.1-35.7zm106.5 31.5 5.6-1.7 44.6-13.5v21.3h-50.2zm62.7-19 2.9-1 47.2-14.2v40.3H182zm62.7-19 12.3-3.8 37.8-11.4v59.3h-50.1zm81.4 44h-18.8v-63l21.5-6.5c3-1 6-2.2 8.9-3.7a37.5 37.5 0 0 1-11.6 73.3zm0 0"/></svg>