<?xml version="1.0" encoding="UTF-8"?>
<svg xmlns="http://www.w3.org/2000/svg" xmlns:xlink="http://www.w3.org/1999/xlink" version="1.1" id="Capa_1" x="0px" y="0px" viewBox="0 0 512 512" style="enable-background:new 0 0 512 512;" xml:space="preserve" width="512" height="512">
<g>
	<g>
		<path style="fill:#EA9B58;" d="M130.973,264.174l121.163,121.163c7.833,7.833,5.855,21.013-3.934,26.193l-46.054,24.389&#10;&#9;&#9;&#9;l-34.215,18.114l-46.88,24.824l-34.2,18.114l-3.514,1.862c-18.911,10.014-42.134,6.514-57.256-8.608&#10;&#9;&#9;&#9;c-7.565-7.565-12.224-17.151-13.731-27.208c-1.514-10.064,0.116-20.592,5.123-30.048l17.187-32.461l21.766-41.098l29.831-56.336&#10;&#9;&#9;&#9;l18.52-34.968c1.029-1.942,2.369-3.572,3.927-4.884C114.974,257.913,124.684,257.884,130.973,264.174z"/>
		<path style="fill:#D88A55;" d="M248.2,411.53l-46.05,24.39l-34.22,18.11l-46.88,24.83l-34.2,18.11l-3.51,1.86&#10;&#9;&#9;&#9;c-13.58,7.19-29.37,7.42-42.8,1.37c0.94-0.42,1.88-0.88,2.8-1.37l3.51-1.86l34.2-18.11l46.88-24.83l34.22-18.11l46.05-24.39&#10;&#9;&#9;&#9;c9.79-5.18,11.77-18.36,3.94-26.19L101.36,274.56l3.42-6.45c1.03-1.94,2.37-3.57,3.93-4.89c6.26-5.31,15.97-5.34,22.26,0.95&#10;&#9;&#9;&#9;l121.17,121.17C259.97,393.17,257.99,406.35,248.2,411.53z"/>
		<polygon style="fill:#FFE177;" points="56.429,359.412 121.053,478.858 86.854,496.973 34.662,400.51 &#9;&#9;"/>
		<polygon style="fill:#FFD15B;" points="121.05,478.86 86.85,496.97 77.94,480.51 81.05,478.86 112.14,462.39 &#9;&#9;"/>
		<path style="fill:#FFE177;" d="M108.707,263.225l93.441,172.695l-34.215,18.114L86.259,303.076l18.52-34.968&#10;&#9;&#9;&#9;C105.808,266.166,107.149,264.536,108.707,263.225z"/>
		<path style="fill:#FFD15B;" d="M108.71,263.22l22.03,40.72l-29.38-29.38l3.42-6.45C105.81,266.17,107.15,264.54,108.71,263.22z"/>
		<polygon style="fill:#FFD15B;" points="202.15,435.92 167.93,454.03 159.03,437.57 162.15,435.92 193.24,419.45 &#9;&#9;"/>
		<path style="fill:#FFE177;" d="M427.755,70.43l21.82,11.934c3.577,1.956,3.577,7.093,0,9.049l-21.82,11.934&#10;&#9;&#9;&#9;c-7.018,3.838-12.788,9.608-16.626,16.626l-11.934,21.82c-1.956,3.577-7.093,3.577-9.049,0l-11.934-21.82&#10;&#9;&#9;&#9;c-3.838-7.018-9.608-12.788-16.626-16.626l-21.82-11.934c-3.577-1.956-3.577-7.093,0-9.049l21.82-11.934&#10;&#9;&#9;&#9;c7.018-3.838,12.788-9.608,16.626-16.626l11.934-21.82c1.956-3.577,7.093-3.577,9.049,0l11.934,21.82&#10;&#9;&#9;&#9;C414.967,60.822,420.737,66.592,427.755,70.43z"/>
		<path style="fill:#FFD15B;" d="M449.57,91.41l-21.82,11.94c-7.01,3.83-12.78,9.6-16.62,16.62l-11.94,21.82&#10;&#9;&#9;&#9;c-1.95,3.58-7.09,3.58-9.04,0l-10.48-19.15l1.46-2.67c3.84-7.02,9.61-12.79,16.62-16.62l21.82-11.94c3.58-1.95,3.58-7.09,0-9.05&#10;&#9;&#9;&#9;l-21.82-11.93c-7.01-3.84-12.78-9.61-16.62-16.63l-1.46-2.67l10.48-19.15c1.95-3.57,7.09-3.57,9.04,0l11.94,21.82&#10;&#9;&#9;&#9;c3.84,7.02,9.61,12.79,16.62,16.63l21.82,11.93C453.15,84.32,453.15,89.46,449.57,91.41z"/>
		<g>
			<path style="fill:#FE646F;" d="M403.809,337.009H300.474c-4.476,0-8.105-3.629-8.105-8.105v-22.705&#10;&#9;&#9;&#9;&#9;c0-4.476,3.629-8.105,8.105-8.105h64.42C386.386,298.094,403.809,315.517,403.809,337.009L403.809,337.009z"/>
			<path style="fill:#FD4755;" d="M462.705,375.924h-64.42c-21.492,0-38.915-17.423-38.915-38.915v0h103.335&#10;&#9;&#9;&#9;&#9;c4.476,0,8.105,3.629,8.105,8.105v22.705C470.81,372.296,467.181,375.924,462.705,375.924z"/>
		</g>
		<g>
			<path style="fill:#A2E62E;" d="M161.857,148.023V44.688c0-4.476,3.629-8.105,8.105-8.105h22.705c4.476,0,8.105,3.629,8.105,8.105&#10;&#9;&#9;&#9;&#9;v64.42C200.772,130.6,183.349,148.023,161.857,148.023L161.857,148.023z"/>
			<path style="fill:#BBEC6C;" d="M122.942,206.919v-64.42c0-21.492,17.423-38.915,38.915-38.915h0v103.335&#10;&#9;&#9;&#9;&#9;c0,4.476-3.629,8.105-8.105,8.105h-22.705C126.571,215.023,122.942,211.395,122.942,206.919z"/>
		</g>
		<circle style="fill:#D8ECFE;" cx="213.834" cy="269.53" r="18.567"/>
		<circle style="fill:#EAF6FF;" cx="282.205" cy="249.858" r="18.567"/>
		<circle style="fill:#EAF6FF;" cx="481.624" cy="140.567" r="18.567"/>
		<path style="fill:#6BD9E7;" d="M439.81,224.262l-52.823,14.466c-6.424,1.759-13.165-1.472-15.817-7.582v0&#10;&#9;&#9;&#9;c-2.652-6.11-0.409-13.24,5.264-16.731l46.642-28.705c6.94-4.271,16.053-1.404,19.297,6.071l6.18,14.239&#10;&#9;&#9;&#9;C451.798,213.495,447.669,222.11,439.81,224.262z"/>
		<path style="fill:#EA9B58;" d="M318.664,31.328l-23.655,49.396c-2.877,6.007-9.733,8.986-16.087,6.99v0&#10;&#9;&#9;&#9;c-6.355-1.996-10.275-8.361-9.199-14.934l8.846-54.049c1.316-8.042,9.451-13.052,17.224-10.61l14.809,4.653&#10;&#9;&#9;&#9;C318.376,15.216,322.183,23.979,318.664,31.328z"/>
		<path style="fill:#FE646F;" d="M484.741,283.205l-44.081-1.455c-5.361-0.177-9.777-4.268-10.361-9.6l0,0&#10;&#9;&#9;&#9;c-0.585-5.332,2.84-10.283,8.035-11.617l42.719-10.971c6.356-1.632,12.684,2.744,13.399,9.267l1.362,12.426&#10;&#9;&#9;&#9;C496.529,277.777,491.3,283.421,484.741,283.205z"/>
	</g>
	<g>
		<g>
			<path style="fill:none;stroke:#000000;stroke-width:15;stroke-linecap:round;stroke-linejoin:round;stroke-miterlimit:10;" d="&#10;&#9;&#9;&#9;&#9;M232.401,365.602l19.735,19.735c7.833,7.833,5.855,21.013-3.934,26.193l-46.054,24.389l-34.215,18.114l-46.88,24.824&#10;&#9;&#9;&#9;&#9;l-34.2,18.114l-3.514,1.862c-18.911,10.014-42.134,6.514-57.256-8.608c-7.565-7.565-12.224-17.151-13.731-27.208&#10;&#9;&#9;&#9;&#9;c-1.514-10.064,0.116-20.592,5.123-30.048l17.187-32.461l21.766-41.098l29.831-56.336l18.52-34.968&#10;&#9;&#9;&#9;&#9;c1.029-1.942,2.369-3.572,3.927-4.884c6.268-5.311,15.977-5.34,22.266,0.949l74.808,74.808"/>
			
				<polygon style="fill:none;stroke:#000000;stroke-width:15;stroke-linecap:round;stroke-linejoin:round;stroke-miterlimit:10;" points="&#10;&#9;&#9;&#9;&#9;56.429,359.412 121.053,478.858 86.854,496.973 34.662,400.51 &#9;&#9;&#9;"/>
			<path style="fill:none;stroke:#000000;stroke-width:15;stroke-linecap:round;stroke-linejoin:round;stroke-miterlimit:10;" d="&#10;&#9;&#9;&#9;&#9;M108.707,263.225l93.441,172.695l-34.215,18.114L86.259,303.076l18.52-34.968C105.808,266.166,107.149,264.536,108.707,263.225z"/>
		</g>
		<path style="fill:none;stroke:#000000;stroke-width:15;stroke-linecap:round;stroke-linejoin:round;stroke-miterlimit:10;" d="&#10;&#9;&#9;&#9;M427.755,70.43l21.82,11.934c3.577,1.956,3.577,7.093,0,9.049l-21.82,11.934c-7.018,3.838-12.788,9.608-16.626,16.626&#10;&#9;&#9;&#9;l-11.934,21.82c-1.956,3.577-7.093,3.577-9.049,0l-11.934-21.82c-3.838-7.018-9.608-12.788-16.626-16.626l-21.82-11.934&#10;&#9;&#9;&#9;c-3.577-1.956-3.577-7.093,0-9.049l21.82-11.934c7.018-3.838,12.788-9.608,16.626-16.626l11.934-21.82&#10;&#9;&#9;&#9;c1.956-3.577,7.093-3.577,9.049,0l11.934,21.82C414.967,60.822,420.737,66.592,427.755,70.43z"/>
		<g>
			<path style="fill:none;stroke:#000000;stroke-width:15;stroke-linecap:round;stroke-linejoin:round;stroke-miterlimit:10;" d="&#10;&#9;&#9;&#9;&#9;M386.652,304.74c10.351,6.993,17.157,18.836,17.157,32.269v0H300.474c-4.476,0-8.105-3.629-8.105-8.105v-22.705&#10;&#9;&#9;&#9;&#9;c0-4.476,3.629-8.105,8.105-8.105h48.998"/>
			<path style="fill:none;stroke:#000000;stroke-width:15;stroke-linecap:round;stroke-linejoin:round;stroke-miterlimit:10;" d="&#10;&#9;&#9;&#9;&#9;M462.705,375.924h-64.42c-21.492,0-38.915-17.423-38.915-38.915v0h103.335c4.476,0,8.105,3.629,8.105,8.105v22.705&#10;&#9;&#9;&#9;&#9;C470.81,372.296,467.181,375.924,462.705,375.924z"/>
		</g>
		<g>
			<path style="fill:none;stroke:#000000;stroke-width:15;stroke-linecap:round;stroke-linejoin:round;stroke-miterlimit:10;" d="&#10;&#9;&#9;&#9;&#9;M161.857,148.023V44.688c0-4.476,3.629-8.105,8.105-8.105h22.705c4.476,0,8.105,3.629,8.105,8.105v64.42&#10;&#9;&#9;&#9;&#9;C200.772,130.6,183.349,148.023,161.857,148.023L161.857,148.023z"/>
			<path style="fill:none;stroke:#000000;stroke-width:15;stroke-linecap:round;stroke-linejoin:round;stroke-miterlimit:10;" d="&#10;&#9;&#9;&#9;&#9;M122.942,206.919v-64.42c0-21.492,17.423-38.915,38.915-38.915h0v103.335c0,4.476-3.629,8.105-8.105,8.105h-22.705&#10;&#9;&#9;&#9;&#9;C126.571,215.023,122.942,211.395,122.942,206.919z"/>
		</g>
		<path style="fill:none;stroke:#000000;stroke-width:15;stroke-linecap:round;stroke-linejoin:round;stroke-miterlimit:10;" d="&#10;&#9;&#9;&#9;M301.219,387.015c0,0,41.561,0.2,65.637,34.685"/>
		<path style="fill:none;stroke:#000000;stroke-width:15;stroke-linecap:round;stroke-linejoin:round;stroke-miterlimit:10;" d="&#10;&#9;&#9;&#9;M41.846,59.485c8.078-8.078,28.852-9.822,19.619,27.403s-16.952,51.317,8.078,61.135s16.715,24.1,16.715,36.101"/>
		
			<circle style="fill:none;stroke:#000000;stroke-width:15;stroke-linecap:round;stroke-linejoin:round;stroke-miterlimit:10;" cx="213.834" cy="269.53" r="18.567"/>
		
			<circle style="fill:none;stroke:#000000;stroke-width:15;stroke-linecap:round;stroke-linejoin:round;stroke-miterlimit:10;" cx="282.205" cy="249.858" r="18.567"/>
		
			<circle style="fill:none;stroke:#000000;stroke-width:15;stroke-linecap:round;stroke-linejoin:round;stroke-miterlimit:10;" cx="481.624" cy="140.567" r="18.567"/>
		<path style="fill:none;stroke:#000000;stroke-width:15;stroke-linecap:round;stroke-linejoin:round;stroke-miterlimit:10;" d="&#10;&#9;&#9;&#9;M213.834,199.127c0,0,43.822-27.842,38.051-79.702"/>
		<path style="fill:none;stroke:#000000;stroke-width:15;stroke-linecap:round;stroke-linejoin:round;stroke-miterlimit:10;" d="&#10;&#9;&#9;&#9;M439.81,224.262l-52.823,14.466c-6.424,1.759-13.165-1.472-15.817-7.582v0c-2.652-6.11-0.409-13.24,5.264-16.731l46.642-28.705&#10;&#9;&#9;&#9;c6.94-4.271,16.053-1.404,19.297,6.071l6.18,14.239C451.798,213.495,447.669,222.11,439.81,224.262z"/>
		<path style="fill:none;stroke:#000000;stroke-width:15;stroke-linecap:round;stroke-linejoin:round;stroke-miterlimit:10;" d="&#10;&#9;&#9;&#9;M277.794,23.469l0.775-4.738c1.316-8.042,9.451-13.052,17.224-10.61l14.809,4.653c7.774,2.442,11.581,11.205,8.062,18.554&#10;&#9;&#9;&#9;l-23.655,49.396c-2.877,6.007-9.733,8.986-16.087,6.99v0c-6.355-1.996-10.275-8.361-9.199-14.934l1.897-11.591"/>
		<path style="fill:none;stroke:#000000;stroke-width:15;stroke-linecap:round;stroke-linejoin:round;stroke-miterlimit:10;" d="&#10;&#9;&#9;&#9;M484.741,283.205l-44.081-1.455c-5.361-0.177-9.777-4.268-10.361-9.6l0,0c-0.585-5.332,2.84-10.283,8.035-11.617l42.719-10.971&#10;&#9;&#9;&#9;c6.356-1.632,12.684,2.744,13.399,9.267l1.362,12.426C496.529,277.777,491.3,283.421,484.741,283.205z"/>
		
			<line style="fill:none;stroke:#000000;stroke-width:15;stroke-linecap:round;stroke-linejoin:round;stroke-miterlimit:10;" x1="301.219" y1="170.275" x2="301.219" y2="170.275"/>
		
			<line style="fill:none;stroke:#000000;stroke-width:15;stroke-linecap:round;stroke-linejoin:round;stroke-miterlimit:10;" x1="348.089" y1="263.097" x2="348.089" y2="263.097"/>
		<path style="fill:none;stroke:#000000;stroke-width:15;stroke-linecap:round;stroke-linejoin:round;stroke-miterlimit:10;" d="&#10;&#9;&#9;&#9;M328.883,199.127c0,0,22.022-28.852,41.179-34.622"/>
		<g>
			
				<line style="fill:none;stroke:#000000;stroke-width:15;stroke-linecap:round;stroke-linejoin:round;stroke-miterlimit:10;" x1="27.395" y1="216.112" x2="27.395" y2="245.997"/>
			
				<line style="fill:none;stroke:#000000;stroke-width:15;stroke-linecap:round;stroke-linejoin:round;stroke-miterlimit:10;" x1="42.338" y1="231.055" x2="12.453" y2="231.055"/>
			
				<line style="fill:none;stroke:#000000;stroke-width:15;stroke-linecap:round;stroke-linejoin:round;stroke-miterlimit:10;" x1="56.872" y1="262.299" x2="56.872" y2="262.299"/>
		</g>
	</g>
</g>















</svg>
