<svg clip-rule="evenodd" fill-rule="evenodd" height="512" stroke-linejoin="round" stroke-miterlimit="2" viewBox="0 0 48 48" width="512" xmlns="http://www.w3.org/2000/svg"><path d="M22.7 40.6a1.3 1.3 0 0 1-1-2.2l14-14c.5-.4.5-1.3 0-1.8l-14-13.9a1.3 1.3 0 0 1 1-2.2h5c.3 0 .6.1.8.4l15.8 15.7c.5.5.5 1.4 0 1.9L28.5 40.2c-.2.3-.5.4-.9.4h-5z" fill="#2196f3"/><path d="M4 40.6a1.3 1.3 0 0 1-1-2.2l14-14c.5-.4.5-1.3 0-1.8L3 8.7a1.3 1.3 0 0 1 1-2.2h5c.3 0 .6.1.9.4l15.7 15.7c.5.5.5 1.4 0 1.9L9.9 40.2c-.3.3-.6.4-1 .4H4z" fill="#2196f3"/><path d="m31.2 11 12.4 12.3v.5L27.8 39.5l-.2.1h-5s-.2 0-.2-.2v-.3l14-14c.9-.8.9-2.3 0-3.2L22.3 8a.3.3 0 0 1 .3-.5h5l.1.1L29 8.8a1 1 0 0 0 1.4-1.4l-1.1-1.2c-.5-.4-1-.7-1.7-.7h-5a2.3 2.3 0 0 0-1.6 4l14 13.8v.5L21 37.7a2.3 2.3 0 0 0 1.7 4h5c.5 0 1.1-.3 1.6-.8L45 25.2c.9-1 .9-2.4 0-3.3L32.6 9.6a1 1 0 1 0-1.4 1.4z"/><path d="m9.6 33.3 8-8.1c1-1 1-2.4 0-3.3L3.9 8a.3.3 0 0 1 .2-.5h5l.2.1 15.7 15.7v.5L9.2 39.5l-.3.1H4c-.1 0-.2 0-.3-.2v-.3l1.4-1.3a1 1 0 0 0-1.4-1.5l-1.3 1.4a2.3 2.3 0 0 0 1.6 4h5c.5 0 1.1-.3 1.6-.8l15.7-15.7c1-1 1-2.4 0-3.3L10.6 6.2c-.5-.4-1-.7-1.7-.7H4a2.3 2.3 0 0 0-1.6 4l13.8 13.8c.2.2.2.4 0 .5l-8 8a1 1 0 0 0 1.4 1.5z"/><circle cx="14" cy="30" r="1" transform="matrix(1 0 0 1 -7 5.2)"/></svg>