<svg clip-rule="evenodd" fill-rule="evenodd" height="512" stroke-linejoin="round" stroke-miterlimit="2" viewBox="0 0 48 48" width="512" xmlns="http://www.w3.org/2000/svg"><g transform="translate(0 -648)"><g id="FLAT-LINE" transform="scale(1.5)"><g transform="matrix(.815 .815 -.815 .815 -387.338 -114.347)"><path d="m598.701 104.884c-.217.217-.543.282-.826.165-.284-.118-.469-.394-.469-.701 0-3.092 0-9.22 0-11.359 0-.419-.34-.759-.759-.759-2.139 0-8.267 0-11.359 0-.307 0-.583-.185-.701-.469-.117-.283-.052-.609.165-.826.748-.748 1.618-1.618 2.018-2.018.142-.143.335-.223.536-.223h12.877c.419 0 .759.34.759.759v12.877c0 .201-.08.394-.223.536-.4.4-1.269 1.27-2.018 2.018z" fill="#2196f3"/></g><g transform="matrix(.815 .815 -.815 .815 -399.797 -114.347)"><path d="m598.701 104.884c-.217.217-.543.282-.826.165-.284-.118-.469-.394-.469-.701 0-3.092 0-9.22 0-11.359 0-.419-.34-.759-.759-.759-2.139 0-8.267 0-11.359 0-.307 0-.583-.185-.701-.469-.117-.283-.052-.609.165-.826.748-.748 1.618-1.618 2.018-2.018.142-.143.335-.223.536-.223h12.877c.419 0 .759.34.759.759v12.877c0 .201-.08.394-.223.536-.4.4-1.269 1.27-2.018 2.018z" fill="#2196f3"/></g><g transform="matrix(.815 .815 -.815 .815 -387.338 -114.347)"><path d="m590.063 89.272h10.12c.1 0 .181.081.181.181v12.877c0 .048-.019.094-.053.128l-2.018 2.018c-.052.051-.13.067-.197.039-.068-.028-.112-.094-.112-.167v-11.359c0-.739-.598-1.337-1.337-1.337h-11.359c-.073 0-.139-.044-.167-.112-.028-.067-.012-.145.04-.197l2.018-2.018c.033-.034.079-.053.127-.053h.963c.319 0 .579-.259.579-.578s-.26-.578-.579-.578c0 0-.742 0-.963 0-.354 0-.694.141-.945.392-.4.4-1.27 1.27-2.018 2.018-.382.382-.497.957-.29 1.457.207.499.695.825 1.235.825h11.359c.1 0 .181.081.181.181v11.359c0 .54.326 1.028.825 1.235.5.207 1.075.092 1.457-.29.748-.748 1.618-1.618 2.018-2.018.251-.251.392-.591.392-.945 0-1.747 0-10.27 0-12.877 0-.738-.599-1.337-1.337-1.337h-10.12c-.32 0-.579.259-.579.578s.259.578.579.578z"/></g><g transform="matrix(.815 .815 -.815 .815 -399.797 -114.347)"><path d="m597.984 99.588s0-4.84 0-6.599c0-.739-.598-1.337-1.337-1.337h-11.359c-.073 0-.139-.044-.167-.112-.028-.067-.012-.145.04-.197l2.018-2.018c.033-.034.079-.053.127-.053h12.877c.1 0 .181.081.181.181v12.877c0 .048-.019.094-.053.128l-2.018 2.018c-.052.051-.13.067-.197.039-.068-.028-.112-.094-.112-.167v-1.081c0-.319-.259-.578-.578-.578s-.578.259-.578.578v1.081c0 .54.326 1.028.825 1.235.5.207 1.075.092 1.457-.29.748-.748 1.618-1.618 2.018-2.018.251-.251.392-.591.392-.945 0-1.747 0-10.27 0-12.877 0-.738-.599-1.337-1.337-1.337h-12.877c-.354 0-.694.141-.945.392-.4.4-1.27 1.27-2.018 2.018-.382.382-.497.957-.29 1.457.207.499.695.825 1.235.825h11.359c.1 0 .181.081.181.181v6.599c0 .319.259.578.578.578s.578-.259.578-.578z"/></g><g transform="matrix(.667 0 0 .667 -4.667 435.475)"><circle cx="14" cy="30" r="1"/></g></g></g></svg>