<svg xmlns="http://www.w3.org/2000/svg" width="512" height="512"><path fill="#8ac9fe" d="M155 110V62h114c6 0 11 3 13 9l16 39z"/><path fill="#60b7ff" d="M298 110h-21l-16-39c-2-6-7-9-13-9h21c6 0 11 3 13 9z"/><path fill="#fef0ae" d="M400 110H194c-6 0-11-3-13-9l-12-30c-2-6-7-9-13-9H56c-8 0-14 6-14 14v20c0 8-7 14-14 14h-2c-10 0-19 9-19 19v289c0 18 15 32 32 32h380V129c0-10-8-19-19-19z"/><path fill="#fee97d" d="M134 153c-10 0-19 9-19 19L71 419l-3 12c-6 12-15 19-29 19l-12-2c7-3 13-9 17-17l3-12 44-247c0-10 9-19 19-19h24zM194 110h-20c-6 0-11-3-13-9l-12-30c-2-6-7-9-13-9h20c6 0 11 3 13 9l12 30c2 6 7 9 13 9zM419 129v321h-20V129c0-10-8-19-19-19h20c11 0 19 9 19 19z"/><path fill="#fee45a" d="M134 153h352c10 0 19 9 19 19l-45 259c0 11-8 19-19 19H39c14 0 23-7 29-20l3-11 44-247c0-10 9-19 19-19z"/><path fill="#fed402" d="m505 172-45 259c0 11-8 19-19 19h-24c11 0 19-8 19-19l45-259c0-10-9-19-19-19h24c10 0 19 9 19 19z"/><path d="M486 146h-59v-17c0-15-12-26-27-26h-97l-14-35c-3-8-11-14-20-14H102a7 7 0 1 0 0 15h54c3 0 5 2 6 5l12 30c3 8 11 14 20 14h206c7 0 12 5 12 11v17H134c-13 0-25 10-26 23L64 417l-3 10c-5 11-12 16-22 16-13 0-24-11-24-25V129c0-6 5-11 11-11h2c12 0 21-10 21-22V76c0-4 3-7 7-7h11a7 7 0 1 0 0-15H56c-12 0-22 10-22 22v20c0 4-3 7-6 7h-2c-14 0-26 11-26 26v289c0 22 18 40 39 40h402c15 0 26-12 27-26l11-68a7 7 0 1 0-14-3l-12 69v1c0 6-6 12-12 12H69l6-10 4-13 44-249c0-6 5-10 11-10h352c6 0 11 5 11 11l-27 155a7 7 0 1 0 15 2l27-155v-2c0-14-12-26-26-26zm-292-43c-3 0-5-2-6-5l-12-29h93c3 0 6 2 7 5l11 29h-93z"/><path d="M202 370a7 7 0 1 0 0-15h-62a7 7 0 1 0 0 15zM121 392c0 4 3 7 7 7h98a7 7 0 1 0 0-15h-98c-4 0-7 4-7 8z"/></svg>