<svg xmlns="http://www.w3.org/2000/svg" viewBox="0 -35 512 511"><path fill="#fff" d="M502 164a55 55 0 0 0-45-23h-18v-18c0-34-27-60-60-60H231c-7 0-14-4-18-11l-12-21a60 60 0 0 0-52-30H60C27 1 0 27 0 60v322c0 34 27 60 60 60h313c34 0 65-21 76-54a20 20 0 1 0-38-13c-5 17-21 27-38 27H117l73-211c2-6 8-10 14-10h253c5 0 9 2 12 6s4 9 2 14l-29 84a20 20 0 0 0 38 13l29-84c6-17 3-36-7-50zm-350 14L79 389c-2 8-10 13-19 13-11 0-20-8-20-20V60c0-11 9-19 20-19h89c7 0 14 3 17 10l12 21c11 19 31 31 53 31h148c11 0 20 8 20 20v18H204c-23 0-44 14-52 37zm0 0"/></svg>