<svg height="512" width="512" xmlns="http://www.w3.org/2000/svg"><path d="M139 479H20c-7 0-12-5-12-12V57c0-6 5-12 12-12h119c6 0 12 6 12 12v410c0 7-6 12-12 12z" fill="#05e29a"/><path d="M139 45h-25v351c0 27-21 48-48 48H8v23c0 7 5 12 12 12h119c6 0 12-5 12-12V57c0-6-6-12-12-12z" fill="#1dd08d"/><path d="M95 427H63c-13 0-25-12-25-25 0-14 12-25 25-25h32c14 0 25 11 25 25 0 13-11 25-25 25z" fill="#586b76"/><path d="M95 377h-7a25 25 0 0 1-24 32H40c3 10 12 18 23 18h32a25 25 0 1 0 0-50z" fill="#465961"/><path d="M116 316H42c-4 0-7-3-7-7V107c0-4 3-7 7-7h74c4 0 7 3 7 7v202c0 4-3 7-7 7z" fill="#fff0e1"/><path d="M116 100H95v183c0 3-3 6-7 6H35v20c0 4 4 7 7 7h74c4 0 7-3 7-7V107c0-4-3-7-7-7z" fill="#ffeccf"/><path d="M282 479H163c-7 0-12-5-12-12V57c0-6 5-12 12-12h119c6 0 12 6 12 12v410c0 7-6 12-12 12z" fill="#fcb143"/><path d="M282 45h-25v351c0 27-21 48-47 48h-59v23c0 7 5 12 12 12h119c6 0 12-5 12-12V57c0-6-6-12-12-12z" fill="#fba615"/><path d="M238 427h-32c-13 0-24-12-24-25 0-14 11-25 24-25h32c14 0 25 11 25 25 0 13-11 25-25 25z" fill="#586b76"/><path d="M238 377h-7a25 25 0 0 1-24 32h-24c3 10 12 18 23 18h32a25 25 0 1 0 0-50z" fill="#465961"/><path d="M259 316h-74c-3 0-6-3-6-7V107c0-4 3-7 6-7h74c4 0 7 3 7 7v202c0 4-3 7-7 7z" fill="#fff0e1"/><path d="M259 100h-21v183c0 3-3 6-7 6h-52v20c0 4 3 7 6 7h74c4 0 7-3 7-7V107c0-4-3-7-7-7z" fill="#ffeccf"/><path d="m494 460-117 20c-6 1-13-3-14-10L294 66c-1-6 3-13 10-14l117-20c7-1 13 3 14 10l69 404c1 6-3 13-10 14z" fill="#fc6b55"/><path d="m421 32-25 4 60 347c4 26-13 51-39 55l-58 10 4 22c1 7 8 11 14 10l117-20c7-1 11-8 10-14L435 42c-1-7-7-11-14-10z" fill="#fc534e"/><path d="m443 415-32 5c-13 3-26-6-28-20-3-13 6-26 20-28l31-6c14-2 26 7 29 20v1c2 13-7 26-20 28z" fill="#586b76"/><path d="m434 366-7 1a25 25 0 0 1-18 36l-24 4c5 10 15 15 26 13l31-5a25 25 0 1 0-8-49z" fill="#465961"/><path d="m445 303-73 12c-4 1-7-2-8-5l-34-200c-1-3 2-7 5-8l73-12c4-1 7 2 8 5l34 200c1 3-2 7-5 8z" fill="#fff0e1"/><path d="m408 90-21 4 31 180c1 4-2 8-5 8l-52 9 3 19c1 3 4 6 8 5l73-12c3-1 6-5 5-8L416 95c-1-3-4-6-8-5z" fill="#ffeccf"/><path d="M95 369H63a32 32 0 0 0 0 65h32a32 32 0 0 0 0-65zm0 50H63a17 17 0 0 1 0-34h32a17 17 0 0 1 0 34zM130 107c0-8-6-14-14-14H42c-8 0-14 6-14 14v202c0 8 6 15 14 15h74c8 0 14-7 14-15zm-15 201H43V108h72z"/><path d="M65 261c4 0 7-3 7-7v-94a8 8 0 1 0-15 0v94c0 4 4 7 8 7zM93 261c4 0 8-3 8-7v-69a8 8 0 1 0-15 0v69c0 4 3 7 7 7zM238 369h-32a32 32 0 0 0 0 65h32a32 32 0 0 0 0-65zm0 50h-32a17 17 0 0 1 0-34h32a17 17 0 0 1 0 34zM273 107c0-8-6-14-14-14h-74c-8 0-14 6-14 14v202c0 8 6 15 14 15h74c8 0 14-7 14-15zm-15 201h-72V108h72z"/><path d="M208 261c4 0 8-3 8-7v-94a8 8 0 1 0-16 0v94c0 4 4 7 8 7zM236 261c5 0 8-3 8-7v-94a8 8 0 1 0-15 0v94c0 4 3 7 7 7z"/><path d="M512 445 442 41c-1-11-11-18-22-16L303 45l-5 1c-4-5-10-8-16-8H163c-5 0-9 1-12 4-4-3-8-4-12-4H75a8 8 0 1 0 0 15h64c2 0 4 2 4 4v347a8 8 0 1 0 15 0V57c0-2 2-4 5-4h119c2 0 4 2 4 4v410c0 3-2 5-4 5H163c-3 0-5-2-5-4v-30a8 8 0 1 0-15 0v30c0 2-2 4-4 4H20c-3 0-5-2-5-5V57c0-2 2-4 5-4h20a8 8 0 1 0 0-15H20C9 38 0 47 0 57v410c0 11 9 20 20 20h119c4 0 8-2 12-4 3 2 7 4 12 4h119c11 0 19-9 19-20V154l55 317a19 19 0 0 0 22 16l118-20a19 19 0 0 0 16-22zm-16 6-3 1-117 20a4 4 0 0 1-5-3L301 65l1-3 3-2 117-20a5 5 0 0 1 6 3l69 404-1 4z"/><path d="m433 359-31 5a32 32 0 0 0-27 37 32 32 0 0 0 38 27l31-5a32 32 0 0 0 26-38c-3-17-20-29-37-26zm19 42c-2 3-6 6-11 7l-31 5a17 17 0 0 1-20-14 17 17 0 0 1 14-20l31-5a17 17 0 0 1 17 27zM388 312c-1-4-5-7-9-6l-8 1-34-197 72-13 33 198-29 5a8 8 0 0 0 3 15l30-5c8-1 13-9 11-16L423 94a14 14 0 0 0-16-11l-73 12c-8 1-13 9-12 16l35 200a14 14 0 0 0 16 11l9-1c4-1 6-5 6-9z"/><path d="M367 150c-4 1-7 5-7 9l16 92a8 8 0 0 0 15-3l-16-91c0-5-4-7-8-7zM412 252a8 8 0 0 0 7-8l-16-92a8 8 0 1 0-15 2l16 92c1 4 4 6 8 6z"/></svg>