<svg id="Capa_1" enable-background="new 0 0 512 512" height="512" viewBox="0 0 512 512" width="512" xmlns="http://www.w3.org/2000/svg"><g><g><path d="m155.307 110.132v-48.219h114.05c5.796 0 11.005 3.538 13.141 8.927l15.574 39.292z" fill="#8ac9fe"/></g><g><path d="m298.076 110.132h-21.537l-15.579-39.291c-2.136-5.389-7.345-8.932-13.134-8.932h21.527c5.798 0 11.008 3.543 13.144 8.932z" fill="#60b7ff"/></g><g><path d="m400.354 110.132h-206.19c-5.796 0-11.005-3.538-13.141-8.927l-12.036-30.365c-2.136-5.388-7.344-8.927-13.141-8.927h-99.914c-7.807 0-14.135 6.329-14.135 14.135v19.948c0 7.807-6.329 14.135-14.135 14.135h-1.304c-10.423 0-18.872 8.449-18.872 18.872v289.479c0 17.454 14.149 31.604 31.604 31.604h380.136v-321.083c-.001-10.422-8.45-18.871-18.872-18.871z" fill="#fef0ae"/></g><g><path d="m134.004 153.465c-10.419 0-18.862 8.453-18.862 18.872l-44.022 246.427c-.719 4.032-1.826 7.994-3.493 11.736-5.679 12.804-15.03 19.591-28.533 19.591h-.01c-4.162 0-8.124-.798-11.766-2.265 7.166-2.964 12.565-8.812 16.337-17.325 1.657-3.742 2.774-7.705 3.493-11.736l44.012-246.427c0-10.419 8.453-18.872 18.872-18.872h23.972z" fill="#fee97d"/></g><g><path d="m194.164 110.132h-19.96c-5.798 0-11.008-3.543-13.144-8.922l-12.036-30.369c-2.136-5.389-7.345-8.932-13.134-8.932h19.96c5.788 0 10.998 3.543 13.134 8.932l12.036 30.369c2.136 5.379 7.345 8.922 13.144 8.922z" fill="#fee97d"/></g><g><path d="m419.223 129.004v321.087h-19.96v-321.087c0-10.419-8.443-18.872-18.872-18.872h19.96c10.429 0 18.872 8.453 18.872 18.872z" fill="#fee97d"/></g><g><path d="m134.009 153.467h351.634c10.423 0 18.872 8.449 18.872 18.872l-44.439 258.876c0 10.423-8.449 18.872-18.872 18.872h-370.505-31.607c13.501 0 22.858-6.782 28.538-19.588 1.66-3.742 2.775-7.703 3.495-11.733l44.012-246.426c0-10.423 8.449-18.873 18.872-18.873z" fill="#fee45a"/></g><g><path d="m504.512 172.338-44.441 258.882c0 10.419-8.443 18.872-18.862 18.872h-23.982c10.419 0 18.872-8.453 18.872-18.872l44.441-258.882c0-10.419-8.453-18.872-18.872-18.872h23.972c10.429-.001 18.872 8.452 18.872 18.872z" fill="#fed402"/></g><g><path d="m485.643 145.982h-58.933v-16.979c0-14.533-11.823-26.357-26.356-26.357h-97.197l-13.701-34.564c-3.287-8.294-11.177-13.654-20.099-13.654h-167.83c-4.134 0-7.485 3.351-7.485 7.485s3.351 7.485 7.485 7.485h54.32c2.745 0 5.171 1.648 6.182 4.199l12.036 30.365c3.287 8.294 11.177 13.654 20.098 13.654h206.191c6.278 0 11.386 5.108 11.386 11.387v16.979h-277.731c-13.383 0-24.638 10.014-26.18 23.292l-44.064 248.131c-.642 3.596-1.542 6.714-2.747 9.533-4.575 10.685-11.54 15.662-21.924 15.663h-.005c-13.299 0-24.119-10.819-24.119-24.118v-289.48c0-6.279 5.108-11.387 11.387-11.387h1.304c11.921 0 21.62-9.698 21.62-21.62v-19.947c0-3.667 2.983-6.65 6.651-6.65h11.344c4.134 0 7.485-3.351 7.485-7.485s-3.351-7.485-7.485-7.485h-11.344c-11.921 0-21.621 9.699-21.621 21.62v19.948c0 3.667-2.983 6.65-6.65 6.65h-1.304c-14.533-.001-26.357 11.823-26.357 26.356v289.48c0 21.553 17.535 39.088 39.089 39.088h.002 402.113c14.302 0 25.98-11.451 26.348-25.666l11.732-68.346c.7-4.074-2.036-7.944-6.111-8.644-4.061-.7-7.943 2.036-8.643 6.111l-11.832 68.923c-.072.419-.108.842-.108 1.267 0 6.278-5.108 11.386-11.386 11.386h-42.633-329.287c2.096-2.863 3.933-6.124 5.496-9.773 1.659-3.878 2.876-8.062 3.721-12.791l44.199-249.037c.665-5.729 5.527-10.049 11.309-10.049h351.634c6.091 0 11.081 4.807 11.374 10.827l-26.608 154.984c-.7 4.074 2.036 7.944 6.11 8.644 4.072.701 7.944-2.036 8.644-6.111l26.73-155.691c.072-.418.108-.842.108-1.267-.001-14.532-11.825-26.356-26.358-26.356zm-291.48-43.336c-2.744 0-5.17-1.648-6.181-4.2l-11.515-29.048h92.889c2.745 0 5.171 1.648 6.182 4.199l11.514 29.048h-92.889z"/><path d="m201.827 369.639c4.134 0 7.485-3.351 7.485-7.485s-3.351-7.485-7.485-7.485h-61.74c-4.134 0-7.485 3.351-7.485 7.485s3.351 7.485 7.485 7.485z"/><path d="m120.627 391.836c0 4.134 3.351 7.485 7.485 7.485h98.217c4.134 0 7.485-3.351 7.485-7.485s-3.351-7.485-7.485-7.485h-98.217c-4.135 0-7.485 3.352-7.485 7.485z"/></g></g></svg>