<svg xmlns="http://www.w3.org/2000/svg" xml:space="preserve" viewBox="0 0 682.7 682.7"><defs><clipPath id="a" clipPathUnits="userSpaceOnUse"><path d="M0 512h512V0H0Z"/></clipPath></defs><path fill="none" stroke="#fff" stroke-linecap="round" stroke-linejoin="round" stroke-miterlimit="10" stroke-width="39.900000000000006" d="m483 426-85-85 85-85-57-56-85 85-85-85-56 56 85 85-85 85 56 57 85-85 85 85z"/><g clip-path="url(#a)" transform="matrix(1.33 0 0 -1.33 0 683)"><path fill="none" stroke="#fff" stroke-linecap="round" stroke-linejoin="round" stroke-miterlimit="10" stroke-width="30" d="M497 256c0-133-108-241-241-241A242 242 0 0 0 15 256c0 133 108 241 241 241s241-108 241-241Z"/></g></svg>