<svg height="512pt" viewBox="0 0 512 512" width="512pt" xmlns="http://www.w3.org/2000/svg"><path d="m256 7.5c-137.242188 0-248.5 111.257812-248.5 248.5s111.257812 248.5 248.5 248.5 248.5-111.257812 248.5-248.5-111.257812-248.5-248.5-248.5zm-178.5 248.5c0-98.425781 80.074219-178.5 178.5-178.5 38.40625 0 74.015625 12.191406 103.164062 32.90625l-248.757812 248.757812c-20.714844-29.148437-32.90625-64.757812-32.90625-103.164062zm178.5 178.5c-38.40625 0-74.015625-12.191406-103.164062-32.90625l248.757812-248.757812c20.714844 29.148437 32.90625 64.757812 32.90625 103.164062 0 98.425781-80.074219 178.5-178.5 178.5zm0 0" fill="#d15573"/><path d="m37.5 256c0-132.203125 103.242188-240.277344 233.5-248.035156-4.964844-.296875-9.960938-.464844-15-.464844-137.242188 0-248.5 111.257812-248.5 248.5s111.257812 248.5 248.5 248.5c5.039062 0 10.035156-.167969 15-.464844-130.257812-7.757812-233.5-115.832031-233.5-248.035156zm0 0" fill="#c21d44"/><path d="m247.160156 275.445312-10.605468-10.605468 10.605468-10.605469 10.605469 10.605469zm17.679688-17.675781-10.605469-10.609375 10.605469-10.605468 10.605468 10.605468zm0 0" fill="#fff"/><path d="m437.019531 74.980469c-48.351562-48.351563-112.640625-74.980469-181.019531-74.980469s-132.667969 26.628906-181.019531 74.980469c-48.351563 48.351562-74.980469 112.640625-74.980469 181.019531s26.628906 132.667969 74.980469 181.019531c48.351562 48.351563 112.640625 74.980469 181.019531 74.980469s132.667969-26.628906 181.019531-74.980469c48.351563-48.351562 74.980469-112.640625 74.980469-181.019531s-26.628906-132.667969-74.980469-181.019531zm-181.019531 422.019531c-132.886719 0-241-108.113281-241-241s108.113281-241 241-241 241 108.113281 241 241-108.113281 241-241 241zm0 0"/><path d="m363.511719 104.296875c-31.574219-22.4375-68.75-34.296875-107.511719-34.296875-102.5625 0-186 83.4375-186 186 0 38.761719 11.859375 75.9375 34.296875 107.511719l5.140625 7.230469 261.304688-261.304688zm-251.964844 243.125c-17.398437-27.355469-26.546875-58.773437-26.546875-91.421875 0-94.289062 76.710938-171 171-171 32.648438 0 64.066406 9.148438 91.421875 26.546875zm0 0"/><path d="m407.703125 148.488281-5.140625-7.230469-39.675781 39.675782 10.605469 10.605468 26.960937-26.960937c17.398437 27.355469 26.546875 58.773437 26.546875 91.421875 0 94.289062-76.710938 171-171 171-32.648438 0-64.066406-9.148438-91.421875-26.546875l189.46875-189.46875-10.605469-10.605469-202.183594 202.183594 7.230469 5.140625c31.574219 22.4375 68.75 34.296875 107.511719 34.296875 102.5625 0 186-83.4375 186-186 0-38.761719-11.859375-75.9375-34.296875-107.511719zm0 0"/></svg>