<svg xmlns="http://www.w3.org/2000/svg" style="enable-background:new 0 0 512 512" xml:space="preserve" width="512" height="512"><path style="fill:#eceaec" d="M256 480s251-137 248-307a145 145 0 0 0-248-97A144 144 0 0 0 8 173C5 343 256 480 256 480z"/><path style="fill:#008cdf" d="M160 32c-9-1-17 0-26 1C63 41 9 102 8 173c-2 98 81 186 152 242V32z"/><path style="fill:#ff5f7a" d="M504 173A145 145 0 0 0 352 32v316l41 32c58-55 113-128 111-207z"/><path style="fill:#dbd8db" d="M378 33c-9-1-17-2-26-1 45 20 76 77 74 139-5 145-152 261-197 293l19 12c5 3 11 3 16 0 43-26 243-152 240-303-1-71-55-132-126-140z"/><path style="fill:#fb4455" d="M378 33c-9-1-17-2-26-1 45 20 76 77 74 139-2 67-35 128-74 177v67c71-56 154-144 152-242-1-71-55-132-126-140z"/><path style="fill:none;stroke:#000;stroke-width:15;stroke-linecap:round;stroke-linejoin:round;stroke-miterlimit:10" d="M48 76C23 102 8 137 8 176c0 168 248 304 248 304s249-136 249-304A144 144 0 0 0 256 76 144 144 0 0 0 72 56M160 32v383M352 368v47M352 32v304"/></svg>