<?xml version="1.0" encoding="UTF-8"?>
<svg xmlns="http://www.w3.org/2000/svg" xmlns:xlink="http://www.w3.org/1999/xlink" version="1.1" id="Capa_1" x="0px" y="0px" viewBox="0 0 512 512" style="enable-background:new 0 0 512 512;" xml:space="preserve" width="512" height="512">
<g>
	<g>
		<path style="fill:#ECEAEC;" d="M256,480.452c0,0,251.309-137.815,248.476-307.462c-1.187-71.116-55.896-131.916-126.517-140.375&#10;&#9;&#9;&#9;C329.932,26.861,286.011,44.827,256,76.209c-30.011-31.383-73.932-49.349-121.959-43.595&#10;&#9;&#9;&#9;C63.42,41.074,8.711,101.874,7.524,172.989C4.691,342.637,256,480.452,256,480.452z"/>
		<path style="fill:#008CDF;" d="M159.806,31.789c-8.415-0.463-17.02-0.223-25.766,0.825C63.42,41.073,8.711,101.873,7.524,172.989&#10;&#9;&#9;&#9;c-1.638,98.102,81.692,185.518,152.283,241.836V31.789z"/>
		<path style="fill:#FF5F7A;" d="M504.476,172.989c-1.187-71.116-55.896-131.916-126.517-140.375&#10;&#9;&#9;&#9;c-8.746-1.047-17.351-1.288-25.766-0.825v316.36l40.845,31.441C451.319,324.987,505.804,252.498,504.476,172.989z"/>
		<path style="fill:#DBD8DB;" d="M377.959,32.614c-8.747-1.048-17.351-1.288-25.766-0.825h0&#10;&#9;&#9;&#9;c44.78,20.514,75.473,76.803,73.545,139.559c-4.454,144.956-151.682,260.585-196.891,292.741&#10;&#9;&#9;&#9;c7.856,4.995,14.42,8.977,19.067,11.715c5.007,2.951,11.165,2.951,16.171,0c43.012-25.353,242.919-151.406,240.391-302.816&#10;&#9;&#9;&#9;C503.289,101.873,448.58,41.073,377.959,32.614z"/>
		<path style="fill:#FB4455;" d="M377.959,32.614c-8.746-1.048-17.351-1.288-25.766-0.825&#10;&#9;&#9;&#9;c44.78,20.514,75.473,76.803,73.545,139.559c-2.058,66.995-34.651,127.675-73.545,176.801v66.676&#10;&#9;&#9;&#9;c70.59-56.318,153.921-143.734,152.283-241.836C503.289,101.873,448.58,41.073,377.959,32.614z"/>
	</g>
	<g>
		<path style="fill:none;stroke:#000000;stroke-width:15;stroke-linecap:round;stroke-linejoin:round;stroke-miterlimit:10;" d="&#10;&#9;&#9;&#9;M47.579,76.04C22.753,101.956,7.5,137.116,7.5,175.839C7.5,344.177,256,480.452,256,480.452s248.5-136.274,248.5-304.613&#10;&#9;&#9;&#9;c0-79.69-64.601-144.29-144.29-144.29c-41.011,0-77.94,17.19-104.21,44.661c-26.27-27.471-63.198-44.661-104.21-44.661&#10;&#9;&#9;&#9;c-29.663,0-57.235,8.951-80.163,24.299"/>
		
			<line style="fill:none;stroke:#000000;stroke-width:15;stroke-linecap:round;stroke-linejoin:round;stroke-miterlimit:10;" x1="159.806" y1="31.549" x2="159.806" y2="414.674"/>
		
			<line style="fill:none;stroke:#000000;stroke-width:15;stroke-linecap:round;stroke-linejoin:round;stroke-miterlimit:10;" x1="352.193" y1="368.226" x2="352.193" y2="414.674"/>
		
			<line style="fill:none;stroke:#000000;stroke-width:15;stroke-linecap:round;stroke-linejoin:round;stroke-miterlimit:10;" x1="352.193" y1="31.549" x2="352.193" y2="336.161"/>
	</g>
</g>















</svg>
