<svg version="1.1" id="Capa_1" xmlns="http://www.w3.org/2000/svg" xmlns:xlink="http://www.w3.org/1999/xlink" x="0px" y="0px" viewBox="0 0 512 512" style="enable-background:new 0 0 512 512;" xml:space="preserve">
<g>
	<g>
		<g>
			<g>
				<g>
					<path style="fill:#FE73C5;" d="M310.654,290.052c-13.229,13.575-31.421,22.295-51.559,23.095&#10;&#9;&#9;&#9;&#9;&#9;&#9;c-22.645,0.9-43.228-8.129-57.78-23.063l-29.281,29.281c14.263,14.505,32.242,25.343,52.377,30.955&#10;&#9;&#9;&#9;&#9;&#9;&#9;c6.451,1.798,10.88,7.721,10.88,14.418V494.5c0,5.523,4.477,10,10,10h21.417c5.523,0,10-4.477,10-10V364.741&#10;&#9;&#9;&#9;&#9;&#9;&#9;c0-6.697,4.43-12.621,10.881-14.418c20.137-5.611,38.116-16.451,52.379-30.956L310.654,290.052z"/>
				</g>
				<g>
					<path style="fill:#FE4FB7;" d="M318.817,309.619l-0.05-0.05c-14.149,14.149-31.86,24.735-51.667,30.255&#10;&#9;&#9;&#9;&#9;&#9;&#9;c-6.451,1.798-10.881,7.721-10.881,14.418V474c0,5.523-4.477,10-10,10h-10.927v10.5c0,5.523,4.477,10,10,10h21.417&#10;&#9;&#9;&#9;&#9;&#9;&#9;c5.523,0,10-4.477,10-10V364.741c0-6.697,4.43-12.621,10.881-14.418c20.137-5.611,38.116-16.451,52.379-30.956l-15.663-15.663&#10;&#9;&#9;&#9;&#9;&#9;&#9;C322.548,305.718,320.735,307.701,318.817,309.619z"/>
				</g>
				<path style="fill:#BD80E1;" d="M187.013,128.132l-12.756-12.756l28.965-28.965c3.905-3.905,3.905-10.237,0-14.142&#10;&#9;&#9;&#9;&#9;&#9;l-15.144-15.144c-3.905-3.905-10.237-3.905-14.142,0L144.971,86.09l-38.174-38.174H83.511c-3.309,0-6,2.691-6,6v23.286&#10;&#9;&#9;&#9;&#9;&#9;l38.174,38.174L86.72,144.341c-3.905,3.905-3.905,10.237,0,14.142l15.144,15.144c3.905,3.905,10.237,3.905,14.142,0&#10;&#9;&#9;&#9;&#9;&#9;l28.965-28.965l9.844,9.844c4.973,4.973,5.839,12.745,2.038,18.662c-29.279,45.592-24.003,107.106,15.841,146.95l29.286-29.286&#10;&#9;&#9;&#9;&#9;&#9;c-29.787-29.787-29.787-78.253,0-108.04c15.171-15.171,35.188-22.597,55.114-22.314v-41.389&#10;&#9;&#9;&#9;&#9;&#9;c-18.084-0.165-36.199,3.78-52.794,11.862C198.505,133.774,191.571,132.69,187.013,128.132z"/>
			</g>
		</g>
		<path style="fill:#8AC9FE;" d="M357.186,154.506l77.304-77.304V53.917c0-3.309-2.691-6-6-6h-23.286L324.99,128.13&#10;&#9;&#9;&#9;c-4.565,4.565-11.509,5.636-17.313,2.809c-16.226-7.905-33.902-11.868-51.583-11.883v41.398&#10;&#9;&#9;&#9;c19.532,0.024,39.056,7.469,53.926,22.338c29.787,29.787,29.787,78.253,0,108.04l29.286,29.286&#10;&#9;&#9;&#9;c39.844-39.845,45.12-101.359,15.841-146.95C351.347,167.25,352.213,159.479,357.186,154.506z"/>
		<g>
			<path style="fill:#60B7FF;" d="M431.792,48.91l-95.963,95.963c-6.868,6.868-8.199,17.529-3.208,25.861&#10;&#9;&#9;&#9;&#9;c25.746,42.982,25.402,94.997-8.976,133.723l15.661,15.661c39.844-39.845,45.12-101.359,15.841-146.95&#10;&#9;&#9;&#9;&#9;c-3.8-5.918-2.935-13.689,2.038-18.662l77.304-77.304V53.917C434.489,51.824,433.416,49.984,431.792,48.91z"/>
		</g>
		<g>
			<path style="fill:#B3DAFE;" d="M464.906,120.988h-21.417c-5.523,0-10-4.477-10-10V53.917c0-2.761-2.239-5-5-5h-57.072&#10;&#9;&#9;&#9;&#9;c-5.523,0-10-4.477-10-10V17.5c0-5.523,4.477-10,10-10h93.488c5.523,0,10,4.477,10,10v93.488&#10;&#9;&#9;&#9;&#9;C474.906,116.511,470.429,120.988,464.906,120.988z"/>
		</g>
		<g>
			<path style="fill:#8AC9FE;" d="M464.906,7.5H454V90c0,5.523-4.477,10-10,10h-10.511v10.988c0,5.523,4.477,10,10,10h21.417&#10;&#9;&#9;&#9;&#9;c5.523,0,10-4.477,10-10V17.5C474.906,11.977,470.429,7.5,464.906,7.5z"/>
		</g>
		<g>
			<path style="fill:#FEAEE1;" d="M317.671,445.618H194.329c-5.523,0-10-4.477-10-10v-21.417c0-5.523,4.477-10,10-10h123.341&#10;&#9;&#9;&#9;&#9;c5.523,0,10,4.477,10,10v21.417C327.671,441.141,323.194,445.618,317.671,445.618z"/>
		</g>
		<path style="fill:#FE93D3;" d="M317.671,404.201h-16.329V416c0,5.523-4.477,10-10,10H184.329v9.618c0,5.523,4.477,10,10,10&#10;&#9;&#9;&#9;h123.341c5.523,0,10-4.477,10-10v-21.417C327.671,408.678,323.194,404.201,317.671,404.201z"/>
		<g>
			<path style="fill:#D9B1EE;" d="M68.511,120.988H47.094c-5.523,0-10-4.477-10-10V17.5c0-5.523,4.477-10,10-10h93.488&#10;&#9;&#9;&#9;&#9;c5.523,0,10,4.477,10,10v21.417c0,5.523-4.477,10-10,10H83.511c-2.761,0-5,2.239-5,5v57.072&#10;&#9;&#9;&#9;&#9;C78.511,116.511,74.034,120.988,68.511,120.988z"/>
		</g>
		<path style="fill:#CB97E7;" d="M140.583,7.5H130v10.428c0,5.523-4.477,10-10,10H67.928c-5.523,0-10,4.477-10,10V90&#10;&#9;&#9;&#9;c0,5.523-4.477,10-10,10H37.094v10.988c0,5.523,4.477,10,10,10h21.417c5.523,0,10-4.477,10-10V53.917c0-2.761,2.239-5,5-5h57.072&#10;&#9;&#9;&#9;c5.523,0,10-4.477,10-10V17.5C150.583,11.977,146.105,7.5,140.583,7.5z"/>
	</g>
	<g>
		<g>
			<path style="fill:none;stroke:#000000;stroke-width:15;stroke-linecap:round;stroke-linejoin:round;stroke-miterlimit:10;" d="&#10;&#9;&#9;&#9;&#9;M322.404,334.059c6.043-4.142,11.687-8.826,16.852-13.991l-29.317-29.317c-13.167,13.168-31.061,21.609-50.845,22.395&#10;&#9;&#9;&#9;&#9;c-22.283,0.886-42.565-7.847-57.073-22.356l-29.275,29.275c14.149,14.149,31.859,24.733,51.665,30.253&#10;&#9;&#9;&#9;&#9;c6.451,1.798,10.88,7.721,10.88,14.418v39.464h41.417v-39.46c0-6.697,4.43-12.621,10.881-14.418&#10;&#9;&#9;&#9;&#9;c1.116-0.311,2.223-0.643,3.325-0.986"/>
			<path style="fill:none;stroke:#000000;stroke-width:15;stroke-linecap:round;stroke-linejoin:round;stroke-miterlimit:10;" d="&#10;&#9;&#9;&#9;&#9;M235.292,445.618V494.5c0,5.523,4.477,10,10,10h21.417c5.523,0,10-4.477,10-10v-48.882H235.292z"/>
		</g>
		<path style="fill:none;stroke:#000000;stroke-width:15;stroke-linecap:round;stroke-linejoin:round;stroke-miterlimit:10;" d="&#10;&#9;&#9;&#9;M257.094,119.089c-18.084-0.165-36.199,3.78-52.794,11.862c-5.795,2.822-12.73,1.739-17.288-2.819l-12.756-12.756l28.965-28.965&#10;&#9;&#9;&#9;c3.905-3.905,3.905-10.237,0-14.142l-15.144-15.144c-3.905-3.905-10.237-3.905-14.142,0L144.971,86.09l-37.174-37.174H83.511&#10;&#9;&#9;&#9;c-2.761,0-5,2.239-5,5v24.286l37.174,37.174L86.72,144.341c-3.905,3.905-3.905,10.237,0,14.142l15.144,15.144&#10;&#9;&#9;&#9;c3.905,3.905,10.237,3.905,14.142,0l28.965-28.965l9.844,9.844c4.973,4.973,5.839,12.745,2.038,18.662&#10;&#9;&#9;&#9;C147.784,187.29,142.038,202.94,139.6,219"/>
		<path style="fill:none;stroke:#000000;stroke-width:15;stroke-linecap:round;stroke-linejoin:round;stroke-miterlimit:10;" d="&#10;&#9;&#9;&#9;M139.502,254c3.539,24.211,14.599,47.525,33.192,66.119l29.286-29.286c-29.787-29.787-29.787-78.253,0-108.04&#10;&#9;&#9;&#9;c15.171-15.171,35.188-22.597,55.114-22.314"/>
		<path style="fill:none;stroke:#000000;stroke-width:15;stroke-linecap:round;stroke-linejoin:round;stroke-miterlimit:10;" d="&#10;&#9;&#9;&#9;M350.686,102.434L324.99,128.13c-4.565,4.565-11.509,5.636-17.313,2.809c-16.226-7.905-33.902-11.868-51.583-11.883v41.398&#10;&#9;&#9;&#9;c19.532,0.024,39.056,7.469,53.926,22.338c29.787,29.787,29.787,78.253,0,108.04l29.286,29.286&#10;&#9;&#9;&#9;c39.844-39.845,45.12-101.359,15.841-146.95c-3.8-5.918-2.935-13.689,2.038-18.662l76.303-76.303V53.917c0-2.761-2.239-5-5-5&#10;&#9;&#9;&#9;h-24.286l-28.769,28.769"/>
		<g>
			<path style="fill:none;stroke:#000000;stroke-width:15;stroke-linecap:round;stroke-linejoin:round;stroke-miterlimit:10;" d="&#10;&#9;&#9;&#9;&#9;M464.906,120.988h-21.417c-5.523,0-10-4.477-10-10V53.917c0-2.761-2.239-5-5-5h-57.072c-5.523,0-10-4.477-10-10V17.5&#10;&#9;&#9;&#9;&#9;c0-5.523,4.477-10,10-10h93.488c5.523,0,10,4.477,10,10v93.488C474.906,116.511,470.429,120.988,464.906,120.988z"/>
		</g>
		<g>
			<path style="fill:none;stroke:#000000;stroke-width:15;stroke-linecap:round;stroke-linejoin:round;stroke-miterlimit:10;" d="&#10;&#9;&#9;&#9;&#9;M317.671,445.618H194.329c-5.523,0-10-4.477-10-10v-21.417c0-5.523,4.477-10,10-10h123.341c5.523,0,10,4.477,10,10v21.417&#10;&#9;&#9;&#9;&#9;C327.671,441.141,323.194,445.618,317.671,445.618z"/>
		</g>
		<g>
			<path style="fill:none;stroke:#000000;stroke-width:15;stroke-linecap:round;stroke-linejoin:round;stroke-miterlimit:10;" d="&#10;&#9;&#9;&#9;&#9;M68.511,120.988H47.094c-5.523,0-10-4.477-10-10V17.5c0-5.523,4.477-10,10-10h93.488c5.523,0,10,4.477,10,10v21.417&#10;&#9;&#9;&#9;&#9;c0,5.523-4.477,10-10,10H83.511c-2.761,0-5,2.239-5,5v57.072C78.511,116.511,74.034,120.988,68.511,120.988z"/>
		</g>
	</g>
</g>
<g>
</g>
<g>
</g>
<g>
</g>
<g>
</g>
<g>
</g>
<g>
</g>
<g>
</g>
<g>
</g>
<g>
</g>
<g>
</g>
<g>
</g>
<g>
</g>
<g>
</g>
<g>
</g>
<g>
</g>
</svg>