<svg enable-background="new 0 0 256 256" viewBox="0 0 256 256" xmlns="http://www.w3.org/2000/svg"><g id="_x30_3_Alert"><g><path d="m128 218.269c49.774 0 90.269-40.494 90.269-90.269s-40.495-90.268-90.269-90.268-90.269 40.494-90.269 90.269 40.495 90.268 90.269 90.268z" fill="#eaeaea"/><path d="m128.001 203.132c-41.428 0-75.136-33.705-75.136-75.133s33.707-75.131 75.136-75.131 75.131 33.702 75.131 75.131-33.702 75.133-75.131 75.133z" fill="#fff"/><path d="m128 6.909c-66.77 0-121.092 54.321-121.092 121.092 0 66.77 54.322 121.092 121.092 121.092s121.092-54.322 121.092-121.092c0-66.771-54.322-121.092-121.092-121.092zm0 211.36c-49.774 0-90.269-40.494-90.269-90.268s40.495-90.269 90.269-90.269 90.269 40.495 90.269 90.269-40.495 90.268-90.269 90.268z" fill="#b555f9"/><path d="m128.001 239c-61.206 0-111.001-49.794-111.001-111.001s49.795-111.001 111.001-111.001 111.001 49.795 111.001 111.001-49.794 111.001-111.001 111.001zm0-211.359c-55.343 0-100.363 45.02-100.363 100.358s45.02 100.361 100.363 100.361c55.338 0 100.358-45.023 100.358-100.361s-45.02-100.358-100.358-100.358z" fill="#d086fe"/><path d="m117.768 165.151c-2.854 2.862-4.282 6.272-4.282 10.237 0 3.964 1.427 7.374 4.282 10.228s6.272 4.29 10.236 4.29c3.957 0 7.366-1.435 10.228-4.29 2.855-2.854 4.282-6.264 4.282-10.228 0-3.965-1.427-7.374-4.282-10.237-2.862-2.854-6.272-4.281-10.228-4.281-3.965 0-7.382 1.427-10.236 4.281z" fill="#dd5089"/><path d="m117.768 165.151c-2.854 2.862-4.282 6.272-4.282 10.237 0 3.964 1.427 7.374 4.282 10.228s6.272 4.29 10.236 4.29c3.957 0 7.366-1.435 10.228-4.29 2.855-2.854 4.282-6.264 4.282-10.228 0-3.965-1.427-7.374-4.282-10.237-2.862-2.854-6.272-4.281-10.228-4.281-3.965 0-7.382 1.427-10.236 4.281z" fill="#ed72a3"/><path d="m118.588 141.582c.292 2.263 2.219 3.958 4.501 3.958h9.599c2.282 0 4.208-1.694 4.501-3.957l6.051-46.853c.025-.193.037-.387.037-.581v-23.516c0-2.506-2.032-4.538-4.538-4.538h-21.692c-2.506 0-4.538 2.032-4.538 4.538v23.516c0 .194.013.388.037.58z" fill="#dd5089"/><g fill="#3f2a66"><path d="m128 222.176c51.929 0 94.176-42.247 94.176-94.176 0-51.927-42.247-94.174-94.176-94.174-51.927 0-94.174 42.247-94.174 94.174 0 51.929 42.247 94.176 94.174 94.176zm0-180.538c47.622 0 86.364 38.742 86.364 86.362s-38.742 86.364-86.364 86.364c-47.62 0-86.362-38.744-86.362-86.364s38.742-86.362 86.362-86.362z"/><path d="m128 252.999c68.923 0 124.999-56.073 124.999-124.999s-56.076-124.999-124.999-124.999c-68.925 0-124.999 56.074-124.999 124.999s56.074 124.999 124.999 124.999zm0-242.185c64.616 0 117.186 52.57 117.186 117.186s-52.57 117.186-117.186 117.186-117.186-52.57-117.186-117.186 52.57-117.186 117.186-117.186z"/><path d="m128.004 156.963c-10.144 0-18.425 8.27-18.425 18.425 0 10.135 8.277 18.425 18.425 18.425 10.021 0 18.417-8.176 18.417-18.425 0-10.161-8.297-18.425-18.417-18.425zm0 29.037c-5.784 0-10.612-4.764-10.612-10.612 0-5.813 4.776-10.612 10.612-10.612 5.776 0 10.605 4.752 10.605 10.612 0 5.887-4.872 10.612-10.605 10.612z"/><path d="m114.714 142.078c.538 4.2 4.139 7.368 8.377 7.368h9.598c4.23 0 7.831-3.164 8.377-7.364 5.289-41.113 6.119-47.112 6.119-47.933v-23.516c0-4.656-3.788-8.444-8.446-8.444h-21.69c-4.658 0-8.446 3.788-8.446 8.444v23.515c-.001.858.62 5.202 6.111 47.93zm1.701-71.445c0-.349.282-.631.633-.631h21.69c.351 0 .633.282.633.631l-.008 23.597-6.046 46.85c-.042.315-.313.553-.629.553h-9.598c-.317 0-.587-.235-.626-.551l-6.05-46.934v-23.515z"/></g></g></g><g id="Layer_1"/></svg>