<svg viewBox="0 0 256 256" xmlns="http://www.w3.org/2000/svg"><path d="M128 218a90 90 0 1 0 0-180 90 90 0 0 0 0 180z" fill="#eaeaea"/><path d="M128 203a75 75 0 1 1 0-150 75 75 0 0 1 0 150z" fill="#fff"/><path d="M128 7a121 121 0 1 0 0 242 121 121 0 0 0 0-242zm0 211a90 90 0 1 1 0-180 90 90 0 0 1 0 180z" fill="#b555f9"/><path d="M128 239a111 111 0 1 1 0-222 111 111 0 0 1 0 222zm0-211a100 100 0 1 0 0 201 100 100 0 0 0 0-201z" fill="#d086fe"/><path d="M118 165c-3 3-5 6-5 10s2 8 5 11 6 4 10 4 7-2 10-4c3-3 5-7 5-11s-2-7-5-10-6-4-10-4-7 1-10 4z" fill="#dd5089"/><path d="M118 165c-3 3-5 6-5 10s2 8 5 11 6 4 10 4 7-2 10-4c3-3 5-7 5-11s-2-7-5-10-6-4-10-4-7 1-10 4z" fill="#ed72a3"/><path d="M119 142c0 2 2 4 4 4h10c2 0 4-2 4-4l6-47V71c0-3-2-5-4-5h-22c-2 0-4 2-4 5v24z" fill="#dd5089"/><g fill="#3f2a66"><path d="M128 222a94 94 0 1 0 0-188 94 94 0 0 0 0 188zm0-180a86 86 0 1 1 0 173 86 86 0 0 1 0-173z"/><path d="M128 253a125 125 0 1 0 0-250 125 125 0 0 0 0 250zm0-242a117 117 0 1 1 0 234 117 117 0 0 1 0-234z"/><path d="M128 157a18 18 0 0 0 0 37 18 18 0 0 0 0-37zm0 29c-6 0-11-5-11-11 0-5 5-10 11-10s11 5 11 10c0 6-5 11-11 11zM115 142c0 4 4 7 8 7h10c4 0 8-3 8-7l6-48V71c0-5-4-9-8-9h-22c-5 0-8 4-8 9v23l6 48zm1-71 1-1h22v24l-6 47v1h-10l-1-1-6-47V71z"/></g></svg>