<svg xmlns="http://www.w3.org/2000/svg" viewBox="0 0 512 512"><path fill="#96c8ef" d="M256 10c133 0 246 113 246 246a250 250 0 0 1-380 209L10 502l37-112A250 250 0 0 1 256 10zm0 0"/><path fill="#fff" d="M306 356v40H206v-40h20V256h-20v-40h80v140zM286 146a30 30 0 1 1-60 0 30 30 0 0 1 60 0zm0 0"/><path d="M412 136a10 10 0 1 0 20 0 10 10 0 0 0-20 0zM452 256c0 13-1 26-4 38a10 10 0 0 0 20 4 210 210 0 0 0-16-132 10 10 0 1 0-18 9c12 25 18 53 18 81zM306 346h-10V216c0-6-4-10-10-10h-80c-6 0-10 4-10 10v40c0 6 4 10 10 10h10v80h-10c-6 0-10 4-10 10v40c0 6 4 10 10 10h100c6 0 10-4 10-10v-40c0-6-4-10-10-10zm-10 40h-80v-20h10c6 0 10-4 10-10V256c0-6-4-10-10-10h-10v-20h60v130c0 6 4 10 10 10h10zM256 186a40 40 0 1 0 0-80 40 40 0 0 0 0 80zm0-60a20 20 0 1 1 0 40 20 20 0 0 1 0-40zm0 0"/><path d="M256 0A260 260 0 0 0 36 391L1 499a10 10 0 0 0 12 12l108-35a260 260 0 0 0 391-220C512 118 394 0 256 0zm0 492c-45 0-93-13-129-36-2-1-5-2-8-1l-93 31 31-93c1-3 0-6-1-8A239 239 0 0 1 256 20c128 0 236 108 236 236S384 492 256 492zm0 0"/></svg>