<svg height="512" viewBox="0 0 128 128" width="512" xmlns="http://www.w3.org/2000/svg"><path d="M114.5 64v28.8H27.9a14.4 14.4 0 0 1-14.4-14.4A14.4 14.4 0 0 1 28 64z" fill="#3da4ab"/><path d="M28 70.8a7.7 7.7 0 0 0-7.7 7.6 7.7 7.7 0 0 0 7.6 7.7h86.6V70.8z" fill="#faf5e4"/><path d="M114.5 121.7H27.9a14.4 14.4 0 0 1-14.4-14.4A14.4 14.4 0 0 1 28 92.8h86.6z" fill="#f6cd61"/><path d="M52.4 75.2h23.2v10.9H52.4z" fill="#3da4ab"/><path d="m73 86-2 6.8H57l-2-6.7z" fill="#fe8a71"/><path d="M75.6 75.2v-4A15.8 15.8 0 0 1 80.5 60a23.6 23.6 0 1 0-33 0 15.8 15.8 0 0 1 5 11.3v4z" fill="#f6cd61"/><path d="M46.7 70.8V81L42.5 77 38.3 81V70.8z" fill="#fe8a71"/><path d="M114.5 115H27.9a7.7 7.7 0 0 1-7.6-7.7 7.7 7.7 0 0 1 7.6-7.7h86.6z" fill="#faf5e4"/><path d="M46.7 99.6V110l-4.2-4.3-4.2 4.3V99.6z" fill="#fe8a71"/><g fill="#2b1e0c"><path d="M78 39.2a1.8 1.8 0 0 0 1.8 1.3 1.8 1.8 0 0 0 .4 0 1.8 1.8 0 0 0 1.3-2.2 18 18 0 0 0-4.9-8.3 1.8 1.8 0 1 0-2.4 2.5 14.6 14.6 0 0 1 3.9 6.7zM66.7 28.6a14.4 14.4 0 0 1 3 1 1.8 1.8 0 0 0 .7.1 1.8 1.8 0 0 0 .7-3.4 18 18 0 0 0-3.8-1.1 1.8 1.8 0 0 0-.6 3.4zM64 15a1.8 1.8 0 0 0 1.8-1.8V6.3a1.8 1.8 0 0 0-3.5 0v7A1.8 1.8 0 0 0 64 15zM93.7 44.7h7a1.8 1.8 0 0 0 0-3.5h-7a1.8 1.8 0 0 0 0 3.5zM27.4 44.7h6.9a1.8 1.8 0 0 0 0-3.5h-7a1.8 1.8 0 1 0 0 3.5zM41.8 23.2a1.8 1.8 0 0 0 2.4-2.5l-4.9-4.9a1.8 1.8 0 1 0-2.4 2.5zM85 23.7a1.7 1.7 0 0 0 1.2-.5l5-5a1.8 1.8 0 1 0-2.5-2.4l-5 4.9a1.8 1.8 0 0 0 1.3 3z"/><path d="M114.5 62.3H80.7l1-1.2a25.4 25.4 0 1 0-35.4 0l1 1.2H35.7a1.8 1.8 0 0 0 0 3.5h13.8a13.6 13.6 0 0 1 1 3.2H27.9a9.4 9.4 0 1 0 0 18.8h25.8l1 3.3H27.9a12.7 12.7 0 1 1 0-25.3 1.8 1.8 0 1 0 0-3.5 16.2 16.2 0 0 0-7.2 30.6 16.2 16.2 0 0 0 7.2 30.6h58.5a1.8 1.8 0 0 0 0-3.5H28a12.7 12.7 0 1 1 0-25.4h84.8V98H28a9.4 9.4 0 1 0 0 18.8h84.8v3.2h-4.9a1.8 1.8 0 0 0 0 3.5h6.7a1.8 1.8 0 0 0 1.7-1.7V64a1.8 1.8 0 0 0-1.7-1.8zm-60.3 22V77h19.6v7.3zm4.3-32.5h-2.1a2 2 0 1 1 2-2.1zM66 73.5h-4.2V55.3h4.2zm11.2 1.7v-2.7h35.4v11.8H77.3zm35.4-9.4V69H77.5a13.6 13.6 0 0 1 1-3.2zM42.1 42.9a21.9 21.9 0 1 1 37.2 15.7 18.4 18.4 0 0 0-3.5 4.6v.1a17 17 0 0 0-2 7.1 1.8 1.8 0 0 0 0 .4V73.6h-4.2V55.3h2a5.6 5.6 0 1 0-5.5-5.6v2h-4.2v-2a5.6 5.6 0 1 0-5.5 5.6h2v18.2h-4.2V70.8a1.8 1.8 0 0 0 0-.4 17 17 0 0 0-2-7v-.2a18.4 18.4 0 0 0-3.5-4.6A21.7 21.7 0 0 1 42.1 43zm27.5 8.9v-2.1a2 2 0 1 1 2 2zM40 72.5h5V77l-1.3-1.2a1.8 1.8 0 0 0-2.4 0L40 76.9zm-18 6a6 6 0 0 1 6-6h8.5v8.6a1.8 1.8 0 0 0 3 1.2l3-3 3 3a1.7 1.7 0 0 0 1.2.6 1.8 1.8 0 0 0 .7-.2 1.8 1.8 0 0 0 1-1.6v-8.6h2.3v11.8H27.9a6 6 0 0 1-5.9-5.9zM58.3 91l-1-3.3h13.4l-1 3.3zm15 0 1-3.3h38.4v3.3zM40 101.4h5v4.3l-1.3-1.2a1.7 1.7 0 0 0-2.4 0l-1.3 1.2zm-12 11.8a5.9 5.9 0 1 1 0-11.8h8.5v8.6a1.8 1.8 0 0 0 3 1.2l3-3 3 3a1.7 1.7 0 0 0 3-1.2v-8.6h64.2v11.8z"/><path d="M99.2 120h-4.5a1.8 1.8 0 0 0 0 3.4h4.5a1.8 1.8 0 0 0 0-3.5z"/></g></svg>