<?xml version="1.0" encoding="iso-8859-1"?>
<!-- Generator: Adobe Illustrator 19.0.0, SVG Export Plug-In . SVG Version: 6.00 Build 0)  -->
<svg version="1.1" id="Capa_1" xmlns="http://www.w3.org/2000/svg" xmlns:xlink="http://www.w3.org/1999/xlink" x="0px" y="0px"
	 viewBox="0 0 512.002 512.002" style="enable-background:new 0 0 512.002 512.002;" xml:space="preserve">
<path style="fill:#C3C247;" d="M168.628,108.006c6.479,17.517,2.709,37.978-11.335,52.053l-11.601,11.627
	c-14.044,14.075-34.459,17.853-51.937,11.36c-6.479-17.517-2.709-37.978,11.335-52.053l11.601-11.627
	C130.734,105.291,151.15,101.513,168.628,108.006z M141.81,74.688l11.601-11.627c14.044-14.075,17.813-34.536,11.335-52.053
	c-17.478-6.493-37.894-2.715-51.938,11.36l-11.601,11.627C87.163,48.07,83.394,68.531,89.872,86.048
	C107.35,92.541,127.766,88.763,141.81,74.688z M395.309,119.366c-14.044-14.075-34.459-17.853-51.937-11.36
	c-6.479,17.517-2.709,37.978,11.335,52.053l11.601,11.627c14.044,14.075,34.459,17.853,51.938,11.36
	c6.479-17.517,2.709-37.978-11.335-52.053L395.309,119.366z M410.793,33.994l-11.601-11.627
	c-14.044-14.075-34.459-17.853-51.937-11.36c-6.479,17.517-2.709,37.978,11.335,52.053l11.601,11.627
	c14.044,14.075,34.459,17.853,51.938,11.36C428.606,68.531,424.837,48.07,410.793,33.994z"/>
<path style="fill:#434E4D;" d="M105.462,148.104c-5.465,16.014-21.478,25.026-35.765,20.129
	c-14.288-4.898-21.44-21.85-15.975-37.864s21.478-25.026,35.765-20.128C103.775,115.138,110.927,132.09,105.462,148.104z
	 M458.278,130.369c-5.465-16.014-21.478-25.026-35.765-20.128c-14.288,4.897-21.44,21.85-15.975,37.864s21.478,25.026,35.765,20.129
	C456.591,163.335,463.743,146.383,458.278,130.369z"/>
<path style="fill:#586665;" d="M105.462,148.104c-2.903,8.508-8.784,15.04-15.802,18.559c-11.846-6.31-17.359-21.69-12.375-36.295
	c2.904-8.508,8.784-15.04,15.802-18.559C104.933,118.119,110.446,133.499,105.462,148.104z M458.278,130.369
	c-5.465-16.014-21.478-25.026-35.765-20.129c-0.471,0.162-0.933,0.338-1.389,0.525c-3.033,6.924-3.527,15.315-0.745,23.467
	c5.465,16.014,21.478,25.026,35.766,20.128c0.471-0.161,0.933-0.338,1.389-0.525C460.567,146.911,461.06,138.52,458.278,130.369z"/>
<g>
	<path style="fill:#C3C247;" d="M64.921,98.96v16.443c0,19.905-11.771,37.045-28.711,44.84c-16.94-7.795-28.71-24.935-28.71-44.84
		V98.96c0-19.905,11.77-37.045,28.711-44.84C53.151,61.916,64.921,79.055,64.921,98.96z M475.789,54.12
		c-16.94,7.795-28.711,24.935-28.711,44.84v16.443c0,19.905,11.771,37.045,28.711,44.84c16.94-7.795,28.711-24.935,28.711-44.84
		V98.96C504.5,79.055,492.729,61.916,475.789,54.12z"/>
	<path style="fill:#C3C247;" d="M147.43,202.509c11.944,14.343,15.21,34.89,6.664,52.858l-7.06,14.842
		c-8.547,17.968-26.531,28.363-45.169,28.094c-11.944-14.342-15.21-34.89-6.664-52.858l7.06-14.842
		C110.807,212.634,128.792,202.24,147.43,202.509z M36.211,173.318C19.27,181.113,7.5,198.252,7.5,218.158V234.6
		c0,19.905,11.77,37.045,28.711,44.84c16.94-7.795,28.711-24.935,28.711-44.84v-16.443
		C64.921,198.252,53.151,181.113,36.211,173.318z M409.739,230.602c-8.547-17.968-26.531-28.363-45.169-28.094
		c-11.944,14.343-15.21,34.89-6.664,52.858l7.06,14.842c8.547,17.968,26.531,28.363,45.169,28.094
		c11.944-14.342,15.21-34.89,6.664-52.858L409.739,230.602z M475.789,173.318c-16.94,7.795-28.711,24.935-28.711,44.84V234.6
		c0,19.905,11.771,37.045,28.711,44.84c16.94-7.795,28.711-24.935,28.711-44.84v-16.443
		C504.5,198.252,492.729,181.113,475.789,173.318z"/>
</g>
<path style="fill:#434E4D;" d="M146.782,306.327c5.465,16.014-1.687,32.967-15.975,37.864c-14.288,4.898-30.3-4.114-35.766-20.128
	c-5.465-16.014,1.687-32.967,15.975-37.864C125.305,281.301,141.317,290.312,146.782,306.327z M28.224,262.21
	c-14.288,4.898-21.44,21.85-15.975,37.864c5.465,16.014,21.478,25.026,35.765,20.128c14.288-4.898,21.44-21.85,15.975-37.864
	C58.525,266.324,42.512,257.312,28.224,262.21z M400.983,286.198c-14.288-4.898-30.301,4.114-35.766,20.128
	c-5.465,16.014,1.687,32.967,15.975,37.864c14.288,4.898,30.3-4.114,35.765-20.128S415.271,291.096,400.983,286.198z
	 M483.776,262.21c-14.288-4.898-30.3,4.114-35.765,20.129c-5.465,16.014,1.687,32.966,15.975,37.864s30.301-4.114,35.766-20.128
	C505.216,284.06,498.063,267.107,483.776,262.21z"/>
<path style="fill:#586665;" d="M146.782,306.327c2.587,7.581,2.343,15.37-0.143,21.993c-14.286,4.892-30.295-4.119-35.759-20.131
	c-2.587-7.581-2.343-15.37,0.143-21.993C125.309,281.303,141.318,290.315,146.782,306.327z M30.153,261.645
	c-1.821,6.152-1.786,13.132,0.539,19.945c5.22,15.297,20.064,24.196,33.837,20.693c1.821-6.152,1.786-13.132-0.539-19.945
	C58.769,267.041,43.925,258.143,30.153,261.645z M404.164,287.554c-7.216,3.463-13.289,10.083-16.255,18.773
	c-5.042,14.775,0.661,30.34,12.794,36.508c7.216-3.463,13.289-10.083,16.255-18.773C422,309.288,416.297,293.722,404.164,287.554z
	 M485.834,263.015c-7.732,3.278-14.311,10.125-17.437,19.265c-5.195,15.19,1.017,31.217,13.916,36.961
	c7.732-3.278,14.311-10.125,17.437-19.265C504.946,284.787,498.734,268.76,485.834,263.015z"/>
<g>
	<path style="fill:#C3C247;" d="M194.05,350.647l-3.181,16.131c-3.851,19.528-18.714,34.054-36.841,38.409
		c-15.11-10.939-23.341-30.041-19.49-49.568l3.181-16.131c3.851-19.528,18.714-34.054,36.841-38.409
		C189.669,312.018,197.901,331.12,194.05,350.647z M66.412,331.09c-11.173-16.457-30.525-23.991-48.905-20.885
		c-9.63,15.996-9.741,36.802,1.431,53.259l9.229,13.595c11.173,16.457,30.524,23.991,48.905,20.885
		c9.63-15.996,9.741-36.802-1.431-53.259L66.412,331.09z M374.282,339.488c-3.851-19.528-18.714-34.054-36.841-38.409
		c-15.11,10.94-23.341,30.041-19.49,49.569l3.181,16.131c3.851,19.528,18.714,34.054,36.841,38.409
		c15.11-10.939,23.341-30.041,19.49-49.568L374.282,339.488z M494.493,310.205c-18.381-3.106-37.733,4.428-48.905,20.885
		l-9.229,13.594c-11.173,16.457-11.061,37.264-1.431,53.259c18.381,3.106,37.733-4.428,48.905-20.885l9.229-13.595
		C504.234,347.007,504.123,326.2,494.493,310.205z"/>
	<path style="fill:#C3C247;" d="M183.979,459.469c-8.968,16.378-26.866,26.921-46.676,25.499l-16.364-1.174
		c-19.81-1.421-36.027-14.412-42.576-31.903c8.968-16.378,26.866-26.921,46.676-25.499l16.364,1.174
		C161.214,428.987,177.431,441.978,183.979,459.469z M386.961,426.392l-16.364,1.174c-19.81,1.421-36.027,14.412-42.576,31.903
		c8.968,16.378,26.866,26.921,46.676,25.499l16.364-1.174c19.81-1.421,36.027-14.412,42.576-31.903
		C424.669,435.513,406.771,424.97,386.961,426.392z"/>
</g>
<path style="fill:#EC615B;" d="M326.861,474.907h-11.648c-4.023,0-7.676-1.546-10.435-4.061c-2.759,2.515-6.412,4.061-10.435,4.061
	h-11.648c-4.023,0-7.676-1.546-10.435-4.061c-2.759,2.515-6.412,4.061-10.435,4.061h-11.648c-4.023,0-7.676-1.546-10.435-4.061
	c-2.759,2.515-6.412,4.061-10.435,4.061h-11.648c-4.023,0-7.676-1.546-10.435-4.061c-2.759,2.515-6.412,4.061-10.435,4.061h-11.648
	c-8.578,0-15.531-6.969-15.531-15.566V441.83c0-8.597,6.954-15.566,15.531-15.566h11.648c4.023,0,7.676,1.546,10.435,4.061
	c2.759-2.515,6.412-4.061,10.435-4.061h11.648c4.023,0,7.676,1.546,10.435,4.061c2.759-2.515,6.412-4.061,10.435-4.061h11.648
	c4.023,0,7.676,1.546,10.435,4.061c2.759-2.515,6.412-4.061,10.435-4.061h11.648c4.023,0,7.676,1.546,10.435,4.061
	c2.759-2.515,6.412-4.061,10.435-4.061h11.648c8.578,0,15.531,6.969,15.531,15.566v17.512
	C342.393,467.938,335.439,474.907,326.861,474.907z"/>
<path style="fill:#A5423B;" d="M342.393,441.83v17.512c0,8.597-6.954,15.566-15.531,15.566h-11.648
	c-4.023,0-7.677-1.546-10.435-4.061c-2.759,2.515-6.412,4.061-10.435,4.061h-11.648c-4.023,0-7.676-1.546-10.435-4.061
	c-2.759,2.515-6.412,4.061-10.435,4.061h-11.648c-4.023,0-7.676-1.546-10.435-4.061c-2.759,2.515-6.412,4.061-10.435,4.061H217.66
	c-4.023,0-7.676-1.546-10.435-4.061c-2.759,2.515-6.412,4.061-10.435,4.061h-11.648c-8.578,0-15.531-6.969-15.531-15.566V441.83
	c0-0.493,0.029-0.978,0.073-1.459c0.735,7.912,7.372,14.106,15.458,14.106h11.648c1.129,0,2.224-0.134,3.282-0.364
	c0.627-3.39,3.588-5.96,7.153-5.96s6.525,2.569,7.153,5.96c1.059,0.231,2.154,0.364,3.282,0.364h11.648
	c1.402,0,2.754-0.198,4.044-0.549c0.699-3.299,3.619-5.774,7.119-5.774c3.614,0,6.604,2.642,7.174,6.102
	c0.825,0.137,1.668,0.222,2.533,0.222h11.648c1.22,0,2.399-0.158,3.536-0.426c0.651-3.36,3.6-5.898,7.143-5.898
	c3.586,0,6.559,2.601,7.162,6.021c0.979,0.196,1.991,0.302,3.028,0.302h11.648c1.099,0,2.167-0.125,3.201-0.344
	c0.619-3.4,3.584-5.979,7.156-5.979c3.558,0,6.515,2.559,7.15,5.94c1.084,0.242,2.206,0.384,3.364,0.384h11.648
	c8.086,0,14.723-6.195,15.458-14.107C342.364,440.851,342.393,441.337,342.393,441.83z"/>
<path d="M512,115.142V98.671c0-22.164-12.989-42.469-33.093-51.73c-1.99-0.917-4.285-0.917-6.275,0
	c-17.304,7.971-29.329,24.127-32.345,42.606l-7.822-7.546c4.69-18.428-1.35-38.579-16.426-53.703L404.43,16.652
	c-15.633-15.685-39.147-20.831-59.9-13.114c-2.049,0.762-3.663,2.38-4.421,4.43c-7.685,20.799-2.557,44.365,13.065,60.037
	l11.609,11.647c10.192,10.225,24.79,15.709,39.904,15.709c5.811,0,11.696-0.826,17.438-2.49l8.579,8.276
	c-3.608-0.025-7.21,0.536-10.685,1.728c-18.18,6.238-27.443,27.521-20.651,47.444c0.119,0.35,0.254,0.693,0.383,1.039l-13.414-12.94
	c-2.98-2.875-7.729-2.79-10.604,0.191c-2.876,2.982-2.791,7.729,0.19,10.605l29.321,28.284
	c-12.625,1.235-25.253-2.775-33.724-11.273l-11.608-11.647c-10.678-10.713-14.698-26.438-10.699-40.899
	c11.032-3.055,23.084-1.438,32.871,4.539c3.532,2.158,8.15,1.043,10.31-2.492c2.158-3.535,1.042-8.151-2.493-10.31
	c-14.678-8.964-33.094-10.725-49.257-4.715c-2.049,0.762-3.663,2.38-4.421,4.43c-7.685,20.798-2.556,44.364,13.066,60.037
	l11.608,11.647c10.298,10.331,24.941,15.887,39.986,15.887c5.837,0,11.731-0.851,17.458-2.57l19.751,19.053
	c0.488,0.471,1.026,0.855,1.593,1.167v3.63c-0.098,1.354-0.148,2.718-0.148,4.088v16.471c0,0.509,0.052,1.006,0.148,1.486v12.166
	c0,4.142,3.357,7.5,7.5,7.5s7.5-3.358,7.5-7.5v-33.467c1.112-13.831,9.044-26.311,21.083-33.15
	c13.003,7.387,21.23,21.351,21.23,36.494v16.471c0,7.968-2.275,15.754-6.483,22.421c-1.379-0.714-2.817-1.342-4.323-1.859
	c-1.245-0.427-2.51-0.766-3.786-1.035l-0.71-28.717c-0.104-4.142-3.59-7.406-7.684-7.312c-4.141,0.103-7.415,3.542-7.313,7.683
	l0.711,28.717c-2.271,0.587-4.512,1.408-6.689,2.475c-9.158,4.49-16.395,12.883-19.852,23.026
	c-4.602,13.5-1.981,27.876,6.416,37.699c-0.578,0.546-1.141,1.109-1.697,1.68c-0.024-0.008-0.046-0.018-0.07-0.026l-19.302-5.983
	c0.009-6.645-1.625-13.03-4.63-18.53c9.198-16.206,9.969-35.662,1.922-52.596l-7.064-14.869
	c-9.511-20.016-29.961-32.729-52.084-32.421c-2.19,0.032-4.257,1.019-5.657,2.703c-14.168,17.031-17.182,40.961-7.677,60.964
	l7.064,14.869c2.571,5.409,5.907,10.274,9.933,14.551c-4.122,4.063-7.406,9.083-9.526,14.686c-5.77-4.08-12.331-7.121-19.424-8.827
	c-2.131-0.514-4.381-0.068-6.154,1.219c-17.929,12.992-26.745,35.435-22.462,57.177l3.184,16.159
	c4.02,20.404,18.945,36.978,38.545,43.221l2.632,11.935c-3.298,1.187-6.48,2.679-9.512,4.468
	c-4.218-5.461-10.816-8.987-18.224-8.987h-11.657c-3.663,0-7.231,0.874-10.442,2.518c-3.211-1.644-6.779-2.518-10.442-2.518h-11.656
	c-3.663,0-7.231,0.874-10.442,2.518c-3.211-1.644-6.779-2.518-10.442-2.518h-11.657c-3.662,0-7.231,0.874-10.442,2.518
	c-3.21-1.644-6.779-2.518-10.442-2.518h-11.656c-3.663,0-7.231,0.874-10.442,2.518c-3.211-1.644-6.779-2.518-10.442-2.518h-11.656
	c-7.473,0-14.123,3.586-18.336,9.129c-3.103-1.852-6.365-3.392-9.75-4.61l2.632-11.935c19.6-6.243,34.526-22.817,38.545-43.221
	l3.184-16.159c4.283-21.741-4.533-44.184-22.462-57.177c-1.775-1.286-4.022-1.733-6.154-1.219
	c-7.093,1.706-13.654,4.747-19.424,8.827c-2.121-5.603-5.404-10.623-9.526-14.685c4.026-4.277,7.362-9.143,9.933-14.552
	l7.064-14.868c9.505-20.003,6.491-43.933-7.677-60.964c-1.4-1.684-3.467-2.671-5.657-2.703c-0.272-0.004-0.544-0.006-0.816-0.006
	c-21.813,0-41.873,12.659-51.268,32.428l-7.064,14.868c-8.046,16.933-7.276,36.39,1.922,52.597c-3.004,5.5-4.639,11.885-4.63,18.53
	l-19.302,5.983c-0.024,0.007-0.046,0.018-0.07,0.026c-0.556-0.572-1.119-1.135-1.697-1.68c8.397-9.823,11.018-24.199,6.416-37.699
	c-3.457-10.142-10.693-18.535-19.853-23.026c-2.177-1.067-4.417-1.888-6.688-2.475l0.711-28.717
	c0.103-4.141-3.172-7.581-7.313-7.683c-4.134-0.082-7.58,3.171-7.684,7.312l-0.711,28.717c-1.275,0.27-2.54,0.608-3.786,1.035
	c-1.505,0.517-2.943,1.145-4.323,1.859c-4.205-6.666-6.48-14.452-6.48-22.42v-16.471c0-15.144,8.228-29.107,21.23-36.494
	c12.039,6.839,19.971,19.319,21.083,33.15v33.467c0,4.142,3.357,7.5,7.5,7.5s7.5-3.358,7.5-7.5V236.03
	c0.097-0.48,0.148-0.977,0.148-1.486v-16.471c0-1.371-0.051-2.734-0.148-4.088v-3.63c0.567-0.312,1.105-0.697,1.593-1.167
	l18.788-18.123c5.392,1.549,10.992,2.314,16.587,2.314c15.607,0,31.145-5.85,41.82-16.561l11.608-11.646
	c15.622-15.673,20.751-39.239,13.066-60.037c-0.758-2.05-2.372-3.668-4.421-4.43c-17.327-6.443-36.727-4.04-51.898,6.43
	c-3.409,2.353-4.266,7.024-1.913,10.433c2.352,3.409,7.022,4.265,10.433,1.913c10.181-7.026,22.957-9.107,34.809-5.802
	c4.002,14.462-0.02,30.189-10.698,40.904l-11.608,11.646c-8.509,8.536-21.75,12.892-34.495,12.016l30.091-29.028
	c2.981-2.876,3.066-7.624,0.19-10.605c-2.876-2.982-7.625-3.067-10.604-0.191l-13.415,12.941c0.129-0.347,0.263-0.69,0.383-1.041
	c6.793-19.922-2.471-41.206-20.65-47.444c-3.474-1.192-7.077-1.753-10.685-1.728l8.685-8.378c5.763,1.678,11.668,2.51,17.5,2.51
	c15.059,0,29.598-5.456,39.736-15.628l11.608-11.646c15.622-15.673,20.751-39.239,13.066-60.037c-0.758-2.05-2.372-3.668-4.421-4.43
	c-20.756-7.717-44.266-2.569-59.899,13.114L95.961,28.299c-14.975,15.023-20.954,35.113-16.27,53.552l-7.978,7.696
	c-3.016-18.479-15.041-34.635-32.345-42.606c-1.99-0.917-4.285-0.917-6.275,0C12.989,56.202,0,76.508,0,98.671v16.471
	c0,20.67,11.299,39.718,29.127,49.704l-0.071,3.564C11.27,178.407,0,197.432,0,218.073v16.471c0,11.567,3.539,22.852,10.042,32.304
	c-6.983,9.57-9.247,22.913-4.887,35.701c0.954,2.802,2.208,5.457,3.702,7.957c-9.036,18.274-7.668,40.302,3.883,57.333l9.236,13.617
	c10.217,15.066,28.012,23.827,47.186,23.827c2.153,0,4.324-0.125,6.504-0.349l8.707,12.313c1.405,1.987,3.688,3.17,6.123,3.17
	l18.782,0.001c-15.679,3.527-29.489,13.647-37.444,28.19c-1.046,1.912-1.208,4.185-0.444,6.227
	c7.771,20.778,27.041,35.228,49.093,36.812l16.376,1.176c1.387,0.1,2.77,0.149,4.146,0.149c12.741,0,24.931-4.247,34.963-12.179
	c2.846,1.263,5.99,1.971,9.298,1.971h11.656c3.663,0,7.231-0.874,10.442-2.518c1.011,0.518,2.062,0.95,3.136,1.312l-13.236,18.592
	c-2.402,3.375-1.615,8.057,1.76,10.46c1.319,0.939,2.838,1.391,4.343,1.391c2.345,0,4.653-1.096,6.116-3.15l18.572-26.086h1.408
	c3.664,0,7.232-0.873,10.442-2.517c3.211,1.644,6.779,2.517,10.442,2.517h11.657c3.663,0,7.231-0.874,10.442-2.518
	c3.211,1.644,6.779,2.518,10.442,2.518h1.06l18.572,26.086c1.463,2.055,3.771,3.15,6.116,3.15c1.504,0,3.024-0.452,4.343-1.391
	c3.375-2.403,4.162-7.086,1.76-10.46l-13.169-18.497c1.173-0.378,2.317-0.844,3.417-1.407c3.211,1.644,6.779,2.518,10.442,2.518
	h11.657c3.222,0,6.29-0.669,9.078-1.871c10.008,7.867,22.146,12.079,34.833,12.079c1.375,0,2.76-0.05,4.146-0.149l16.376-1.176
	c22.052-1.584,41.322-16.034,49.093-36.812c0.764-2.042,0.602-4.315-0.444-6.227c-7.953-14.539-21.761-24.661-37.433-28.19
	l18.771-0.001c2.435,0,4.718-1.182,6.123-3.17l8.396-11.872c1.937,0.181,3.873,0.281,5.8,0.281c19.396,0,37.926-9.049,48.201-24.2
	l9.236-13.618c11.55-17.03,12.917-39.058,3.882-57.332c1.495-2.5,2.748-5.155,3.703-7.957c4.36-12.788,2.096-26.131-4.887-35.701
	c6.503-9.453,10.042-20.737,10.042-32.304v-16.471c0-20.642-11.271-39.668-29.06-49.665l-0.071-3.56
	C500.699,154.862,512,135.813,512,115.142z M44.051,168.783l0.088-4.401c1.934-1.125,3.791-2.354,5.559-3.685
	c2.042,3.438,4.61,6.435,7.616,8.89v9.821C53.491,175.262,49.031,171.669,44.051,168.783z M72.313,189.882v-13.453
	c1.8,0.308,3.62,0.468,5.444,0.468c3.162,0,6.338-0.462,9.445-1.379L72.313,189.882z M87.11,117.064
	c10.371,3.559,15.45,16.305,11.321,28.415c-2.182,6.4-6.649,11.647-12.259,14.397c-4.562,2.237-9.531,2.625-13.999,1.091
	c-5.172-1.774-9.196-5.909-11.265-11.475c6.673-8.838,10.756-19.575,11.441-30.94C77.091,115.992,82.367,115.436,87.11,117.064z
	 M106.584,38.889l11.609-11.647c10.665-10.699,26.316-14.732,40.706-10.728c4.001,14.461-0.02,30.188-10.698,40.902l-11.608,11.646
	c-9.198,9.228-21.937,12.065-33.435,10.994L132.19,52.05c2.981-2.876,3.066-7.624,0.19-10.605s-7.624-3.067-10.604-0.191
	L93.09,68.926C93.148,58.338,97.797,47.704,106.584,38.889z M15,115.142V98.671c0-15.144,8.228-29.108,21.23-36.495
	c13.003,7.386,21.231,21.351,21.231,36.495v16.471c0,11.601-4.841,22.497-12.945,30.287l0.781-39.141
	c0.083-4.141-3.207-7.566-7.349-7.648c-0.051-0.001-0.102-0.001-0.152-0.001c-4.072,0-7.414,3.26-7.495,7.351l-0.815,40.87
	C20.45,139.006,15,127.466,15,115.142z M455.069,284.784c2.182-6.4,6.649-11.647,12.258-14.397c4.562-2.236,9.53-2.626,14-1.092
	c10.37,3.558,15.449,16.305,11.321,28.414c-0.545,1.599-1.245,3.115-2.059,4.554c-10.875-0.823-21.629,1.539-31.027,6.559
	C453.958,303.049,452.084,293.539,455.069,284.784z M381.115,336.156c-1.862-7.926-5.385-15.223-10.18-21.501
	c0.207-1.971,0.632-3.933,1.283-5.842c2.182-6.4,6.649-11.647,12.258-14.397c4.562-2.235,9.53-2.626,14-1.092
	c10.37,3.558,15.449,16.305,11.321,28.415c-2.182,6.399-6.649,11.646-12.258,14.396c-4.563,2.237-9.533,2.624-14.002,1.092
	C382.701,336.941,381.897,336.568,381.115,336.156z M368.101,209.995c14.896,1.053,28.307,10.101,34.798,23.762l7.064,14.868
	c5.193,10.927,5.395,23.281,0.816,34.208c-0.152-0.102-0.306-0.201-0.46-0.3l-18.368-36.783c-1.851-3.707-6.358-5.211-10.061-3.359
	c-3.706,1.851-5.21,6.355-3.359,10.061l12.487,25.005c-3.417,0.196-6.831,0.923-10.138,2.184c-3.842-3.579-6.945-7.822-9.238-12.646
	l-7.064-14.868C358.079,238.451,359.521,222.284,368.101,209.995z M328.361,365.499l-3.184-16.159
	c-2.928-14.86,2.448-30.164,13.781-39.942c14.18,4.715,24.946,16.811,27.873,31.664l3.184,16.158
	c2.286,11.604-0.511,23.468-7.235,32.771l-8.594-38.965c-0.893-4.044-4.89-6.604-8.939-5.709c-4.045,0.892-6.601,4.894-5.709,8.939
	l8.65,39.22C338.074,387.492,330.703,377.384,328.361,365.499z M366.73,407.899c14.897-13.294,21.913-33.727,18.002-53.579
	l-0.3-1.524c1.554,0.228,3.12,0.361,4.691,0.361c5.085,0,10.206-1.193,15.021-3.553c8.68-4.257,15.628-12.02,19.274-21.454
	l12.506,3.876l-5.819,8.581c-4.027,5.938-6.953,12.234-8.772,18.629c-0.039,0.046-0.082,0.088-0.12,0.135l-48.475,60.789
	l-2.772,0.199c-0.16,0.011-0.317,0.031-0.477,0.043L366.73,407.899z M142.035,420.36l-2.773-0.199l-48.474-60.789
	c-0.075-0.094-0.158-0.178-0.236-0.268c-1.751-6.334-4.637-12.572-8.655-18.497l-5.819-8.581l12.506-3.876
	c3.646,9.434,10.594,17.198,19.274,21.454c4.814,2.36,9.936,3.553,15.021,3.553c1.571,0,3.137-0.133,4.691-0.361l-0.3,1.524
	c-3.911,19.852,3.105,40.285,18.002,53.579l-2.758,12.504C142.353,420.39,142.195,420.371,142.035,420.36z M127.523,294.416
	c5.608,2.75,10.076,7.997,12.259,14.399c0.65,1.906,1.074,3.868,1.282,5.839c-4.795,6.278-8.318,13.575-10.18,21.501
	c-0.782,0.412-1.586,0.785-2.424,1.072c-4.468,1.533-9.438,1.145-14.001-1.092c-5.608-2.75-10.076-7.997-12.258-14.396
	c-4.128-12.11,0.951-24.857,11.321-28.415C117.991,291.792,122.963,292.18,127.523,294.416z M173.041,309.398
	c11.333,9.778,16.709,25.082,13.781,39.942l-3.184,16.159c-2.341,11.886-9.712,21.993-19.827,27.979l8.65-39.22
	c0.892-4.045-1.664-8.047-5.709-8.939c-4.046-0.893-8.047,1.663-8.939,5.709l-8.594,38.965c-6.724-9.303-9.521-21.167-7.235-32.771
	l3.184-16.158C148.094,326.208,158.861,314.113,173.041,309.398z M102.037,248.626l7.064-14.868
	c6.492-13.663,19.9-22.711,34.798-23.763c8.58,12.289,10.021,28.456,3.522,42.132l-7.064,14.868
	c-2.293,4.825-5.396,9.068-9.238,12.647c-3.307-1.262-6.721-1.988-10.138-2.185l12.487-25.005c1.851-3.706,0.347-8.21-3.359-10.061
	c-3.707-1.85-8.21-0.347-10.061,3.359l-18.368,36.783c-0.154,0.099-0.308,0.198-0.46,0.301
	C96.642,271.907,96.844,259.553,102.037,248.626z M56.931,284.784c2.985,8.755,1.111,18.265-4.492,24.039
	c-9.398-5.019-20.152-7.381-31.028-6.559c-0.814-1.439-1.514-2.955-2.059-4.554c-4.128-12.109,0.951-24.856,11.322-28.415
	c4.466-1.531,9.438-1.144,13.998,1.092C50.281,273.136,54.749,278.384,56.931,284.784z M34.39,373.036l-9.236-13.618
	c-8.496-12.526-9.519-28.728-2.898-42.184c14.884-1.232,29.508,5.665,37.992,18.175l9.235,13.618
	c6.828,10.067,9.315,21.233,7.38,31.623l-22.739-32.154c-2.391-3.381-7.073-4.185-10.453-1.793
	c-3.382,2.392-4.185,7.072-1.793,10.454L65.103,390C53.667,388.94,41.698,383.814,34.39,373.036z M87.629,395.874
	c1.752-3.745,3.039-7.618,3.857-11.567l16.834,21.111l-13.942-0.001L87.629,395.874z M137.932,477.86l-16.376-1.176
	c-15.053-1.081-28.346-10.322-34.755-23.877c8.267-12.497,22.73-19.744,37.784-18.661l16.376,1.176
	c7.734,0.555,15.026,3.204,21.261,7.685v5.73l-31.242-1.627c-4.122-0.221-7.664,2.963-7.88,7.1c-0.215,4.137,2.964,7.665,7.1,7.88
	l32.395,1.687c0.421,2.341,1.193,4.559,2.263,6.6C157.025,475.913,147.623,478.558,137.932,477.86z M315.429,467.763
	c-1.045,0-2.068-0.213-3.021-0.608v-11.383c0-4.142-3.357-7.5-7.5-7.5s-7.5,3.358-7.5,7.5v11.452
	c-0.908,0.353-1.877,0.539-2.863,0.539h-11.656c-0.928,0-1.838-0.17-2.698-0.483v-11.508c0-4.142-3.357-7.5-7.5-7.5
	s-7.5,3.358-7.5,7.5v11.309c-1,0.441-2.081,0.681-3.187,0.681h-11.657c-0.755,0-1.498-0.11-2.213-0.318v-11.672
	c0-4.142-3.357-7.5-7.5-7.5s-7.5,3.358-7.5,7.5v11.08c-1.13,0.592-2.385,0.911-3.672,0.911h-11.656
	c-1.016,0-2.011-0.199-2.942-0.572v-11.418c0-4.142-3.357-7.5-7.5-7.5s-7.5,3.358-7.5,7.5v11.418
	c-0.931,0.374-1.927,0.572-2.942,0.572h-11.656c-4.435,0-8.042-3.63-8.042-8.093v-17.542c0-4.462,3.607-8.093,8.042-8.093h11.656
	c1.984,0,3.897,0.749,5.388,2.108c2.863,2.612,7.246,2.612,10.109,0c1.49-1.359,3.403-2.108,5.388-2.108h11.656
	c1.984,0,3.897,0.749,5.387,2.107c2.863,2.613,7.247,2.613,10.11,0c1.49-1.359,3.403-2.108,5.388-2.108h11.657
	c1.984,0,3.897,0.749,5.388,2.108c2.863,2.612,7.246,2.612,10.109,0c1.49-1.359,3.403-2.108,5.388-2.108h11.656
	c1.984,0,3.897,0.749,5.388,2.108c2.863,2.612,7.246,2.612,10.109,0c1.49-1.359,3.403-2.108,5.388-2.108h11.657
	c4.435,0,8.042,3.63,8.042,8.093v17.542c0,4.462-3.607,8.093-8.042,8.093h-11.659V467.763z M425.199,452.807
	c-6.409,13.555-19.702,22.796-34.755,23.877l-16.376,1.176c-9.592,0.69-18.887-1.894-26.667-7.307
	c1.121-2.094,1.925-4.38,2.357-6.795l32.042-1.669c4.136-0.215,7.314-3.743,7.1-7.88c-0.216-4.137-3.782-7.315-7.88-7.1
	l-30.893,1.609v-5.967c6.156-4.329,13.323-6.885,20.911-7.43l16.376-1.176C402.461,433.06,416.933,440.309,425.199,452.807z
	 M417.623,405.417l-13.943,0.001l16.371-20.53c0.78,4.04,2.047,7.972,3.796,11.727L417.623,405.417z M486.847,359.419l-9.236,13.618
	c-6.557,9.669-18.332,16.006-30.978,17.336l23.49-33.216c2.392-3.382,1.59-8.063-1.793-10.454
	c-3.382-2.392-8.063-1.588-10.453,1.793l-23.203,32.81c-1.789-10.457,0.873-22.001,7.844-32.279l9.235-13.618
	c8.485-12.512,23.112-19.41,37.991-18.175C496.365,330.691,495.342,346.893,486.847,359.419z M454.538,98.671
	c0-15.144,8.229-29.108,21.231-36.495C488.772,69.563,497,83.528,497,98.671v16.471c0,12.325-5.451,23.866-14.489,31.719
	l-0.813-40.872c-0.082-4.141-3.493-7.414-7.647-7.349c-4.141,0.083-7.432,3.506-7.349,7.648l0.779,39.14
	c-8.103-7.789-12.943-18.685-12.943-30.284V98.671z M375.407,69.062l-11.609-11.647c-10.678-10.713-14.698-26.44-10.697-40.902
	c14.389-4.002,30.041,0.029,40.706,10.728l11.609,11.647c8.867,8.895,13.568,19.581,13.645,30.182l-28.836-27.817
	c-2.98-2.876-7.729-2.79-10.604,0.191c-2.876,2.982-2.791,7.729,0.19,10.605l29.123,28.094
	C397.413,81.197,384.646,78.33,375.407,69.062z M424.889,117.064c4.742-1.626,10.019-1.072,14.761,1.489
	c0.686,11.364,4.769,22.101,11.441,30.939c-2.069,5.566-6.093,9.701-11.266,11.476c-4.462,1.531-9.436,1.146-13.998-1.092
	c-5.609-2.75-10.077-7.997-12.26-14.397C409.439,133.37,414.519,120.623,424.889,117.064z M424.797,175.519
	c3.107,0.916,6.282,1.379,9.445,1.379c1.825,0,3.644-0.16,5.444-0.468v13.453L424.797,175.519z M454.687,179.408v-9.821
	c3.006-2.455,5.574-5.452,7.616-8.89c1.768,1.33,3.623,2.558,5.556,3.683l0.087,4.405
	C462.967,171.671,458.508,175.263,454.687,179.408z"/>
<g>
</g>
<g>
</g>
<g>
</g>
<g>
</g>
<g>
</g>
<g>
</g>
<g>
</g>
<g>
</g>
<g>
</g>
<g>
</g>
<g>
</g>
<g>
</g>
<g>
</g>
<g>
</g>
<g>
</g>
</svg>
