<svg xmlns="http://www.w3.org/2000/svg" viewBox="0 0 512 512" style="enable-background:new 0 0 512.002 512.002" xml:space="preserve"><path style="fill:#c3c247" d="M169 108c6 18 2 38-12 52l-11 12a49 49 0 0 1-52 11c-7-17-3-38 11-52l12-12c14-14 34-17 52-11zm-27-33 11-12c14-14 18-34 12-52-18-6-38-3-52 11l-12 12a49 49 0 0 0-11 52c17 7 38 3 52-11zm253 44a49 49 0 0 0-52-11c-6 18-2 38 12 52l11 12c14 14 35 18 52 11 7-17 3-38-11-52l-12-12zm16-85-12-12a49 49 0 0 0-52-11c-6 18-2 38 12 52l11 12c14 14 35 18 52 11 7-17 3-38-11-52z"/><path style="fill:#434e4d" d="M105 148c-5 16-21 25-35 20-15-5-22-22-16-38s21-25 35-20c15 5 22 22 16 38zm353-18c-5-16-21-25-35-20-15 5-22 22-16 38s21 25 35 20c15-5 22-22 16-38z"/><path style="fill:#586665" d="M105 148c-2 9-8 15-15 19-12-7-18-22-13-37 3-8 9-15 16-18 12 6 17 21 12 36zm353-18c-5-16-21-25-35-20l-2 1c-3 7-3 15-1 23 6 16 22 25 36 20h2c3-7 3-15 0-24z"/><path style="fill:#c3c247" d="M65 99v16c0 20-12 37-29 45-17-8-28-25-28-45V99c0-20 11-37 28-45 17 8 29 25 29 45zm411-45c-17 8-29 25-29 45v16c0 20 12 37 29 45 17-8 28-25 28-45V99c1-20-11-37-28-45zM147 203c12 14 16 34 7 52l-7 15c-9 18-26 29-45 28a49 49 0 0 1-7-53l7-14c9-18 27-29 45-28zM36 173c-17 8-28 25-28 45v17c0 20 11 37 28 44 17-7 29-24 29-44v-17c0-20-12-37-29-45zm374 58c-9-18-27-29-45-28a49 49 0 0 0-7 52l7 15c9 18 26 29 45 28 12-14 15-35 7-53l-7-14zm66-58c-17 8-29 25-29 45v17c0 20 12 37 29 44 17-7 28-24 28-44v-17c1-20-11-37-28-45z"/><path style="fill:#434e4d" d="M147 306c5 16-2 33-16 38s-30-4-36-20c-5-16 2-33 16-38s30 4 36 20zM28 262c-14 5-21 22-16 38 6 16 22 25 36 20s21-22 16-38-21-25-36-20zm373 24c-14-5-30 4-36 20-5 16 2 33 16 38s30-4 36-20-2-33-16-38zm83-24c-15-5-31 4-36 20s2 33 16 38 30-4 36-20c5-16-2-33-16-38z"/><path style="fill:#586665" d="M147 306c2 8 2 16 0 22-15 5-31-4-36-20-3-7-2-15 0-22 14-5 30 4 36 20zM30 262c-2 6-2 13 1 20 5 15 20 24 34 20 1-6 1-13-1-20-5-15-20-24-34-20zm374 26c-7 3-13 10-16 18-5 15 1 31 13 37 7-4 13-10 16-19 5-15-1-30-13-36zm82-25c-8 3-14 10-18 19-5 15 1 31 14 37 8-3 15-10 18-19 5-15-1-31-14-37z"/><path style="fill:#c3c247" d="m194 351-3 16c-4 19-19 34-37 38a49 49 0 0 1-19-49l3-17c4-19 18-34 37-38 15 11 23 30 19 50zM66 331a49 49 0 0 0-48-21 49 49 0 0 0 1 53l9 14c11 17 31 24 49 21 10-16 10-37-1-53l-10-14zm308 8c-4-19-18-34-37-38a49 49 0 0 0-19 50l3 16c4 19 19 34 37 38 15-11 23-30 19-49l-3-17zm120-29c-18-3-37 5-48 21l-10 14a49 49 0 0 0-1 53c18 3 38-4 49-21l9-14c11-16 11-37 1-53zM184 459c-9 17-27 27-47 26l-16-1c-20-2-36-15-43-32 9-16 27-27 47-26l16 2c20 1 36 14 43 31zm203-33-16 2c-20 1-36 14-43 31 9 17 27 27 47 26l16-1c20-2 36-15 43-32-9-16-27-27-47-26z"/><path style="fill:#ec615b" d="M327 475h-12c-4 0-7-2-10-4-3 2-7 4-11 4h-11c-4 0-8-2-11-4-2 2-6 4-10 4h-12c-4 0-7-2-10-4-3 2-7 4-11 4h-11c-4 0-8-2-11-4-3 2-6 4-10 4h-12c-8 0-15-7-15-16v-17c0-9 7-16 15-16h12c4 0 7 2 10 4 3-2 7-4 11-4h11c4 0 8 2 11 4 3-2 6-4 10-4h12c4 0 8 2 10 4 3-2 7-4 11-4h11c4 0 8 2 11 4 3-2 6-4 10-4h12c8 0 15 7 15 16v17c0 9-7 16-15 16z"/><path style="fill:#a5423b" d="M342 442v17c0 9-7 16-15 16h-12c-4 0-7-2-10-4-3 2-7 4-11 4h-11c-4 0-8-2-11-4-2 2-6 4-10 4h-12c-4 0-7-2-10-4-3 2-7 4-11 4h-11c-4 0-8-2-11-4-3 2-6 4-10 4h-12c-8 0-15-7-15-16v-19c0 8 7 14 15 14h15a7 7 0 0 1 14 0h19a7 7 0 0 1 15 0h17a7 7 0 0 1 15 0h18a7 7 0 0 1 14 0h15c8 0 15-6 15-14v2z"/><path d="M512 115V99c0-22-13-43-33-52h-6c-18 8-30 24-33 43l-8-8c5-18-1-39-16-54l-12-11a57 57 0 0 0-59-13c-3 0-4 2-5 4-8 21-2 44 13 60l12 12c10 10 25 15 40 15 5 0 11 0 17-2l9 8-11 2c-18 6-27 27-21 47l1 1-14-13a7 7 0 0 0-10 11l29 28c-12 2-25-2-33-11l-12-11a42 42 0 0 1-11-41c11-3 23-2 33 4a8 8 0 0 0 8-13c-15-9-33-10-49-4-2 0-4 2-5 4-7 21-2 44 13 60l12 12c10 10 25 16 40 16 6 0 12-1 17-3l20 19 2 1v38a7 7 0 1 0 15 0v-33c1-14 9-27 21-33 13 7 21 21 21 36v17c0 8-2 15-6 22a32 32 0 0 0-9-3v-29c0-4-4-7-8-7s-7 4-7 8v28l-6 3c-9 4-17 13-20 23-5 13-2 28 6 38l-1 1-20-6c0-6-1-13-4-18 9-16 10-36 2-53l-8-15a57 57 0 0 0-52-32c-2 0-4 1-5 3a57 57 0 0 0-8 61l7 14c3 6 6 11 10 15-4 4-7 9-10 15-5-4-12-7-19-9-2-1-4 0-6 1a57 57 0 0 0-23 57l4 16c4 21 19 37 38 44l3 12-10 4c-4-5-11-9-18-9h-12c-3 0-7 1-10 3-3-2-7-3-10-3h-12c-4 0-7 1-11 3-3-2-6-3-10-3h-12c-3 0-7 1-10 3-3-2-7-3-11-3h-11c-4 0-7 1-11 3-3-2-6-3-10-3h-12c-7 0-14 4-18 9l-10-4 3-12c19-7 34-23 38-44l4-16c4-22-5-44-23-57-2-1-4-2-6-1-7 2-14 5-20 9-2-6-5-11-9-15 4-4 7-9 10-15l7-14c9-20 6-44-8-61-1-2-3-3-5-3h-1c-22 0-42 13-51 32l-8 15c-8 17-7 37 2 53-3 5-4 12-4 18l-20 6-1-1c8-10 11-25 6-38a40 40 0 0 0-26-26v-28a7 7 0 1 0-15-1v29a32 32 0 0 0-9 3c-4-7-6-14-6-22v-17c0-15 8-29 21-36 12 6 20 19 21 33v33a7 7 0 1 0 15 0v-38l2-1 19-18c5 2 11 2 16 2 16 0 31-5 42-16l12-12c15-16 20-39 13-60-1-2-3-4-5-4-17-7-36-4-52 6a8 8 0 0 0 9 12c10-7 23-9 35-5 4 14 0 30-11 41l-12 11c-8 9-21 13-34 12l30-29a8 8 0 0 0-10-11l-14 13 1-1c6-20-3-41-21-47l-11-2 9-8 17 2c16 0 30-5 40-15l12-12c15-16 21-39 13-60-1-2-2-4-5-4-20-8-44-3-59 13L96 28a56 56 0 0 0-16 54l-8 8c-3-19-15-35-33-43h-6C13 56 0 77 0 99v16c0 21 11 40 29 50v3a57 57 0 0 0-29 50v17c0 11 4 22 10 32a39 39 0 0 0-1 44c-9 18-8 40 4 57l9 13a57 57 0 0 0 54 24l8 12 6 3h19c-15 4-29 14-37 29l-1 6c8 21 27 35 49 37l17 1h4c13 0 25-4 35-12l9 2h12c4 0 7-1 10-3l4 2-14 18a8 8 0 0 0 12 9l19-26h1c4 0 8-1 11-3 3 2 7 3 10 3h12c4 0 7-1 10-3 4 2 7 3 11 3h1l19 26a7 7 0 1 0 12-9l-13-18 3-2c3 2 7 3 10 3h12l9-2a56 56 0 0 0 39 12l17-1c22-2 41-16 49-37l-1-6c-8-15-22-25-37-29h19l6-3 8-12 6 1c19 0 38-9 48-25l9-13c12-17 13-39 4-57l4-8c4-13 2-27-5-36 6-10 10-21 10-32v-17c0-21-11-40-29-50v-3c18-10 29-29 29-50zM44 169v-5l6-3 7 9v9l-13-10zm28 21v-14a32 32 0 0 0 15 0l-15 14zm15-73c10 4 16 16 11 28-2 7-6 12-12 15-4 2-9 3-14 1s-9-6-11-12c7-8 11-19 11-30 5-3 10-4 15-2zm20-78 11-12c11-10 27-14 41-10 4 14 0 30-11 40l-11 12c-10 9-22 12-34 11l29-28a8 8 0 0 0-10-11L93 69c0-11 5-21 14-30zm-92 76V99c0-15 8-29 21-37 13 8 21 22 21 37v16c0 12-4 23-12 30v-39c0-4-3-7-7-7s-8 3-8 7l-1 41c-9-8-14-20-14-32zm440 170c2-7 7-12 12-15 5-2 10-2 14-1 11 4 16 17 12 29l-2 4c-11-1-22 2-31 7-6-6-8-15-5-24zm-74 51c-2-8-5-15-10-21l1-6c2-7 7-12 12-15 5-2 10-2 14-1 11 4 16 17 12 29-2 6-7 11-12 14a18 18 0 0 1-17 0zm-13-126c15 1 28 10 35 24l7 15c5 11 5 23 1 34h-1l-18-37a7 7 0 1 0-13 6l12 25c-3 1-7 1-10 3-4-4-7-8-9-13l-7-15c-7-14-5-30 3-42zm-40 155-3-16c-3-15 3-30 14-40 14 5 25 17 28 32l3 16c2 12 0 24-7 33l-9-39a7 7 0 1 0-14 3l8 39c-10-6-17-16-20-28zm39 43c15-13 22-34 18-54l-1-1a32 32 0 0 0 20-3c9-5 16-12 19-22l13 4-6 9-9 18-48 61h-4l-2-12zm-225 12h-3l-48-61-9-18-6-9 13-4c3 10 10 17 19 22a34 34 0 0 0 20 3l-1 1c-4 20 3 41 18 54l-2 12h-1zm-14-126c5 3 10 8 12 15l1 6c-5 6-8 13-10 21a17 17 0 0 1-17 0c-5-3-10-8-12-14-4-12 1-25 12-29 4-1 9-1 14 1zm45 15c11 10 17 25 14 40l-3 16c-3 12-10 22-20 28l8-39a7 7 0 1 0-14-3l-9 39c-7-9-9-21-7-33l3-16c3-15 14-27 28-32zm-71-60 7-15c7-14 20-23 35-24 8 12 10 28 3 42l-7 15c-2 5-5 9-9 13-3-2-7-2-10-3l12-25a7 7 0 1 0-13-6l-18 37h-1c-4-11-4-23 1-34zm-45 36c3 9 1 18-5 24-9-5-20-8-31-7l-2-4c-4-12 1-25 12-29 4-1 9-1 14 1 5 3 10 8 12 15zm-23 88-9-14c-8-12-9-28-3-42 15-1 30 6 38 18l9 14c7 10 10 21 8 32l-23-33a7 7 0 1 0-12 9l23 33c-11-1-23-6-31-17zm54 23 3-12 17 21H94l-6-9zm50 82-16-1c-15-1-29-11-35-24 8-13 23-20 38-19l16 1c8 1 15 4 21 8v6l-31-2a8 8 0 0 0-1 15l33 2 2 6c-8 6-17 9-27 8zm177-10-3-1v-11a7 7 0 1 0-15 0v11l-2 1h-12l-3-1v-11a7 7 0 1 0-15 0v11l-3 1h-12l-2-1v-11a7 7 0 1 0-15 0v11l-4 1h-11l-3-1v-11a7 7 0 1 0-15 0v11l-3 1h-12c-4 0-8-4-8-8v-18c0-4 4-8 8-8h12l5 2c3 3 8 3 10 0l6-2h11l6 2c3 3 7 3 10 0l5-2h12l5 2c3 3 8 3 11 0l5-2h12l5 2c3 3 7 3 10 0l5-2h12c5 0 8 4 8 8v18c0 4-3 8-8 8h-12zm110-15c-6 13-20 23-35 24l-16 1c-10 1-19-2-27-7l3-7 32-2a8 8 0 0 0-1-15l-31 2v-6c6-5 13-7 21-8l16-1c15-1 30 6 38 19zm-7-48h-14l16-20 4 12-6 8zm69-46-9 14c-7 10-19 16-31 17l23-33a7 7 0 1 0-12-9l-23 33c-2-10 1-22 8-32l9-14c8-12 23-19 38-18 6 14 5 30-3 42zM455 99c0-15 8-29 21-37 13 8 21 22 21 37v16c0 12-5 24-14 32l-1-41a8 8 0 0 0-15 0v39c-8-7-12-18-12-30V99zm-80-30-11-12a42 42 0 0 1-11-40c14-4 30 0 41 10l11 12c9 9 14 19 14 30l-29-28a7 7 0 1 0-10 11l29 28c-12 1-24-2-34-11zm50 48c5-2 10-1 15 2 0 11 4 22 11 30-2 6-6 10-11 12-5 1-10 1-14-1-6-3-10-8-12-15-5-12 1-24 11-28zm0 59a33 33 0 0 0 15 0v14l-15-14zm30 3v-9l7-9 6 3v5l-13 10z"/></svg>