<svg xmlns="http://www.w3.org/2000/svg" xml:space="preserve" viewBox="0 0 512 512"><path fill="#fff" d="M503.8 433 414 343l-32.1-32a27.9 27.9 0 0 0-39.4 0l-4 3.8-13.5-13.5a183 183 0 0 0 42.6-117.5C367.5 82.4 285.1 0 183.8 0S0 82.4 0 183.8a184 184 0 0 0 301.3 141.1l13.6 13.6-4 4a27.9 27.9 0 0 0 0 39.3l122 122a27.8 27.8 0 0 0 39.4 0l31.5-31.5a27.9 27.9 0 0 0 0-39.4zm-320-99c-83 0-150.4-67.3-150.4-150.2S101 33.4 183.8 33.4 334 101 334 183.8 266.7 334 183.8 334zm154.7 28.1 23.6-23.6 16.4 16.4-23.6 23.6-16.4-16.4zm114.1 114.2L378.5 402l23.6-23.6 74.2 74.1-23.7 23.7z"/><path fill="#fff" d="M183.8 66.8a16.7 16.7 0 0 0 0 33.5c46 0 83.5 37.4 83.5 83.5a16.7 16.7 0 0 0 33.4 0 117 117 0 0 0-117-117z"/></svg>