<svg xmlns="http://www.w3.org/2000/svg" xml:space="preserve" style="enable-background:new 0 0 512 512" viewBox="0 0 512 512"><path d="M493 451a30 30 0 1 1-42 42l-97-96c16-13 30-27 43-43l96 97z" style="fill:#4dbbeb"/><path d="m354 311 43 43c-13 16-27 30-43 43l-43-43c17-12 31-26 43-43z" style="fill:#fff5cd"/><path d="M390 200a189 189 0 0 1-190 190 190 190 0 1 1 190-190z" style="fill:#4dbbeb"/><path d="M200 50a150 150 0 1 1 0 300 150 150 0 0 1 0-300z" style="fill:#bee7f4"/><path d="M500 444 367 310a200 200 0 1 0-57 57l37 37 97 96a40 40 0 0 0 56 0 40 40 0 0 0 0-56zm-173-89 28-28 28 28c-8 10-18 20-28 28l-28-28zM20 200a180 180 0 1 1 286 146A180 180 0 0 1 20 200zm466 286a20 20 0 0 1-28 0l-89-89c10-8 20-18 28-28l89 89a20 20 0 0 1 0 28z"/><path d="M360 200a160 160 0 1 0-320 0 160 160 0 0 0 320 0zM200 340a140 140 0 1 1 0-280 140 140 0 0 1 0 280z"/><path d="M306 170c5-2 8-8 6-13a120 120 0 0 0-112-77 10 10 0 0 0 0 20c41 0 79 26 93 64a10 10 0 0 0 13 6zM310 190a10 10 0 1 0 0 20 10 10 0 0 0 0-20z"/></svg>