<svg height="512" viewBox="0 0 24 24" width="512" xmlns="http://www.w3.org/2000/svg"><g id="Layer_2" data-name="Layer 2"><path d="m18.84 15.68a.62.62 0 0 0 -.86 0l-2.3 2.32a.6.6 0 0 0 0 .86l3.8 3.81a2.24 2.24 0 0 0 3.82-1.59 2.23 2.23 0 0 0 -.65-1.58z" fill="#1c5e3f"/><path d="m18.15 12.85a.75.75 0 0 0 -1.06 0l-4.24 4.24a.75.75 0 0 0 0 1.06l1.52 1.52a1.75 1.75 0 0 0 2.47 0l2.83-2.83a1.75 1.75 0 0 0 0-2.47z" fill="#ffcb27"/><circle cx="9.95" cy="9.95" fill="#0db561" r="9.25"/><circle cx="9.95" cy="9.95" fill="#fff" r="6.25"/><g fill="#1a352b"><path d="m10 16.2a6.25 6.25 0 1 1 6.2-6.2 6.26 6.26 0 0 1 -6.2 6.2zm0-11a4.75 4.75 0 1 0 4.7 4.8 4.75 4.75 0 0 0 -4.7-4.8z"/><path d="m10 19.2a9.25 9.25 0 1 1 8.43-5.44.75.75 0 0 1 -1.43-.62 7.6 7.6 0 0 0 .7-3.14 7.77 7.77 0 1 0 -1.95 5.13.75.75 0 0 1 1.13 1 9.27 9.27 0 0 1 -6.88 3.07z"/><path d="m15.6 20.18a1.74 1.74 0 0 1 -1.23-.51l-1.45-1.45a.75.75 0 1 1 1.08-1.06l1.45 1.45a.24.24 0 0 0 .35 0l2.83-2.83a.24.24 0 0 0 0-.35l-1.47-1.43a.75.75 0 1 1 1.06-1.06l1.45 1.45a1.75 1.75 0 0 1 0 2.47l-2.83 2.83a1.75 1.75 0 0 1 -1.24.49z"/><path d="m20.55 23.3a2.72 2.72 0 0 1 -1.94-.8l-2.83-2.83a.75.75 0 0 1 0-1.06l2.83-2.83a.75.75 0 0 1 .53-.22.75.75 0 0 1 .53.22l2.83 2.83a2.76 2.76 0 0 1 0 3.89 2.73 2.73 0 0 1 -1.95.8zm-3.18-4.16 2.3 2.3a1.29 1.29 0 0 0 1.77 0 1.27 1.27 0 0 0 0-1.77l-2.3-2.3z"/></g></g></svg>