<svg xmlns="http://www.w3.org/2000/svg" xml:space="preserve" viewBox="0 0 512 512"><path fill="#fff" d="M156 256c0 11 9 20 20 20h60v60a20 20 0 1 0 40 0v-60h60a20 20 0 1 0 0-40h-60v-60a20 20 0 1 0-40 0v60h-60c-11 0-20 9-20 20zM160 62l26-11a20 20 0 0 0-15-37l-26 11a20 20 0 0 0 15 37z"/><path fill="#fff" d="M256 0a20 20 0 1 0 0 40A216 216 0 1 1 40 256a20 20 0 1 0-40 0A256 256 0 1 0 256 0zM93 113l20-20a20 20 0 1 0-28-28L65 85a20 20 0 1 0 28 28zM25 197c10 4 22-1 26-11l11-26a20 20 0 0 0-37-15l-11 26c-4 10 1 22 11 26z"/></svg>