<svg id="Capa_1" enable-background="new 0 0 512.293 512.293" height="512" viewBox="0 0 512.293 512.293" width="512" xmlns="http://www.w3.org/2000/svg"><g><circle cx="98.043" cy="256.323" fill="#ffddcf" r="45.176"/><path d="m444.401 203.613v.15c-.01 8.26-6.79 14.91-15.04 14.91h-112.05c-8.19-2.55-17.55-5.06-28.17-7.53-255.25-59.34-97.42-191.51-97.42-191.51 20.1-7.62 41.8-11.78 64.44-11.78 103.96 0 188.24 87.65 188.24 195.76z" fill="#eaaa83"/><path d="m257.481 218.673h-174.52c-8.25 0-15.03-6.65-15.04-14.91v-.15c0-84.57 51.57-156.62 123.8-183.98-18.21 38.92-35.79 112 64.44 146.34 41.39 14.18 33.3 33.12 1.32 52.7z" fill="#e4996d"/><circle cx="414.279" cy="256.323" fill="#ffcbbe" r="45.176"/><path d="m376.221 504.793h-127.29s-155.63-33.35-28.91-169.4c11.65-2.48 23.75-3.78 36.14-3.78 74.37 0 137.79 46.88 162.32 112.71 10.93 29.3-10.99 60.47-42.26 60.47z" fill="#8dd470"/><path d="m248.931 504.793h-112.83c-31.27 0-53.19-31.17-42.26-60.47 20.44-54.86 67.89-96.56 126.18-108.93-13.44 40.95-28.81 119.89 28.91 169.4z" fill="#6dc847"/><path d="m414.281 249.413c0 22.19-4.2 43.36-11.81 62.69-10.2 25.9-26.54 48.51-47.12 65.82-2.67 2.27-5.42 4.43-8.24 6.5-9.89 7.28-20.63 13.4-32.02 18.16-3.48 1.47-7.03 2.81-10.63 4.01-14.61 4.89-30.14 7.62-46.27 7.83-202.62-60.49-104.01-211.27-104.01-211.27 7.96-6.63 15.88-16.3 19.16-24.46 17.54-43.75 37.64-78.59 112.01-76.18 16.51.54 32.95 3.23 47.73-4.49 3.14-1.63 6.45-3.53 9.9-5.76 5.57-3.58 14.57-.9 14.76 5.92 1.8 63.86 40.01 76.12 44.65 88.36 7.04 18.56 11.89 40.61 11.89 62.87z" fill="#ffddcf"/><path d="m258.191 414.423c-.67.02-1.35.02-2.03.02-35.01 0-67.35-11.88-93.55-31.97-12.19-9.35-23.05-20.49-32.22-33.04-8.32-11.38-15.26-23.91-20.54-37.33-7.61-19.33-11.81-40.5-11.81-62.69 0-7.39 0-15.71 1.37-21.82 3.71-16.55 35.283-14.607 43.81-17.47 3.38-1.135 7.14-3.78 10.96-6.97-11.93 75.45.16 165.71 104.01 211.27z" fill="#ffcbbe"/><g fill="#8dd470"><path d="m221.905 218.676c5.952 0 11.176-3.654 13.576-9.101 3.682-8.353 12.275-14.053 22.121-13.442 11.249.698 21.097 9.832 21.102 21.102.004 9.733-3.879 15.692-9.152 19.297-17.485 11.956-28.484 31.279-28.511 52.461l-.063 20.059c-.01 8.301 6.716 15.036 15.017 15.036 8.294 0 15.017-6.723 15.017-15.017v-10.046c0-15.701 7.088-30.461 19.049-40.632 11.362-9.662 18.804-23.873 18.804-39.717 0-29.109-23.597-52.706-52.706-52.706-21.94 0-40.75 13.406-48.683 32.474-4.008 9.633 3.218 20.232 13.652 20.232z"/><circle cx="256.161" cy="369.265" r="15.059"/></g></g><g><path d="m448.199 216.034c2.332-3.527 3.697-7.742 3.702-12.271 0-156.193-163.757-255.239-294.567-175.637-8.477 5.158-.68 17.972 7.797 12.814 120.747-73.474 271.771 18.201 271.771 162.814-.005 4.091-3.388 7.419-7.54 7.419h-11.76c-2.045-9.456-4.808-18.699-8.235-27.388-.858-2.17-2.339-3.2-3.646-4.109-14.543-10.122-39.142-34.195-40.482-81.703-.357-12.666-15.741-18.812-26.319-12.011-19.927 12.842-27.013 9.911-53.325 9.057-69.329-2.246-96.619 24.525-119.217 80.878-4.287 10.691-17.891 24.022-25.729 27.177-4.205 1.025-23.494 1.23-36.327 8.098h-21.361c-4.152 0-7.535-3.328-7.54-7.41 0-56.171 23.758-108.988 65.183-144.907 7.497-6.5-2.33-17.834-9.826-11.333-44.713 38.77-70.356 95.717-70.356 156.249.005 4.525 1.37 8.737 3.701 12.263-11.746 9.909-18.751 24.619-18.751 40.289 0 30.071 25.225 54.139 55.258 52.621 7.992 22.638 20.526 43.15 36.262 60.169-22.426 19.715-39.67 44.647-50.078 72.589-12.934 34.674 13.296 70.591 49.288 70.591h142.592c9.923 0 9.923-15 0-15h-142.593c-26.135 0-44.329-25.966-35.232-50.352 9.664-25.946 25.753-49.069 46.704-67.257 61.932 56.014 154.541 56.815 217.2.014 20.941 18.194 37.021 41.312 46.681 67.246 9.097 24.385-9.102 50.349-35.233 50.349h-67.315c-9.923 0-9.923 15 0 15h67.315c35.987 0 62.224-35.913 49.289-70.588-10.407-27.939-27.65-52.874-50.076-72.598 16.363-17.733 28.766-38.529 36.636-61.339l8.799-.938c46.558-4.961 61.677-61.823 27.33-90.796zm-371.489 9.255c3.871 1.115 5.647.885 15.34.885-2.494 11.421-2.669 41.517 4.032 67.788-35.417-1.811-49.212-48.116-19.372-68.673zm303.319 113.761c-58.731 88.591-181.945 90.352-243.584 5.955-20.507-28.039-30.904-61.261-30.904-95.589 0-6.972 0-14.874 1.188-20.177 2.183-9.747 33.849-10.037 39.213-12.126 12.447-4.847 28.823-21.83 34.357-35.631 19.503-48.632 39.995-73.57 104.809-71.469 28.28.916 38.143 3.888 61.93-11.436 1.008-.648 2.635-.411 3.212-.007 1.235 42.102 19.877 74.147 45.944 92.743 17.872 47.322 13.525 102.956-16.165 147.737zm39.249-47.135-2.628.28c5.143-21.015 6.572-43.252 3.556-66.022 9.299 0 11.504.239 15.406-.885 27.685 19.073 18.743 62.889-16.334 66.627z"/><path d="m256.161 158.471c-24.406 0-46.233 14.56-55.607 37.093-11.259 27.067 29.968 43.862 41.791 17.036 2.539-5.763 8.466-9.374 14.793-8.981 15.16.941 18.483 19.68 8.182 26.722-19.869 13.586-31.749 35.509-31.777 58.629l-.062 20.073c-.016 12.456 10.06 22.546 22.517 22.546 12.416 0 22.518-10.101 22.518-22.517v-10.046c0-13.324 5.98-26.052 16.407-34.919 43.071-36.625 16.58-105.636-38.762-105.636zm29.043 94.209c-13.785 11.722-21.69 28.615-21.69 46.346v10.046c0 6.718-8.145 10.01-12.836 5.312-2.941-2.945-2.202-4.158-2.136-25.381.022-18.186 9.46-35.486 25.244-46.279 22.442-15.345 13.156-54.133-17.574-54.133-11.849 0-22.78 7.041-27.594 17.961-3.955 8.978-17.897 3.622-14.215-5.225 7.039-16.921 23.431-27.855 41.758-27.855 41.276-.001 61.667 51.465 29.043 79.208z"/><path d="m256.161 346.706c-12.438 0-22.559 10.12-22.559 22.559s10.12 22.559 22.559 22.559 22.559-10.12 22.559-22.559-10.12-22.559-22.559-22.559zm0 30.117c-4.168 0-7.559-3.391-7.559-7.559s3.391-7.559 7.559-7.559 7.559 3.391 7.559 7.559c0 4.169-3.391 7.559-7.559 7.559z"/></g></svg>