<svg xmlns="http://www.w3.org/2000/svg" viewBox="0 0 512 512"><path fill="#fff" d="M272 193.5h-56.2A15 15 0 0 0 201 206l-16 96.4a15 15 0 0 0 14.8 17.5H256c19.9-.8 19.9-29.3 0-30h-38.5l3-18.2H256c19.9-.8 19.9-29.3 0-30h-30.5l3-18.2h43.6c19.9-.8 19.9-29.3 0-30zM162 193.7a15 15 0 0 0-17.2 12.3l-8.5 50.9-27.6-55.1a15 15 0 0 0-28.2 4.2l-16 96.4a15 15 0 0 0 12.3 17.3c11.6 1.9 16.6-8.2 17.3-12.4l8.4-50.9 27.6 55.2a15 15 0 0 0 28.2-4.3l16.1-96.4a15 15 0 0 0-12.3-17.2zM439.4 195a15 15 0 0 0-20 6.8L390.6 259l-7.5-37.4a15 15 0 0 0-27.6-4.8l-20.3 34v-42.3c-.8-20-29.2-20-30 0v96.4a15 15 0 0 0 27.8 7.7l28.3-47 8.4 42.2a15 15 0 0 0 28.1 3.8l48.2-96.4a15 15 0 0 0-6.7-20.2z"/><path fill="#fff" d="M256 .7a256.3 256.3 0 0 0-256 256c14 339.6 498 339.5 512 0C512 115.5 397.2.7 256 .7zm0 482a226.3 226.3 0 0 1-226-226c12.4-299.9 439.6-299.8 452 0 0 124.6-101.4 226-226 226z"/></svg>