<svg id="Capa_1" enable-background="new 0 0 512 512" height="512" viewBox="0 0 512 512" width="512" xmlns="http://www.w3.org/2000/svg"><g><g><path d="m52.5 459.5c-24.75 0-45-20.25-45-45v-287c0-8.25 6.75-15 15-15h15l30-30v-15c0-8.25 6.75-15 15-15h377c8.25 0 15 6.75 15 15v13l-171.9 349s-192.24 30-250.1 30z" fill="#c8c3ca"/><path d="m67.5 82.5h-15c-8.25 0-15 6.75-15 15v316.576c0 8.077 6.207 15.027 14.275 15.407 8.614.406 15.725-6.458 15.725-14.983z" fill="#a29aa5"/><path d="m504.5 414.5v-317c0-8.25-6.75-15-15-15h-377c-8.25 0-15 6.75-15 15v317c0 9.233-2.82 17.837-7.639 25l207.319 10 199.681-10c4.819-7.163 7.639-15.767 7.639-25z" fill="#dce6eb"/><path d="m496.861 439.5h-407c-8.098 12.038-21.844 20-37.361 20h407c15.517 0 29.263-7.962 37.361-20z" fill="#b9c3cd"/><path d="m467 307.215-135.383 10 10-92.215h125.383z" fill="#9ec8fc"/><path d="m341.617 225h-18.117c-4.142 0-7.5 3.358-7.5 7.5v90c0 4.142 3.358 7.5 7.5 7.5h136c4.142 0 7.5-3.358 7.5-7.5v-15.285h-117.844c-4.163 0-7.539-3.375-7.539-7.539z" fill="#62a4fb"/></g><g><path d="m459.5 467h-407c-28.948 0-52.5-23.552-52.5-52.5v-287c0-12.406 10.094-22.5 22.5-22.5h7.5v-7.5c0-12.406 10.094-22.5 22.5-22.5h7.5v-7.5c0-12.406 10.094-22.5 22.5-22.5h377c12.406 0 22.5 10.094 22.5 22.5v7.5h7.5c12.406 0 22.5 10.094 22.5 22.5v60c0 4.143-3.357 7.5-7.5 7.5s-7.5-3.357-7.5-7.5v-60c0-4.136-3.364-7.5-7.5-7.5h-377c-4.136 0-7.5 3.364-7.5 7.5v317c0 14.676-6.053 27.964-15.793 37.5h370.293c20.678 0 37.5-16.822 37.5-37.5v-227c0-4.143 3.357-7.5 7.5-7.5s7.5 3.357 7.5 7.5v227c0 28.948-23.552 52.5-52.5 52.5zm-437-347c-4.136 0-7.5 3.364-7.5 7.5v287c0 20.678 16.822 37.5 37.5 37.5s37.5-16.822 37.5-37.5v-317c0-12.406 10.094-22.5 22.5-22.5h354.5v-7.5c0-4.136-3.364-7.5-7.5-7.5h-377c-4.136 0-7.5 3.364-7.5 7.5v255c0 4.143-3.357 7.5-7.5 7.5s-7.5-3.357-7.5-7.5v-232.5h-7.5c-4.136 0-7.5 3.364-7.5 7.5v60c0 4.143-3.357 7.5-7.5 7.5s-7.5-3.357-7.5-7.5v-37.5zm30.02 317c-12.427 0-22.52-10.649-22.52-22.924v-226.576c0-4.143 3.357-7.5 7.5-7.5s7.5 3.357 7.5 7.5v226.576c0 4.179 3.193 7.907 7.127 7.915 4.535.009 7.893-3.349 7.873-7.491v-62c0-4.143 3.357-7.5 7.5-7.5s7.5 3.357 7.5 7.5v62c.02 12.426-10.054 22.5-22.48 22.5zm406.98-17h-136c-4.143 0-7.5-3.357-7.5-7.5s3.357-7.5 7.5-7.5h136c4.143 0 7.5 3.357 7.5 7.5s-3.357 7.5-7.5 7.5zm-181 0h-136c-4.143 0-7.5-3.357-7.5-7.5s3.357-7.5 7.5-7.5h136c4.143 0 7.5 3.357 7.5 7.5s-3.357 7.5-7.5 7.5zm181-45h-136c-4.143 0-7.5-3.357-7.5-7.5s3.357-7.5 7.5-7.5h136c4.143 0 7.5 3.357 7.5 7.5s-3.357 7.5-7.5 7.5zm-181 0h-136c-4.143 0-7.5-3.357-7.5-7.5s3.357-7.5 7.5-7.5h136c4.143 0 7.5 3.357 7.5 7.5s-3.357 7.5-7.5 7.5zm181-45h-136c-4.143 0-7.5-3.357-7.5-7.5v-90c0-4.143 3.357-7.5 7.5-7.5h136c4.143 0 7.5 3.357 7.5 7.5v90c0 4.143-3.357 7.5-7.5 7.5zm-128.5-15h121v-75h-121zm-52.5 15h-136c-4.143 0-7.5-3.357-7.5-7.5s3.357-7.5 7.5-7.5h136c4.143 0 7.5 3.357 7.5 7.5s-3.357 7.5-7.5 7.5zm0-45h-136c-4.143 0-7.5-3.357-7.5-7.5s3.357-7.5 7.5-7.5h136c4.143 0 7.5 3.357 7.5 7.5s-3.357 7.5-7.5 7.5zm0-45h-136c-4.143 0-7.5-3.357-7.5-7.5s3.357-7.5 7.5-7.5h136c4.143 0 7.5 3.357 7.5 7.5s-3.357 7.5-7.5 7.5zm181-75h-317c-4.143 0-7.5-3.357-7.5-7.5s3.357-7.5 7.5-7.5h317c4.143 0 7.5 3.357 7.5 7.5s-3.357 7.5-7.5 7.5z"/></g></g></svg>