<svg xmlns="http://www.w3.org/2000/svg" width="512" height="512"><path fill="#c8c3ca" d="M52.5 459.5c-24.8 0-45-20.3-45-45v-287a15 15 0 0 1 15-15h15l30-30v-15a15 15 0 0 1 15-15h377a15 15 0 0 1 15 15v13l-171.9 349s-192.2 30-250.1 30z"/><path fill="#a29aa5" d="M67.5 82.5h-15a15 15 0 0 0-15 15v316.6c0 8 6.2 15 14.3 15.4a15 15 0 0 0 15.7-15z"/><path fill="#dce6eb" d="M504.5 414.5v-317a15 15 0 0 0-15-15h-377a15 15 0 0 0-15 15v317c0 9.2-2.8 17.8-7.6 25l207.3 10 199.7-10a44.7 44.7 0 0 0 7.6-25z"/><path fill="#b9c3cd" d="M496.9 439.5h-407a45 45 0 0 1-37.4 20h407a45 45 0 0 0 37.4-20z"/><path fill="#9ec8fc" d="m467 307.2-135.4 10 10-92.2H467z"/><path fill="#62a4fb" d="M341.6 225h-18.1a7.5 7.5 0 0 0-7.5 7.5v90c0 4.1 3.4 7.5 7.5 7.5h136c4.1 0 7.5-3.4 7.5-7.5v-15.3H349.2a7.5 7.5 0 0 1-7.6-7.5z"/><path d="M459.5 467h-407C23.5 467 0 443.4 0 414.5v-287C0 115.1 10 105 22.5 105H30v-7.5C30 85.1 40 75 52.5 75H60v-7.5C60 55.1 70 45 82.5 45h377c12.4 0 22.5 10 22.5 22.5V75h7.5c12.4 0 22.5 10 22.5 22.5v60a7.5 7.5 0 1 1-15 0v-60c0-4.1-3.4-7.5-7.5-7.5h-377a7.5 7.5 0 0 0-7.5 7.5v317c0 14.7-6 28-15.8 37.5h370.3a37.5 37.5 0 0 0 37.5-37.5v-227a7.5 7.5 0 1 1 15 0v227c0 29-23.6 52.5-52.5 52.5zm-437-347a7.5 7.5 0 0 0-7.5 7.5v287a37.5 37.5 0 0 0 75 0v-317C90 85.1 100 75 112.5 75H467v-7.5c0-4.1-3.4-7.5-7.5-7.5h-377a7.5 7.5 0 0 0-7.5 7.5v255a7.5 7.5 0 1 1-15 0V90h-7.5a7.5 7.5 0 0 0-7.5 7.5v60a7.5 7.5 0 1 1-15 0V120zm30 317A23 23 0 0 1 30 414V187.6a7.5 7.5 0 1 1 15 0v226.6c0 4.2 3.2 7.9 7.1 7.9 4.6 0 8-3.4 7.9-7.5v-62a7.5 7.5 0 1 1 15 0v62c0 12.4-10 22.5-22.5 22.5zm407-17h-136a7.5 7.5 0 1 1 0-15h136a7.5 7.5 0 1 1 0 15zm-181 0h-136a7.5 7.5 0 1 1 0-15h136a7.5 7.5 0 1 1 0 15zm181-45h-136a7.5 7.5 0 1 1 0-15h136a7.5 7.5 0 1 1 0 15zm-181 0h-136a7.5 7.5 0 1 1 0-15h136a7.5 7.5 0 1 1 0 15zm181-45h-136a7.5 7.5 0 0 1-7.5-7.5v-90c0-4.1 3.4-7.5 7.5-7.5h136c4.1 0 7.5 3.4 7.5 7.5v90c0 4.1-3.4 7.5-7.5 7.5zM331 315h121v-75H331zm-52.5 15h-136a7.5 7.5 0 1 1 0-15h136a7.5 7.5 0 1 1 0 15zm0-45h-136a7.5 7.5 0 1 1 0-15h136a7.5 7.5 0 1 1 0 15zm0-45h-136a7.5 7.5 0 1 1 0-15h136a7.5 7.5 0 1 1 0 15zm181-75h-317a7.5 7.5 0 1 1 0-15h317a7.5 7.5 0 1 1 0 15z"/></svg>