<svg id="Layer_1" height="512" viewBox="0 0 24 24" width="512" xmlns="http://www.w3.org/2000/svg" data-name="Layer 1"><path d="m10 13v6.889a2 2 0 0 1 -4 0v-6.889z" fill="#ff8906"/><path d="m10 13v3.191a11.718 11.718 0 0 1 -4 1.173v-4.364z" fill="#ffc100"/><rect fill="#ffd869" height="5" rx="2.5" width="5" x="2" y="7.5"/><path d="m11.4 6.2h-3.8a1.6 1.6 0 0 0 -1.6 1.6v4.4a1.6 1.6 0 0 0 1.6 1.6h3.8a.6.6 0 0 0 .6-.6v-6.4a.6.6 0 0 0 -.6-.6z" fill="#ffcb03"/><path d="m20.066 16.664a2.613 2.613 0 0 1 -1.48.579c-1.71.144-3.846-1.038-5.59-2.008-.153-.085-.306-.171-.451-.247-.357-.2-.681-.374-.944-.494a.673.673 0 0 1 -.4-.629v-7.726a.672.672 0 0 1 .4-.621c.323-.153.714-.349 1.148-.57a18 18 0 0 1 4.824-1.863 4.029 4.029 0 0 1 2.349.195c1.378.62 1.855 2.978 2.008 4.32.34 2.87 0 7.541-1.864 9.064z" fill="#1494eb"/><path d="m17.8 5.339a11.465 11.465 0 0 1 -5.25 9.649c-.357-.2-.681-.374-.944-.494a.673.673 0 0 1 -.4-.629v-7.726a.672.672 0 0 1 .4-.621c.323-.153.714-.349 1.148-.57a18 18 0 0 1 4.824-1.863 11.54 11.54 0 0 1 .222 2.254z" fill="#46bcfc"/><g fill="#232323"><path d="m6 13.75h-1.25a3.5 3.5 0 0 1 0-7 .75.75 0 0 1 0 1.5 2 2 0 0 0 0 4h1.25a.75.75 0 0 1 0 1.5z"/><path d="m11 14.75h-5a.75.75 0 0 1 -.75-.75v-6a2.752 2.752 0 0 1 2.75-2.75h3a.75.75 0 0 1 .75.75v8a.75.75 0 0 1 -.75.75zm-4.25-1.5h3.5v-6.5h-2.25a1.252 1.252 0 0 0 -1.25 1.25z"/><path d="m18.572 18.146c-2.059 0-4.509-1.471-6.424-2.623-.588-.353-1.1-.659-1.483-.852a.751.751 0 0 1 -.415-.671v-8a.751.751 0 0 1 .415-.671c.342-.171.753-.4 1.214-.654 2.322-1.285 5.83-3.227 8.358-2.387 1.779.593 2.4 3.31 2.606 4.876.451 3.37 0 8.845-2.427 10.46a3.253 3.253 0 0 1 -1.844.522zm-6.822-4.6c.347.192.738.428 1.17.687 1.943 1.167 5.19 3.118 6.664 2.139 1.432-.954 2.275-5.25 1.771-9.013-.322-2.407-1.055-3.469-1.592-3.647-1.905-.638-5.192 1.187-7.158 2.275-.308.171-.594.329-.855.469z"/><path d="m8 22.75a2.752 2.752 0 0 1 -2.75-2.75v-6a.75.75 0 0 1 .75-.75h4a.75.75 0 0 1 .75.75v6a2.752 2.752 0 0 1 -2.75 2.75zm-1.25-8v5.25a1.25 1.25 0 0 0 2.5 0v-5.25z"/></g></svg>