<svg clip-rule="evenodd" fill-rule="evenodd" height="512" image-rendering="optimizeQuality" shape-rendering="geometricPrecision" text-rendering="geometricPrecision" width="512" xmlns="http://www.w3.org/2000/svg"><path d="m391 421-97-96-91-7c-3-1-7-1-9-2l-13 4 28 49c4 6 5 13 3 19-2 7-6 12-12 15-4 3-8 4-13 4-9 0-17-5-22-13l-38-66c-18-4-34-18-39-37l-10-37c-3-13-2-27 5-39s18-20 32-24l36-10-60-60c-30 37-48 84-48 135 0 117 96 213 213 213 51 0 98-18 135-48zM281 312 171 201l27 104c2 0 4 0 6 1zm39-23-12-45-16-59-14-51c-1-5-6-11-11-12-4-2-6 0-6 0l-64 44zM188 158l66-46c5-3 11-4 17-2 9 3 16 12 19 21l12 46c1-1 2-1 4-1 16 0 31 12 35 28 5 17-4 35-20 42l12 46c1 4 1 7 1 11l87 88c30-37 48-84 48-135 0-117-96-213-213-213-51 0-98 18-135 48zm117 30 13 47c9-6 14-17 11-28-2-11-12-19-23-19zM169 323l-18 5h-3s-1 0-1 1h-5l34 59c2 4 7 7 11 7 3 0 5-1 7-2 3-2 5-5 6-8s1-7-1-10zm-13-130-38 10c-11 3-19 9-24 18-6 9-7 20-4 30l9 37c5 15 17 27 33 29h14v-1h2l15-4 7-2 16-4zm226 6c-3 0-5-2-6-5s1-6 5-7l47-13c3-1 7 1 7 4 1 3-1 7-4 8l-47 12c-1 1-1 1-2 1zm36 73c-1 0-2-1-3-1l-42-25c-3-1-4-5-2-8 1-3 5-4 8-2l42 24c3 2 4 6 3 9-2 2-4 3-6 3zm-66-112c-1 0-2 0-3-1-2-2-3-5-2-8l25-43c1-3 5-4 8-2s4 5 2 8l-24 43c-2 2-4 3-6 3zm-96 352A255.8 255.8 0 0 1 0 256 255.8 255.8 0 0 1 256 0a255.8 255.8 0 0 1 256 256 255.8 255.8 0 0 1-256 256zm0-500C121 12 12 121 12 256s109 244 244 244 244-109 244-244S391 12 256 12zM92 102v-1h1v-1l2-1c1-1 1-2 2-2 1-1 2-2 3-4h1v-1h1c42-39 96-61 154-61 60 0 117 23 159 66 43 42 66 99 66 159 0 58-22 113-62 155v1l-2 1c-1 1-1 2-2 2 0 1-1 1-2 2l-1 2c-42 40-98 62-156 62-60 0-117-23-159-66-43-42-66-99-66-159 0-58 22-112 61-154zm20-3-13 13 67 67v1l135 135 99 98 13-13-230-230z"/><path d="m391 421-97-96-91-7c-3-1-7-1-9-2l-13 4 28 49c4 6 5 13 3 19-2 7-6 12-12 15-4 3-8 4-13 4-9 0-17-5-22-13l-38-66c-18-4-34-18-39-37l-10-37c-3-13-2-27 5-39s18-20 32-24l36-10-60-60c-30 37-48 84-48 135 0 117 96 213 213 213 51 0 98-18 135-48zM334 303l87 88c30-37 48-84 48-135 0-117-96-213-213-213-51 0-98 18-135 48l67 67 66-46c5-3 11-4 17-2 9 3 16 12 19 21l12 46c1-1 2-1 4-1 16 0 31 12 35 28 5 17-4 35-20 42l12 46c1 4 1 7 1 11zm84-31c-1 0-2-1-3-1l-42-25c-3-1-4-5-2-8 1-3 5-4 8-2l42 24c3 2 4 6 3 9-2 2-4 3-6 3zm-36-73c-3 0-5-2-6-5s1-6 5-7l47-13c3-1 7 1 7 4 1 3-1 7-4 8l-47 12c-1 1-1 1-2 1zm-30-39c-1 0-2 0-3-1-2-2-3-5-2-8l25-43c1-3 5-4 8-2s4 5 2 8l-24 43c-2 2-4 3-6 3z" fill="#fff"/><path d="M413 400 183 170l-71-71-13 13 67 67v1l135 135 99 98z" fill="#dd352e"/><path d="m197 166 123 123-12-45-16-59-14-51c-1-5-6-11-11-12-4-2-6 0-6 0z" fill="#c7cfe1"/><path d="m305 188 13 47c9-6 14-17 11-28-2-11-12-19-23-19z" fill="#cd0000"/><path d="M281 312 171 201l27 104c2 0 4 0 6 1z" fill="#c7cfe1"/><path d="m186 306-30-113-38 10c-11 3-19 9-24 18-6 9-7 20-4 30l9 37c5 15 17 27 33 29h14v-1h2l15-4 7-2z" fill="#cd0000"/><path d="m199 375-30-52-18 5h-3l-1 1h-5l34 59c2 4 7 7 11 7 3 0 5-1 7-2 3-2 5-5 6-8s1-7-1-10z" fill="#1f3259"/><path d="M256 481c-60 0-117-23-159-66-43-42-66-99-66-159 0-58 22-112 61-154v-1h1v-1l2-1 2-2c1-1 2-2 3-4h1v-1h1c42-39 96-61 154-61 60 0 117 23 159 66 43 42 66 99 66 159 0 58-22 113-62 155v1l-2 1-2 2-2 2-1 2c-42 40-98 62-156 62zM12 256c0 135 109 244 244 244s244-109 244-244S391 12 256 12 12 121 12 256z" fill="#dd352e"/></svg>