<?xml version="1.0" encoding="UTF-8" standalone="no"?>
<!-- Created with Inkscape (http://www.inkscape.org/) -->

<svg
   version="1.1"
   id="svg6234"
   xml:space="preserve"
   width="682.66669"
   height="682.66669"
   viewBox="0 0 682.66669 682.66669"
   xmlns="http://www.w3.org/2000/svg"
   xmlns:svg="http://www.w3.org/2000/svg"><defs
     id="defs6238"><clipPath
       clipPathUnits="userSpaceOnUse"
       id="clipPath6248"><path
         d="M 0,512 H 512 V 0 H 0 Z"
         id="path6246" /></clipPath></defs><g
     id="g6240"
     transform="matrix(1.3333333,0,0,-1.3333333,0,682.66667)"><g
       id="g6242"><g
         id="g6244"
         clip-path="url(#clipPath6248)"><g
           id="g6250"
           transform="translate(409.5615,416.1064)"><path
             d="m 0,0 c -54.373,54.31 -142.498,54.31 -196.871,0 -54.345,-54.339 -54.345,-142.408 0,-196.718 47.111,-47.053 119.523,-53.346 173.386,-18.878 7.205,9.524 14.777,14.683 24.761,23.328 8.935,7.71 9.19,17.49 9.19,28.913 0,16.836 -13.643,30.443 -30.462,30.443 -16.819,0 -30.463,-13.607 -30.463,-31.549 0,-14.852 -11.231,-26.05 -24.932,-26.05 -13.727,0 -24.96,11.198 -24.96,26.05 0,45.467 35.995,81.437 80.355,81.437 23.995,0 45.523,-10.516 60.244,-27.183 C 43.595,-70.779 30.179,-30.188 0,0"
             style="fill:#99ebfa;fill-opacity:1;fill-rule:evenodd;stroke:none"
             id="path6252" /></g><g
           id="g6254"
           transform="translate(180.7529,448.0234)"><path
             d="m 0,0 c -55.734,-55.671 -68.327,-138.156 -37.78,-205.931 8.906,-19.813 21.5,-38.38 37.78,-54.649 16.281,-16.271 34.858,-28.857 54.656,-37.757 40.787,-18.339 86.878,-21.089 129.253,-8.276 0.426,21.598 3.573,29.706 16.111,51.078 1.758,3.033 3.517,5.669 5.303,8.022 -53.862,-34.468 -126.274,-28.175 -173.386,18.878 -54.344,54.31 -54.344,142.379 0,196.718 54.374,54.31 142.499,54.31 196.872,0 30.178,-30.188 43.594,-70.779 40.248,-110.207 12.507,-14.145 20.109,-32.768 20.109,-53.148 0,-14.003 -1.503,-26.617 -5.928,-38.04 C 331.739,-161.654 324.252,-63.438 260.746,0 224.81,35.942 177.726,53.913 130.614,53.97 h -0.482 C 83.049,53.913 35.937,35.942 0,0"
             style="fill:#33d6f5;fill-opacity:1;fill-rule:evenodd;stroke:none"
             id="path6256" /></g><g
           id="g6258"
           transform="translate(126.8057,225.9365)"><path
             d="m 0,0 c -12.338,-12.303 -12.594,-32.314 -0.766,-44.928 0.255,-0.283 0.511,-0.539 0.766,-0.822 l 46.687,-46.656 c 0.254,-0.256 0.539,-0.511 0.793,-0.766 12.651,-11.792 32.647,-11.537 44.985,0.766 l 16.139,16.156 c -19.798,8.9 -38.375,21.486 -54.657,37.757 -16.28,16.269 -28.874,34.836 -37.78,54.649 z"
             style="fill:#ffcd69;fill-opacity:1;fill-rule:evenodd;stroke:none"
             id="path6260" /></g><g
           id="g6262"
           transform="translate(126.04,181.0088)"><path
             d="M 0,0 -47.056,-47.025 1.22,-95.241 48.246,-48.244 c -0.255,0.255 -0.539,0.51 -0.794,0.765 L 0.766,-0.822 C 0.511,-0.539 0.255,-0.283 0,0"
             style="fill:#ebddd9;fill-opacity:1;fill-rule:evenodd;stroke:none"
             id="path6264" /></g><g
           id="g6266"
           transform="translate(78.9844,133.9834)"><path
             d="m 0,0 -27.739,-27.722 48.274,-48.244 27.74,27.75 z"
             style="fill:#99ebfa;fill-opacity:1;fill-rule:evenodd;stroke:none"
             id="path6268" /></g><g
           id="g6270"
           transform="translate(51.2451,106.2617)"><path
             d="m 0,0 -24.789,-24.774 c -13.274,-13.266 -13.274,-34.979 0,-48.245 13.273,-13.265 35,-13.265 48.246,0 l 24.817,24.775 z"
             style="fill:#ebddd9;fill-opacity:1;fill-rule:evenodd;stroke:none"
             id="path6272" /></g><g
           id="g6274"
           transform="translate(389.5654,59.8877)"><path
             d="m 0,0 c -13.785,0 -24.96,-11.168 -24.96,-24.943 0,-13.777 11.175,-24.945 24.96,-24.945 13.784,0 24.96,11.168 24.96,24.945 C 24.96,-11.168 13.784,0 0,0"
             style="fill:#ffcd69;fill-opacity:1;fill-rule:evenodd;stroke:none"
             id="path6276" /></g><g
           id="g6278"
           transform="translate(380.7725,192.4883)"><path
             d="m 0,0 c -12.537,-21.372 -15.685,-29.479 -16.11,-51.078 -0.029,-1.928 -0.057,-3.941 -0.057,-6.095 0,-13.719 11.231,-24.944 24.96,-24.944 13.728,0 24.96,11.225 24.96,24.944 0,15.789 0.992,17.801 9.303,31.974 4.679,7.994 12.82,12.897 19.656,18.821 9.983,8.646 16.479,18.113 20.507,28.572 v 0.029 c 4.425,11.423 5.927,24.037 5.927,38.04 0,20.381 -7.601,39.004 -20.109,53.148 -14.721,16.667 -36.249,27.183 -60.244,27.183 -44.36,0 -80.355,-35.97 -80.355,-81.437 0,-14.852 11.233,-26.05 24.96,-26.05 13.701,0 24.932,11.198 24.932,26.05 0,17.943 13.644,31.549 30.463,31.549 16.819,0 30.462,-13.606 30.462,-30.443 C 39.255,48.84 39,39.061 30.065,31.351 20.081,22.705 12.509,17.546 5.304,8.022 3.518,5.669 1.759,3.033 0,0"
             style="fill:#ffcd69;fill-opacity:1;fill-rule:evenodd;stroke:none"
             id="path6280" /></g><g
           id="g6282"
           transform="translate(359.1025,251.6455)"><path
             d="m 0,0 c 0,-14.853 -11.231,-26.05 -24.932,-26.05 -13.727,0 -24.96,11.197 -24.96,26.05 0,45.467 35.995,81.437 80.355,81.437 44.389,0 80.353,-35.97 80.353,-80.332 0,-26.871 -5.559,-48.584 -26.434,-66.64 -6.836,-5.924 -14.977,-10.827 -19.656,-18.821 -8.311,-14.173 -9.303,-16.185 -9.303,-31.974 0,-13.719 -11.233,-24.944 -24.96,-24.944 -13.729,0 -24.96,11.225 -24.96,24.944 0,26.361 2.524,33.901 16.167,57.173 8.906,15.193 17.585,20.551 30.065,31.35 8.935,7.71 9.19,17.49 9.19,28.912 0,16.837 -13.643,30.444 -30.462,30.444 C 13.644,31.549 0,17.942 0,0 Z"
             style="fill:none;stroke:#000000;stroke-width:20.176;stroke-linecap:round;stroke-linejoin:round;stroke-miterlimit:10;stroke-dasharray:none;stroke-opacity:1"
             id="path6284" /></g><g
           id="g6286"
           transform="translate(389.5654,10)"><path
             d="M 0,0 C 13.756,0 24.96,11.225 24.96,24.944 24.96,38.691 13.756,49.888 0,49.888 -13.729,49.888 -24.96,38.691 -24.96,24.944 -24.96,11.225 -13.729,0 0,0 Z"
             style="fill:none;stroke:#000000;stroke-width:20.176;stroke-linecap:round;stroke-linejoin:round;stroke-miterlimit:10;stroke-dasharray:none;stroke-opacity:1"
             id="path6288" /></g><g
           id="g6290"
           transform="translate(126.04,181.0088)"><path
             d="m 0,0 -99.584,-99.521 c -13.274,-13.266 -13.274,-34.979 0,-48.245 13.273,-13.265 35,-13.265 48.246,0 l 99.584,99.522"
             style="fill:none;stroke:#000000;stroke-width:20.176;stroke-linecap:round;stroke-linejoin:round;stroke-miterlimit:10;stroke-dasharray:none;stroke-opacity:1"
             id="path6292" /></g><g
           id="g6294"
           transform="translate(127.2598,85.7676)"><path
             d="M 0,0 -48.275,48.216 M -76.015,20.494 -27.74,-27.75"
             style="fill:none;stroke:#000000;stroke-width:20.176;stroke-linecap:round;stroke-linejoin:round;stroke-miterlimit:10;stroke-dasharray:none;stroke-opacity:1"
             id="path6296" /></g><g
           id="g6298"
           transform="translate(142.9727,242.0928)"><path
             d="m 0,0 -16.167,-16.156 c -12.594,-12.586 -12.594,-33.165 0,-45.75 l 46.687,-46.657 c 12.592,-12.585 33.185,-12.585 45.778,0 l 16.139,16.157"
             style="fill:none;stroke:#000000;stroke-width:20.176;stroke-linecap:round;stroke-linejoin:round;stroke-miterlimit:10;stroke-dasharray:none;stroke-opacity:1"
             id="path6300" /></g><g
           id="g6302"
           transform="translate(216.4912,475.915)"><path
             d="m 0,0 c 70.823,42.405 163.998,33.108 225.008,-27.892 63.506,-63.437 70.993,-161.654 22.492,-233.34 m -99.329,-73.273 c -62.967,-19.049 -134.131,-3.714 -183.909,46.033 -61.152,61.113 -70.37,154.483 -27.655,225.319"
             style="fill:none;stroke:#000000;stroke-width:20.176;stroke-linecap:round;stroke-linejoin:round;stroke-miterlimit:10;stroke-dasharray:none;stroke-opacity:1"
             id="path6304" /></g><g
           id="g6306"
           transform="translate(386.0762,200.5107)"><path
             d="m 0,0 c -53.862,-34.469 -126.274,-28.176 -173.386,18.878 -54.344,54.31 -54.344,142.379 0,196.718 54.373,54.309 142.498,54.309 196.871,0 30.179,-30.189 43.595,-70.78 40.248,-110.207"
             style="fill:none;stroke:#000000;stroke-width:20.176;stroke-linecap:round;stroke-linejoin:round;stroke-miterlimit:10;stroke-dasharray:none;stroke-opacity:1"
             id="path6308" /></g><g
           id="g6310"
           transform="translate(180.7246,447.9951)"><path
             d="M 0,0 0.028,0.028"
             style="fill:none;stroke:#000000;stroke-width:20.176;stroke-linecap:round;stroke-linejoin:round;stroke-miterlimit:10;stroke-dasharray:none;stroke-opacity:1"
             id="path6312" /></g></g></g></g></svg>
