<svg xmlns="http://www.w3.org/2000/svg" viewBox="0 0 512 512"><path fill="#ff8f71" d="M438 205c3-4 3-10 0-14a52 52 0 0 0-86 0c-3 4-3 10 0 14a52 52 0 0 0 86 0z"/><path fill="#ffb39d" d="m268 113 81 80 1 2c7 4 15 2 21-3l6-6c31-31 40-75 24-114l-53-52-81 81z"/><path fill="#ff8f71" d="m281 101 6-6a105 105 0 0 1 114-23 105 105 0 0 0-171-34l-6 7c-6 6-8 15-2 22l57 57c-7-7-4-17 2-23z"/><path fill="#1cbbea" d="M295 393H128v112h167a56 56 0 1 0 0-112z"/><path fill="#55dafe" d="M323 282A139 139 0 0 0 211 59l-85 56 87 55c15 1 26 14 26 28 0 8-3 13-5 17L83 415a56 56 0 0 0 45 89h111c-34 1-54-39-33-66z"/><path fill="#1cbbea" d="M189 115c-1-21 7-41 22-56-49 0-96 27-120 70a56 56 0 1 0 96 55 28 28 0 0 1 26-14 77 77 0 0 1-24-55z"/><path fill="#ffb39d" d="M350 289c5 3 11 3 16 0a57 57 0 0 0 0-94c-5-3-11-3-16 0a57 57 0 0 0 0 94z"/><ellipse cx="293.3" cy="163.5" fill="#ff8e9e" rx="29.8" ry="23.7"/><ellipse cx="132" cy="163.6" fill="#ff8e9e" rx="29.8" ry="23.7"/><path d="M339 483c-3-3-7-3-10 0-9 9-21 14-34 14H128a48 48 0 0 1-39-77l151-201c4-6 7-13 7-21 0-36-48-49-66-17a48 48 0 0 1-84-49c6-9 12-18 20-26a8 8 0 1 0-11-11 146 146 0 0 0-22 30 63 63 0 0 0 110 63c10-18 38-11 38 10a20 20 0 0 1-4 12L77 411a63 63 0 0 0 51 101h167c17 0 32-6 44-18 3-3 3-8 0-11z"/><path d="M142 121a8 8 0 0 0-7 8v12a8 8 0 1 0 15 0v-12c0-4-4-8-8-8zm153 4a8 8 0 0 0-11-10c-2 1-10 0-16-2a8 8 0 0 0-6 13l-1 3v12a8 8 0 1 0 15 0v-11h4c6 0 11-1 15-5zm-129-10c3-3 2-8-2-10-7-6-24-12-34 1a8 8 0 0 0 12 9c4-5 14 2 14 2 3 2 8 2 10-2zm30 37c8 0 24 0 36-5a8 8 0 1 0-6-14 88 88 0 0 1-30 4 8 8 0 1 0 0 15z"/><path d="M444 186a59 59 0 0 0-40-25 109 109 0 0 0-21-129 111 111 0 0 0-78-32c-29 0-58 11-80 33-6 6-11 10-14 19-28 0-56 8-80 24a8 8 0 0 0 8 12c86-56 198 4 204 103a64 64 0 0 0-20 77c-4 7 2-1-100 134a8 8 0 0 0 12 9l8-10h52a48 48 0 0 1 46 60 8 8 0 0 0 15 4 63 63 0 0 0-61-79h-41l78-104 14 13c8 5 17 5 24 0a64 64 0 0 0 28-60 59 59 0 0 0 46-26c5-7 5-16 0-23zM227 52l8-8a97 97 0 0 1 137-1 95 95 0 0 1 0 137l-6 6-9-1A147 147 0 0 0 227 52zm135 231a7 7 0 0 1-7 0 49 49 0 0 1-22-41c0-26 20-42 25-42l4 1a49 49 0 0 1 0 82zm70-82a44 44 0 0 1-37 19 64 64 0 0 0-17-25c5-5 11-10 17-20a44 44 0 0 1 37 20 5 5 0 0 1 0 6z"/></svg>