<svg xmlns="http://www.w3.org/2000/svg" width="512" height="512"><path fill="#ff8f71" d="M437.8 205c3-4.4 3-10 0-14.4a51.5 51.5 0 0 0-85.6 0c-3 4.3-3 10 0 14.4a51.5 51.5 0 0 0 85.6 0z"/><path fill="#ffb39d" d="m267.9 112.5 80.8 80.9 1.7 1.4c6.3 4.5 15 2.3 20.5-3.2l6.1-6.1c30.7-30.8 40-75 24-113.3l-52.7-52.7-81.1 81.1z"/><path fill="#ff8f71" d="m280.6 101.4 6.2-6.2a105.1 105.1 0 0 1 114.1-23 104.5 104.5 0 0 0-171-33.8l-6.1 6.1c-6 6-8.1 15.8-1.8 22.2l56.9 56.8c-6.4-6.3-4.2-16.1 1.7-22.1z"/><path fill="#1cbbea" d="M294.8 393.1h-167v111.4h167a55.7 55.7 0 1 0 0-111.4z"/><path fill="#55dafe" d="M322.7 281.7A139.4 139.4 0 0 0 211.3 59l-85.5 56.1 87.5 55.3c14.7 1 25.9 13.2 25.8 28 0 7.6-3 13.1-5.5 16.5L83.2 415.4a55.7 55.7 0 0 0 44.5 89.1h111.4c-34.4 0-54-39.3-33.4-66.8z"/><path fill="#1cbbea" d="M188.6 115.2c-.4-21 7.8-41.3 22.6-56.2-49.5 0-95.7 26.7-120.5 69.6a55.7 55.7 0 1 0 96.4 55.7 27.7 27.7 0 0 1 26.2-13.9 77.4 77.4 0 0 1-24.7-55.2z"/><path fill="#ffb39d" d="M350.4 288.8c4.8 3.2 11 3.2 15.8 0a56.6 56.6 0 0 0 0-94c-4.7-3.2-11-3.2-15.8 0a56.6 56.6 0 0 0 0 94z"/><ellipse cx="293.3" cy="163.5" fill="#ff8e9e" rx="29.8" ry="23.7"/><ellipse cx="132" cy="163.6" fill="#ff8e9e" rx="29.8" ry="23.7"/><path d="M339.3 483c-3-2.9-7.7-2.9-10.6 0-9 9-21.1 14-34 14h-167a48.3 48.3 0 0 1-38.5-77.1l150.4-200.5c4.6-6.2 7-13.4 7-21 0-36.6-48-48.9-66-17.8a48.2 48.2 0 0 1-83.4-48.3c5.5-9.5 12.3-18.4 20-26.3a7.5 7.5 0 1 0-10.7-10.5 146.3 146.3 0 0 0-22.3 29.3A63.2 63.2 0 0 0 193.6 188c10.2-17.7 38-11.2 38 10.2a20 20 0 0 1-4 12L77.2 411A63.2 63.2 0 0 0 127.7 512h167c16.9 0 32.6-6.5 44.6-18.3 2.9-3 3-7.7 0-10.6z"/><path d="M142.3 121.3a7.5 7.5 0 0 0-7.5 7.5v11.9a7.5 7.5 0 1 0 15 0v-11.9c0-4.1-3.4-7.5-7.5-7.5zM295 124.8a7.5 7.5 0 0 0-11-10.2c-2.3 1-10.2 0-16.5-1.9a7.5 7.5 0 0 0-5.8 13.8c-.2.7-.3 1.4-.3 2.2v11.9a7.5 7.5 0 1 0 15 0v-10.8l4 .2c5.6 0 11.1-1.3 14.5-5.2zM166.3 115.2c2.4-3.4 1.5-8-1.9-10.4-7.5-5.3-24.4-11.7-34.3 1.7a7.5 7.5 0 0 0 12 8.9c3.7-5 13.6 1.6 13.8 1.7 3.4 2.3 8 1.5 10.4-2zM196.3 151.9h.1c7.7 0 23.4 0 35.6-5a7.5 7.5 0 1 0-5.7-13.9 88.2 88.2 0 0 1-30 3.9h-.1a7.5 7.5 0 1 0 0 15h.1z"/><path d="M444 186.4a59 59 0 0 0-40-25.4 109.2 109.2 0 0 0-21-128.6A110.7 110.7 0 0 0 305 0c-29 0-58.2 10.9-80.4 33-6 6.2-11 10.2-13.2 18.5-28.5 0-56.4 8.3-80.5 24a7.5 7.5 0 0 0 8.2 12.6c86.2-56.4 198.3 4 203.7 103a64.1 64.1 0 0 0-19.5 76.4c-4.4 7 1.3-.8-99.9 134a7.5 7.5 0 0 0 12 9l7.4-9.9h52a48.3 48.3 0 0 1 46.7 60.2 7.5 7.5 0 0 0 14.5 3.7 63.3 63.3 0 0 0-61.2-78.9H254c81.1-108.2 75.3-100.2 77.8-103.9 4 5.2 8.9 9.7 14.3 13.3 7.4 5 16.9 5 24.2 0a64 64 0 0 0 28-59.8 59 59 0 0 0 45.6-26c4.7-7 4.7-15.9 0-22.8zm-216.9-134c1.1-1.9 1.5-2.1 8.1-8.7a97 97 0 0 1 137.1-.7c40 40 37 99.6-.6 137.2l-6 6c-2.7-1-5.5-1.4-8.3-1.3A146.9 146.9 0 0 0 227 52.4zm135 230.2a6.6 6.6 0 0 1-7.5 0 49.1 49.1 0 0 1-21.7-40.8c0-25.4 19.8-41.9 25.4-41.9 1.5 0 2.8.5 4 1.3a49.1 49.1 0 0 1-.2 81.4zm69.5-81.8a44 44 0 0 1-36.5 19.5 64 64 0 0 0-16.8-25.5c4.8-4.9 10.4-10.2 17-19.5a44 44 0 0 1 36.3 19.5 5.4 5.4 0 0 1 0 6z"/></svg>