<?xml version="1.0" encoding="UTF-8"?>
<svg xmlns="http://www.w3.org/2000/svg" xmlns:xlink="http://www.w3.org/1999/xlink" version="1.1" id="Capa_1" x="0px" y="0px" viewBox="0 0 512 512" style="enable-background:new 0 0 512 512;" xml:space="preserve" width="512" height="512">
<g>
	<g>
		<path style="fill:#FEC165;" d="M494.5,131.599l6.388,297.788c0,11.046-8.954,20-20,20l-31.2,4.253H288.94&#10;&#9;&#9;&#9;c-3.753,0-7.261-1.678-9.793-4.449c-0.315-0.344-0.637-0.681-0.967-1.011C272.5,442.51,264.66,439,256,439&#10;&#9;&#9;&#9;c-9.249,0-17.565,4.004-23.303,10.377c-2.481,2.755-6.061,4.263-9.769,4.263H27.5c-11.046,0-20-8.954-20-20V128.36&#10;&#9;&#9;&#9;c0-11.046,8.954-20,20-20h203.835L256,123.317l27.524-14.957H446.86l27.64,3.239C485.546,111.599,494.5,120.554,494.5,131.599z"/>
		<path style="fill:#FEA95C;" d="M504.5,128.36v305.28c0,11.05-8.95,20-20,20h-40c11.05,0,20-8.95,20-20v-25.618L446.86,278.27&#10;&#9;&#9;&#9;V108.36h37.64C495.55,108.36,504.5,117.31,504.5,128.36z"/>
		<path style="fill:#DFF8FF;" d="M55.524,380.763L47.5,400.76v7.262c0,2.761,2.239,5,5,5h180.64l22.86-7.918l22.79,7.918H459.5&#10;&#9;&#9;&#9;c2.761,0,5-2.239,5-5v-7.762l-9.385-24.07l-207.026-31.321L55.524,380.763z"/>
		<path style="fill:#B6E9FF;" d="M464.5,376.19v24.07c-1.62,0.33-3.29,0.5-5,0.5h-28.22c-18.1,0-66.12-10.29-85.93-14.71l-0.19-0.04&#10;&#9;&#9;&#9;c-3.42-0.72-7.04-1.08-10.73-1.08c-21.36,0-44.38,12.03-55.64,28.09h-45.65c-3.5-4.94-8.26-9.68-13.93-13.82&#10;&#9;&#9;&#9;c-12.42-9.07-27.59-14.27-41.65-14.27c-3.69,0-7.3,0.36-10.72,1.08l-0.19,0.04c-19.81,4.42-67.84,14.71-85.91,14.71H47.5v-20&#10;&#9;&#9;&#9;l200.59-35.89L464.5,376.19z"/>
		<path style="fill:#F8FEFF;" d="M256,413.022c12.898-30.431,55.78-54.504,93.378-46.567c0.147,0.026,63.343,14.317,81.901,14.308&#10;&#9;&#9;&#9;H441.5l17.506-5.965l0.188-282.352c0-3.245-3.034-5.595-6.193-4.854c-5.335,1.25-5.985-3.892-11.5-3.497&#10;&#9;&#9;&#9;c-3.717,0.267-7.233,0.375-10.221,0.375c-18.558,0.009-81.754-14.283-81.901-14.308C311.78,62.225,268.898,81.298,256,111.73&#10;&#9;&#9;&#9;l-5.033,138.507L256,413.022z"/>
		<path style="fill:#DFF8FF;" d="M464.5,86.56v289.2c0,2.761-2.239,5-5,5h-18V84.09c5.546-0.393,11.547-1.14,16.914-2.404&#10;&#9;&#9;&#9;C461.527,80.952,464.5,83.361,464.5,86.56z"/>
		<path style="fill:#F8FEFF;" d="M251.665,396.069C246.871,384.759,231,383.05,231,383.05&#10;&#9;&#9;&#9;c-19.048-13.925-44.754-21.582-68.378-16.595c-0.147,0.026-63.343,14.317-81.901,14.308H47.5V86.562&#10;&#9;&#9;&#9;c0-3.245,3.034-5.595,6.193-4.854c8.931,2.092,19.607,2.764,27.027,2.764c18.558,0.009,81.754-14.283,81.901-14.308&#10;&#9;&#9;&#9;c23.499-4.961,49.062,0.629,68.078,12.949c11.41,7.392,14.81,26.158,19.647,37.57L251.665,396.069z"/>
		<path style="fill:#DFF8FF;" d="M256,111.73v301.29c-4.79-11.31-13.73-21.74-25-29.97V83.32C242.27,90.68,251.2,100.42,256,111.73z&#10;&#9;&#9;&#9;"/>
		<path style="fill:#FD8087;" d="M205.83,76.823l0.376,64.565c0,3.726-3.929,6.143-7.254,4.463l-10.39-2.483l-14.058-7.101&#10;&#9;&#9;&#9;c-1.134-0.573-2.473-0.573-3.607,0l-26.802,13.539c-3.326,1.68-7.254-0.737-7.254-4.463v-67.2c0-7.363,5.147-13.723,12.345-15.27&#10;&#9;&#9;&#9;c3.739-0.803,7.404-1.606,10.934-2.393c0.17-0.04,0.44-0.1,0.44-0.1c3.17-0.67,6.407-1.175,9.69-1.512&#10;&#9;&#9;&#9;c3.283-0.338,6.4,1.099,9.75,1.099c5.018,0,10.078,0.387,15.1,1.139C202.726,62.248,205.83,69.112,205.83,76.823z"/>
		<path style="fill:#FE646F;" d="M208.56,74.94v70.4c0,3.73-3.93,6.15-7.25,4.47l-12.75-6.44V74.94c0-7.71-5.62-14.3-13.25-15.44&#10;&#9;&#9;&#9;c-1.68-0.25-3.37-0.46-5.06-0.63c3.28-0.34,6.61-0.51,9.96-0.51c5.02,0,10.08,0.39,15.1,1.14&#10;&#9;&#9;&#9;C202.94,60.64,208.56,67.23,208.56,74.94z"/>
	</g>
	<g>
		<path style="fill:none;stroke:#000000;stroke-width:15;stroke-linecap:round;stroke-linejoin:round;stroke-miterlimit:10;" d="&#10;&#9;&#9;&#9;M47.5,376.189v31.834c0,2.761,2.239,5,5,5h407c2.761,0,5-2.239,5-5v-31.834"/>
		<path style="fill:none;stroke:#000000;stroke-width:15;stroke-linecap:round;stroke-linejoin:round;stroke-miterlimit:10;" d="&#10;&#9;&#9;&#9;M46.3,108.36H27.5c-11.05,0-20,8.95-20,20v305.28c0,11.05,8.95,20,20,20h76.81"/>
		<path style="fill:none;stroke:#000000;stroke-width:15;stroke-linecap:round;stroke-linejoin:round;stroke-miterlimit:10;" d="&#10;&#9;&#9;&#9;M465.31,108.36h19.19c11.05,0,20,8.95,20,20v305.28c0,11.05-8.95,20-20,20H288.94c-3.75,0-7.26-1.68-9.79-4.45&#10;&#9;&#9;&#9;c-0.32-0.34-0.64-0.68-0.97-1.01C272.5,442.51,264.66,439,256,439c-9.25,0-17.57,4-23.3,10.38c-2.48,2.75-6.06,4.26-9.77,4.26&#10;&#9;&#9;&#9;h-82.92"/>
		<path style="fill:none;stroke:#000000;stroke-width:15;stroke-linecap:round;stroke-linejoin:round;stroke-miterlimit:10;" d="&#10;&#9;&#9;&#9;M464.5,223.35v157.41h-33.22c-6,0-16.66-1.49-28.35-3.51"/>
		<path style="fill:none;stroke:#000000;stroke-width:15;stroke-linecap:round;stroke-linejoin:round;stroke-miterlimit:10;" d="&#10;&#9;&#9;&#9;M368.57,370.6c-11.13-2.33-19.13-4.13-19.19-4.14c-37.6-7.94-80.48,16.13-93.38,46.56V111.73c12.9-30.43,55.78-49.5,93.38-41.57&#10;&#9;&#9;&#9;c0.15,0.03,63.34,14.32,81.9,14.31c7.42,0,18.1-0.67,27.03-2.76c3.16-0.74,6.19,1.61,6.19,4.85v101.09"/>
		<path style="fill:none;stroke:#000000;stroke-width:15;stroke-linecap:round;stroke-linejoin:round;stroke-miterlimit:10;" d="&#10;&#9;&#9;&#9;M209.638,73.117c21.008,6.894,38.816,20.81,46.362,38.613"/>
		<path style="fill:none;stroke:#000000;stroke-width:15;stroke-linecap:round;stroke-linejoin:round;stroke-miterlimit:10;" d="&#10;&#9;&#9;&#9;M256,413.022c-12.898-30.431-55.78-54.504-93.378-46.567c-0.147,0.026-63.343,14.317-81.901,14.308H47.5V86.562&#10;&#9;&#9;&#9;c0-3.245,3.034-5.595,6.193-4.854c8.931,2.092,19.607,2.764,27.027,2.764c10.517,0.005,35.369-4.582,54.958-8.564"/>
		<path style="fill:none;stroke:#000000;stroke-width:15;stroke-linecap:round;stroke-linejoin:round;stroke-miterlimit:10;" d="&#10;&#9;&#9;&#9;M208.56,130.86v14.48c0,3.73-3.93,6.15-7.25,4.47l-28.61-14.46l-28.61,14.46c-3.32,1.68-7.25-0.74-7.25-4.47v-67.2&#10;&#9;&#9;&#9;c0-7.36,5.15-13.72,12.35-15.27c3.73-0.8,7.4-1.6,10.93-2.39c0.17-0.04,0.44-0.1,0.44-0.1c6.34-1.34,12.95-2.02,19.65-2.02&#10;&#9;&#9;&#9;c5.02,0,10.08,0.39,15.1,1.14c7.63,1.14,13.25,7.73,13.25,15.44v20.22"/>
		<g>
			
				<line style="fill:none;stroke:#000000;stroke-width:15;stroke-linecap:round;stroke-linejoin:round;stroke-miterlimit:10;" x1="291.024" y1="151.088" x2="429.476" y2="151.088"/>
			
				<line style="fill:none;stroke:#000000;stroke-width:15;stroke-linecap:round;stroke-linejoin:round;stroke-miterlimit:10;" x1="291.024" y1="200.662" x2="429.476" y2="200.662"/>
			
				<line style="fill:none;stroke:#000000;stroke-width:15;stroke-linecap:round;stroke-linejoin:round;stroke-miterlimit:10;" x1="291.024" y1="250.236" x2="429.476" y2="250.236"/>
			
				<line style="fill:none;stroke:#000000;stroke-width:15;stroke-linecap:round;stroke-linejoin:round;stroke-miterlimit:10;" x1="291.024" y1="299.81" x2="429.476" y2="299.81"/>
			
				<line style="fill:none;stroke:#000000;stroke-width:15;stroke-linecap:round;stroke-linejoin:round;stroke-miterlimit:10;" x1="291.024" y1="299.81" x2="429.476" y2="299.81"/>
		</g>
		<g>
			
				<line style="fill:none;stroke:#000000;stroke-width:15;stroke-linecap:round;stroke-linejoin:round;stroke-miterlimit:10;" x1="220.976" y1="200.662" x2="82.524" y2="200.662"/>
			
				<line style="fill:none;stroke:#000000;stroke-width:15;stroke-linecap:round;stroke-linejoin:round;stroke-miterlimit:10;" x1="220.976" y1="250.236" x2="82.524" y2="250.236"/>
			
				<line style="fill:none;stroke:#000000;stroke-width:15;stroke-linecap:round;stroke-linejoin:round;stroke-miterlimit:10;" x1="220.976" y1="299.81" x2="82.524" y2="299.81"/>
			
				<line style="fill:none;stroke:#000000;stroke-width:15;stroke-linecap:round;stroke-linejoin:round;stroke-miterlimit:10;" x1="220.976" y1="299.81" x2="82.524" y2="299.81"/>
		</g>
	</g>
</g>















</svg>
