<svg xmlns="http://www.w3.org/2000/svg" xml:space="preserve" viewBox="0 0 682.7 682.7"><defs><clipPath id="a" clipPathUnits="userSpaceOnUse"><path d="M0 512h512V0H0Z"/></clipPath></defs><g clip-path="url(#a)" transform="matrix(1.33 0 0 -1.33 0 683)"><path fill="none" stroke="#fff" stroke-linecap="round" stroke-linejoin="round" stroke-miterlimit="10" stroke-width="30" d="M256 85a35 35 0 1 1 0-70 35 35 0 0 1 0 70ZM395 364a140 140 0 0 1-139 133 140 140 0 0 1-140-132 45 45 0 1 1 90-2v1a50 50 0 1 0 50-57c-25 0-45-20-45-45v-77c0-25 19-46 44-46s46 20 46 45v40a140 140 0 0 1 94 140Z"/></g></svg>