<svg xmlns="http://www.w3.org/2000/svg" width="512" height="512" viewBox="0 0 512.1 512.1"><path fill="#fff1a0" d="M430 82.1A246 246 0 0 0 58 402.3l-18.8 70.6 70.6-18.9A246 246 0 0 0 430 82.1z"/><path fill="#ff7d95" d="M189.3 191.7c-14.6.2-25.3-14-20.8-27.9a89.7 89.7 0 0 1 23.5-37c18-17.3 41.6-26 66.5-25 21.8 1 42.8 10.6 59 27s26 37.2 27 59a90.5 90.5 0 0 1-49.7 84.8 34 34 0 0 0-19 30.4 21.4 21.4 0 1 1-43 0 76.8 76.8 0 0 1 42.7-68.7 47.4 47.4 0 0 0 26-44.6c-1-22.9-22-43.9-45-45a47 47 0 0 0-47 32c-3 8.9-11 15-20.2 15z"/><circle cx="254.3" cy="388.9" r="21.5" fill="#ff7d95"/><path d="M430 92.1a10 10 0 0 1-10-10 10 10 0 0 1 10-10c2.6 0 5.2 1.1 7 3s3 4.4 3 7c0 2.7-1.1 5.3-3 7.1s-4.4 3-7 3z"/><path d="M256 512c-53 0-105-16.4-148.2-47.1l-66 17.7a10 10 0 0 1-12.3-12.3l17.7-66A256 256 0 0 1 401 45a10 10 0 0 1-11.3 16.5A235.8 235.8 0 0 0 89.1 89.2c-82 82-91.9 214-23 307.1a10 10 0 0 1 1.7 8.5l-14.5 54 54-14.5c2.9-.7 6-.2 8.5 1.7 93 68.9 225 59 307-23a235.8 235.8 0 0 0 27.7-300.6A10 10 0 1 1 467 111a255.8 255.8 0 0 1-211 401z"/><path d="M254.3 334.5a31.5 31.5 0 0 1-31.5-31.5c0-33 18.5-62.7 48.2-77.7a37.4 37.4 0 0 0 20.5-35.1 39.5 39.5 0 0 0-35.4-35.4A37 37 0 0 0 219 180a31.8 31.8 0 0 1-29.6 21.7h-.4c-10 0-19.5-4.8-25.5-12.9-6-8.2-7.6-18.4-4.5-28a100.3 100.3 0 0 1 100-69c24.3 1.2 47.6 11.8 65.7 29.8s28.6 41.4 29.7 65.7a100.5 100.5 0 0 1-55 94.3 24 24 0 0 0-13.6 21.4 31.5 31.5 0 0 1-31.5 31.5zm0-199.8h2.7a59 59 0 0 1 54.5 54.6 57.5 57.5 0 0 1-31.5 53.9 66.8 66.8 0 0 0-37.2 59.8c0 6.4 5.2 11.5 11.5 11.5 6.4 0 11.5-5.1 11.5-11.5a44 44 0 0 1 24.5-39.3 80.5 80.5 0 0 0 44.2-75.5 79.6 79.6 0 0 0-24-52.4 79.7 79.7 0 0 0-52.4-24 79.7 79.7 0 0 0-80 55.1 11.5 11.5 0 0 0 11 14.8c5 0 9.3-3.3 11-8.1a57.4 57.4 0 0 1 54.2-38.9zM254.3 420.4a31.5 31.5 0 1 1 0-63 31.5 31.5 0 0 1 0 63zm0-43a11.5 11.5 0 1 0 0 23 11.5 11.5 0 0 0 0-23z"/></svg>