<svg id="Layer_1" enable-background="new 0 0 512 512" height="512" viewBox="0 0 512 512" width="512" xmlns="http://www.w3.org/2000/svg"><path d="m313.088 355.104 96.183 133.588c11.398 15.83 36.396 7.767 36.396-11.74v-134.737z" fill="#ebe0da"/><path d="m418.835 378.584h-325.67c-47.311 0-85.665-38.354-85.665-85.665v-192.336c0-47.311 38.354-85.665 85.665-85.665h325.67c47.311 0 85.665 38.354 85.665 85.665v192.337c0 47.311-38.354 85.664-85.665 85.664z" fill="#fff5f4"/><path d="m415.741 148.982-.007.004c-4.705-31.732-32.023-56.091-65.049-56.155-35.627-.069-65.174 28.692-66.014 64.309-.876 37.125 28.957 67.495 65.883 67.495h.084c5.275-.007 9.976 3.334 11.54 8.372 7.204 23.203 2.931 44.753-2.555 59.702-2.142 5.837 4.951 10.557 9.533 6.354 37.979-34.836 51.216-100.766 46.585-150.081z" fill="#fed22b"/><path d="m226.462 148.982-.007.004c-4.705-31.732-32.023-56.091-65.049-56.155-35.627-.069-65.174 28.692-66.014 64.309-.876 37.125 28.957 67.495 65.883 67.495h.084c5.275-.007 9.976 3.334 11.54 8.372 7.204 23.203 2.931 44.753-2.555 59.702-2.142 5.837 4.951 10.557 9.533 6.354 37.979-34.836 51.217-100.766 46.585-150.081z" fill="#fed22b"/><path d="m495.08 332.01c-14.2 27.65-43.01 46.57-76.25 46.57h-325.66c-47.32 0-85.67-38.35-85.67-85.66v-192.34c0-32.36 17.94-60.52 44.42-75.09-6.02 11.72-9.42 25.01-9.42 39.09v192.34c0 47.31 38.35 85.66 85.67 85.66h325.66c14.95 0 29.02-3.83 41.25-10.57z" fill="#ebe0da"/><path d="m400.74 251.89c-7.56 18.25-17.99 34.7-31.58 47.17-4.59 4.21-11.68-.51-9.54-6.35 5.49-14.95 9.76-36.5 2.56-59.7-1.57-5.04-6.27-8.38-11.54-8.37h-.09c-36.92 0-66.76-30.37-65.88-67.5.84-35.62 30.39-64.38 66.01-64.31 6.04.01 11.89.83 17.44 2.37-27.29 7.56-47.75 32.39-48.45 61.94-.88 37.13 28.96 67.5 65.88 67.5h.09c5.27-.01 9.97 3.33 11.54 8.37 2 6.46 3.12 12.78 3.56 18.88z" fill="#fdc202"/><path d="m211.47 251.89c-7.57 18.25-18 34.7-31.59 47.17-4.58 4.21-11.68-.51-9.53-6.35 5.48-14.95 9.75-36.5 2.55-59.7-1.56-5.04-6.26-8.38-11.54-8.37h-.08c-36.93 0-66.76-30.37-65.89-67.5.84-35.62 30.39-64.38 66.02-64.31 6.04.01 11.88.83 17.43 2.37-27.29 7.56-47.75 32.39-48.45 61.94-.87 37.13 28.96 67.5 65.89 67.5h.08c5.28-.01 9.98 3.33 11.54 8.37 2 6.46 3.12 12.79 3.57 18.88z" fill="#fdc202"/><path d="m374.226 304.576c40.489-37.14 53.776-105.268 48.982-156.311-.023-.258-.062-.513-.111-.765-5.436-35.401-36.023-62.186-72.538-62.186-64.209 0-98.003 78.119-52.52 124.687 23.496 24.056 53.203 22.374 52.907 22.14 1.906.113 3.522 1.311 4.069 3.074 6.709 21.61 2.38 41.779-2.434 54.896-4.867 13.263 11.328 23.928 21.645 14.465zm-23.835-87.461c-32.685-.089-58.999-26.938-58.222-59.814.735-31.174 26.605-56.986 58.501-56.986 28.647.056 53.416 21.418 57.637 49.701 4.022 43.758-6.775 104.424-39.505 138.868 4.562-15.087 7.455-35.84.54-58.117-4.518-14.546-19.964-13.723-18.951-13.652z"/><path d="m184.948 304.576c40.489-37.141 53.775-105.268 48.981-156.311-.024-.255-.061-.507-.11-.755-5.428-35.381-35.966-62.125-72.399-62.195-.048 0-.092 0-.14 0-64.211 0-98.003 78.119-52.521 124.687 23.497 24.057 53.203 22.374 52.907 22.14 1.907.113 3.522 1.311 4.07 3.074 6.709 21.609 2.38 41.779-2.433 54.895-4.842 13.196 11.29 23.958 21.645 14.465zm-23.673-87.456c-15.861 0-30.7-6.25-41.784-17.599-36.218-37.083-9.248-99.206 41.789-99.206h.112c28.644.056 53.41 21.415 57.635 49.693 4.023 43.757-6.774 104.432-39.503 138.877 4.562-15.089 7.455-35.842.539-58.117-2.512-8.089-9.947-13.648-18.788-13.648z"/><path d="m418.84 7.404h-54.34c-4.142 0-7.5 3.358-7.5 7.5s3.358 7.5 7.5 7.5h54.33c43.172 0 78.17 34.998 78.17 78.17v192.33c0 43.142-35.115 78.16-78.17 78.16h-239.051c-6.919 0-10.33 8.049-5.579 12.8 3.143 3.144-7.183 2.2 151.94 2.2l77.04 107c15.772 21.863 49.99 10.595 49.99-16.65v-96.91c34.43-13.69 58.83-47.35 58.83-86.6v-192.34c0-51.451-41.709-93.16-93.16-93.16zm19.33 469.529c0 12.226-15.647 17.297-22.81 7.36l-70.73-98.23c80.774 0 81.07.627 93.54-2.03z"/><path d="m93.17 371.064c-43.172 0-78.17-34.998-78.17-78.17v-192.33c0-43.167 34.993-78.16 78.16-78.16h237.34c4.142 0 7.5-3.358 7.5-7.5s-3.358-7.5-7.5-7.5h-237.33c-51.456 0-93.17 41.713-93.17 93.17v192.33c0 51.451 41.709 93.16 93.16 93.16h52.061c6.907 0 10.339-8.039 5.579-12.8-3.031-3.031-.729-2.2-57.63-2.2z"/></svg>