<?xml version="1.0" encoding="UTF-8" standalone="no"?>
<!-- Created with Inkscape (http://www.inkscape.org/) -->

<svg
   version="1.1"
   id="svg177"
   xml:space="preserve"
   width="682.66669"
   height="682.66669"
   viewBox="0 0 682.66669 682.66669"
   xmlns="http://www.w3.org/2000/svg"
   xmlns:svg="http://www.w3.org/2000/svg"><defs
     id="defs181"><clipPath
       clipPathUnits="userSpaceOnUse"
       id="clipPath191"><path
         d="M 0,512 H 512 V 0 H 0 Z"
         id="path189" /></clipPath></defs><g
     id="g183"
     transform="matrix(1.3333333,0,0,-1.3333333,0,682.66667)"><g
       id="g185"><g
         id="g187"
         clip-path="url(#clipPath191)"><g
           id="g193"
           transform="translate(374.9966,374.9966)"><path
             d="m 0,0 -0.576,-0.576 c -13.091,-13.091 -15.206,-33.395 -5.501,-49.16 12.414,-20.166 19.58,-43.892 19.58,-69.261 0,-73.061 -59.439,-132.5 -132.5,-132.5 v -80 c 117.361,0 212.5,95.14 212.5,212.5 0,41.031 -11.628,79.346 -31.77,111.828 C 48.263,14.555 18.074,18.075 0,0"
             style="fill:#92dd7a;fill-opacity:1;fill-rule:nonzero;stroke:none"
             id="path195" /></g><g
           id="g197"
           transform="translate(406.2603,105.7397)"><path
             d="m 0,0 c -15.621,-15.621 -40.948,-15.621 -56.569,0 -15.62,15.621 -15.62,40.948 0,56.569 l -0.03,0.057 c -23.993,-24 -57.124,-38.866 -93.661,-38.866 v -80 C -91.58,-62.24 -38.455,-38.455 0,0"
             style="fill:#7ec66a;fill-opacity:1;fill-rule:nonzero;stroke:none"
             id="path199" /></g><g
           id="g201"
           transform="translate(137.5791,137.5791)"><path
             d="m 0,0 c 13.091,13.091 15.207,33.396 5.501,49.161 -12.414,20.165 -19.58,43.891 -19.58,69.26 0,73.061 59.439,132.5 132.5,132.5 v 80 c -117.36,0 -212.5,-95.139 -212.5,-212.5 0,-41.031 11.629,-79.345 31.77,-111.828 13.47,-21.723 43.659,-25.243 61.733,-7.169 z"
             style="fill:#92dd7a;fill-opacity:1;fill-rule:nonzero;stroke:none"
             id="path203" /></g><g
           id="g205"
           transform="translate(105.7397,406.2603)"><path
             d="m 0,0 v 0 c 15.621,15.621 40.948,15.621 56.569,0 15.62,-15.621 15.62,-40.948 0,-56.568 l 0.052,-0.036 c 23.991,23.987 57.113,38.844 93.639,38.844 v 80 C 91.58,62.24 38.455,38.455 0,0"
             style="fill:#7ec66a;fill-opacity:1;fill-rule:nonzero;stroke:none"
             id="path207" /></g><g
           id="g209"
           transform="translate(256.7466,500.3892)"><path
             d="m 0,0 76.475,-56.5 c 10.821,-7.994 10.821,-24.177 0,-32.172 L 0,-145.171 c -13.202,-9.754 -31.884,-0.329 -31.884,16.086 V -16.086 C -31.884,0.328 -13.202,9.753 0,0"
             style="fill:#b1ef97;fill-opacity:1;fill-rule:nonzero;stroke:none"
             id="path211" /></g><g
           id="g213"
           transform="translate(333.2217,444.0508)"><path
             d="m 0,0 -76.475,56.5 c -13.202,9.753 -31.884,0.328 -31.884,-16.087 V -59.248 C -108.359,-1.072 -37.927,28.021 0,0"
             style="fill:#92dd7a;fill-opacity:1;fill-rule:nonzero;stroke:none"
             id="path215" /></g><g
           id="g217"
           transform="translate(255.2534,11.6108)"><path
             d="m 0,0 -76.475,56.5 c -10.821,7.994 -10.821,24.177 0,32.172 L 0,145.171 c 13.202,9.754 31.884,0.329 31.884,-16.086 V 16.086 C 31.884,-0.328 13.202,-9.753 0,0"
             style="fill:#b1ef97;fill-opacity:1;fill-rule:nonzero;stroke:none"
             id="path219" /></g><g
           id="g221"
           transform="translate(178.7783,67.9492)"><path
             d="m 0,0 76.475,-56.5 c 13.202,-9.753 31.884,-0.328 31.884,16.087 V 59.249 C 108.359,1.073 37.927,-28.021 0,0"
             style="fill:#92dd7a;fill-opacity:1;fill-rule:nonzero;stroke:none"
             id="path223" /></g><g
           id="g225"
           transform="translate(467.9814,270.9639)"><path
             d="m 0,0 c -2.461,35.375 -13.58,68.364 -31.251,96.864 -13.471,21.723 -43.66,25.243 -61.734,7.169 l -0.576,-0.576 c -13.09,-13.091 -15.206,-33.395 -5.501,-49.161 12.415,-20.165 19.581,-43.891 19.581,-69.26 0,-61.825 -42.563,-113.895 -99.925,-128.449"
             style="fill:none;stroke:#000000;stroke-width:15;stroke-linecap:round;stroke-linejoin:round;stroke-miterlimit:10;stroke-dasharray:none;stroke-opacity:1"
             id="path227" /></g><g
           id="g229"
           transform="translate(288.3618,45.9482)"><path
             d="M 0,0 C 97.177,14.849 172.693,95.521 179.62,195.088"
             style="fill:none;stroke:#000000;stroke-width:15;stroke-linecap:round;stroke-linejoin:round;stroke-miterlimit:10;stroke-dasharray:none;stroke-opacity:1"
             id="path231" /></g><g
           id="g233"
           transform="translate(141.7173,322.9956)"><path
             d="M 0,0 C 17.748,30.16 47.092,52.715 81.858,61.492"
             style="fill:none;stroke:#000000;stroke-width:15;stroke-linecap:round;stroke-linejoin:round;stroke-miterlimit:10;stroke-dasharray:none;stroke-opacity:1"
             id="path235" /></g><g
           id="g237"
           transform="translate(223.9214,466.0947)"><path
             d="m 0,0 c -102.14,-15.466 -180.421,-103.638 -180.421,-210.095 0,-41.03 11.629,-79.345 31.77,-111.827 13.47,-21.724 43.659,-25.244 61.733,-7.169 l 0.576,0.575 c 13.091,13.091 15.206,33.396 5.501,49.161 -12.414,20.166 -19.58,43.892 -19.58,69.26 0,13.842 2.133,27.194 6.088,39.746"
             style="fill:none;stroke:#000000;stroke-width:15;stroke-linecap:round;stroke-linejoin:round;stroke-miterlimit:10;stroke-dasharray:none;stroke-opacity:1"
             id="path239" /></g><g
           id="g241"
           transform="translate(256.7466,500.3892)"><path
             d="m 0,0 76.475,-56.5 c 10.821,-7.994 10.821,-24.177 0,-32.172 L 0,-145.171 c -13.202,-9.754 -31.884,-0.329 -31.884,16.086 V -16.086 C -31.884,0.328 -13.202,9.753 0,0 Z"
             style="fill:none;stroke:#000000;stroke-width:15;stroke-linecap:round;stroke-linejoin:round;stroke-miterlimit:10;stroke-dasharray:none;stroke-opacity:1"
             id="path243" /></g><g
           id="g245"
           transform="translate(255.2534,11.6108)"><path
             d="m 0,0 -76.475,56.5 c -10.821,7.994 -10.821,24.177 0,32.172 L 0,145.171 c 13.202,9.754 31.884,0.329 31.884,-16.086 V 16.086 C 31.884,-0.328 13.202,-9.753 0,0 Z"
             style="fill:none;stroke:#000000;stroke-width:15;stroke-linecap:round;stroke-linejoin:round;stroke-miterlimit:10;stroke-dasharray:none;stroke-opacity:1"
             id="path247" /></g></g></g></g></svg>
