<svg xmlns="http://www.w3.org/2000/svg" viewBox="0 0 512 512" style="enable-background:new 0 0 512.003 512.003" xml:space="preserve"><path style="fill:#6eb4f0" d="M359 246s77 34 85 68c9 34-26 72-26 72-4 30-25 39-25 39-9 24-34 18-34 18-17 8-32-2-43-18-14-19-24-10-35-26-9-12-25-55-25-84v-69h103z"/><path style="fill:#78c8ff" d="M273 246h86s77 34 85 68c9 34-26 72-26 72s-94-38-145-140z"/><path style="fill:#6b829b" d="M281 399c-9-12-25-55-25-84v-69h17c1 70 43 179 43 179-14-19-24-10-35-26z"/><path style="fill:#6eb4f0" d="M476 66c17 0 28 8 28 26 0 8-3 20-10 34-26 51-9 111-35 128-25 18-186-8-186-8v-17S339 66 476 66z"/><path style="fill:#5f9beb" d="M476 66c17 0 28 8 28 26l-2 11c-49 36-141 102-229 143v-17S339 66 476 66z"/><path style="fill:#6eb4f0" d="M153 246s-77 34-85 68 26 72 26 72c4 30 25 39 25 39 9 24 34 18 34 18 17 8 32-2 43-18 14-19 24-10 35-26 9-12 25-55 25-84v-69H153z"/><path style="fill:#78c8ff" d="M239 246h-86s-77 34-85 68 26 72 26 72 94-38 145-140z"/><path style="fill:#6b829b" d="M231 399c9-12 25-55 25-84v-69h-17c-1 70-43 179-43 179 14-19 24-10 35-26z"/><path style="fill:#6eb4f0" d="M36 66C19 66 8 74 8 92c0 8 3 20 10 34 26 51 9 111 35 128s186-8 186-8v-17S173 66 36 66z"/><path style="fill:#5f9beb" d="M36 66C19 66 8 74 8 92l2 11c49 36 141 102 229 143v-17S173 66 36 66z"/><path style="fill:#5a464b" d="M256 280c-9 0-17-8-17-17v-34c0-10 8-17 17-17s17 7 17 17v34c0 9-8 17-17 17zM36 66C19 66 8 74 8 92c0 8 3 20 10 34l3 6c7-26 24-56 67-57-16-6-34-9-52-9zM476 66c17 0 28 8 28 26 0 8-3 20-10 34l-3 6c-7-26-24-56-67-57 16-6 34-9 52-9z"/><path d="M476 58c-32 0-64 9-93 27-24 14-46 33-66 57-21 27-36 52-44 68l-7-4c9-36 30-57 30-57a8 8 0 0 0-11-11c-1 0-18 17-29 46-11-29-28-46-29-46a8 8 0 1 0-11 11s21 21 30 57l-7 4c-8-16-23-41-44-68-20-24-42-43-66-57-29-18-61-27-93-27C13 58 0 71 0 92c0 10 4 23 11 38 12 23 14 49 16 71 3 27 5 49 21 60 5 4 16 7 45 7h2c-15 11-30 26-35 44-8 34 19 70 26 78 5 25 20 37 27 41 9 19 28 22 39 20 4 2 9 3 14 3 11 0 24-6 37-24 6-8 10-10 16-12 5-2 12-5 19-14 5-8 13-25 18-43 5 18 13 35 18 43 7 9 14 12 19 14 6 2 10 4 16 12 13 18 26 24 37 24 5 0 10-1 14-3 11 2 30-1 39-20 7-4 22-16 27-41 7-8 34-44 26-78-5-18-20-33-35-44h2c29 0 40-3 45-7 16-11 18-33 21-60 2-22 4-48 16-71 7-15 11-28 11-38 0-21-13-34-36-34zm20 34c0 5-2 13-5 21-4-10-11-21-21-29-5-3-9-6-15-8l21-2c10 0 20 2 20 18zM256 272c-5 0-9-4-9-9v-34c0-5 4-9 9-9s9 4 9 9v34c0 5-4 9-9 9zM36 74l21 2c-6 2-10 5-15 8-10 8-17 19-21 29-3-8-5-16-5-21 0-8 2-18 20-18zm21 174c-10-7-12-26-14-48-1-19-3-41-11-63 0-8 5-28 20-40 13-10 29-13 50-8l19 9c22 13 42 32 61 54 23 28 38 56 45 70-46-25-94-59-95-60a8 8 0 0 0-9 13c1 1 54 39 103 65l-71 9c-78 7-95 1-98-1zm100 187h-5c-2 0-19 3-25-13l-4-4c-1 0-18-8-22-33 0-1 0-3-2-4 0 0-8-9-14-22-7-11-13-28-9-43 3-15 18-28 29-35 12-8 22-13 25-14a1001 1001 0 0 0 101-12v8c-1 64-38 150-42 158-5 7-16 22-32 14zm68-41c-4 5-7 7-11 8 11-28 26-73 31-116l3 1v28c0 27-15 68-23 79zm62 0c-8-11-23-52-23-79v-28l3-1c5 43 20 88 31 116-4-1-7-3-11-8zm149-78c8 30-23 65-23 65-2 1-2 3-2 4-4 25-21 33-22 33l-4 4c-6 16-23 13-24 13h-6c-16 8-27-7-32-14-4-8-41-94-42-158v-8a1610 1610 0 0 0 101 12c14 6 48 25 54 49zm33-116c-2 22-4 41-14 48-3 2-20 8-98 1l-71-9c49-26 102-64 103-65a8 8 0 0 0-9-13c-1 1-49 35-95 60 7-14 22-42 45-70a242 242 0 0 1 80-63c21-5 37-2 50 8 15 12 20 32 20 40-8 22-10 44-11 63z"/></svg>