<svg xmlns="http://www.w3.org/2000/svg" xml:space="preserve" style="enable-background:new 0 0 512 512" viewBox="0 0 512 512"><circle cx="256.3" cy="256" r="247.9" style="fill:#a8adf0"/><path d="M256.3 8c-11 0-21.7.8-32.3 2.2a248 248 0 0 1 0 491.6A248 248 0 1 0 256.3 8.1z" style="fill:#989fec"/><path d="m413 118.7-1.2-3.2-.2-.2-3-1.3c-25-11.4-60.3-14.2-91.5-15.4h-35.2c-.4 0-.5.5-.2.7l72.3 34.6c.4.2.1.8-.3.7a386.9 386.9 0 0 0-97.7-12.8c-32.3 0-65 4.3-97.4 12.7-.4.1-.7-.5-.2-.7L233 99.3c.4-.2.3-.7-.1-.7h-38c-31.3 1.2-66.6 4-91.6 15.4l-3 1.3-.2.2-1.2 3.2c-25.6 64.8-33 175-25.1 244l.4 3.6 2.8 2.2c40 31 93.5 47 127.1 51.2l4.4.5a3 3 0 0 0 3.3-2l21.9-58.4a3 3 0 0 0-2.4-4.2l-6.8-1a163.8 163.8 0 0 1-84.6-38.9c-.6-.5 0-1.5.7-1.2l7.4 2.8c6.3 2.5 12.9 5 17.2 6 30 7.2 60.6 10.8 90.7 10.8v-.5.5c30.2 0 60.7-3.6 90.7-10.7 4.3-1 10.9-3.6 17.2-6l7.4-3c.8-.2 1.3.8.7 1.3-28 25.3-61.2 35-84.6 38.7l-6.8 1.1a3 3 0 0 0-2.4 4.1l22 58.7a3 3 0 0 0 3.2 2l4.4-.6c33.6-4.2 87-20.2 127-51.2l3-2.2.3-3.7c7.8-69 .5-179-25-244zM184.5 277.9a43.7 43.7 0 1 1-7.8-87 43.7 43.7 0 0 1 7.8 87zm151 0a43.7 43.7 0 1 1-8-87 43.7 43.7 0 0 1 8 87z" style="fill:#fff"/><path d="M437 75C388.7 26.6 324.4 0 256 0S123.3 26.6 75 75C26.6 123.3 0 187.6 0 256s26.6 132.7 75 181c48.3 48.4 112.6 75 181 75s132.7-26.6 181-75c48.4-48.3 75-112.6 75-181s-26.6-132.7-75-181zM256 495.8C123.8 495.8 16.2 388.2 16.2 256S123.8 16.2 256 16.2 495.8 123.8 495.8 256 388.2 495.8 256 495.8z"/><path d="M432.4 291.4c.4 25.6-.5 49.8-2.8 70.3-36.5 28.2-87.5 45-123 49.4l-18-48.1c25-4 63-14.9 93.8-45.2a8 8 0 0 0-8-13.5c-3.6 1-8.5 3-13.6 5-5.8 2.2-12.4 4.8-16 5.7-29.5 7-59.3 10.5-88.7 10.5h-.1a384 384 0 0 1-88.7-10.5c-3.7-.9-10.3-3.5-16-5.7-5-2-9.7-3.8-13.3-4.9a8 8 0 0 0-8.4 13.4 171.3 171.3 0 0 0 93.7 45.3l-18 48C170 406.7 119 390 82.4 361.7c-7.6-67.8-.4-176.5 24.6-239.9 23-10.4 56.6-13.4 88.3-14.6l-50.5 23.4a8 8 0 0 0 5.7 15c35-10 70.5-15.2 105.5-15.2s70.5 5.2 105.5 15.3a8 8 0 0 0 5.7-15.1l-50.5-23.4c31.7 1.2 65.4 4.2 88.3 14.6 13.7 34.7 22 83 25.5 130.6a8.1 8.1 0 0 0 16.3-1.2c-3.7-50.5-12.8-101.6-28-138.4a8 8 0 0 0-3.9-4.2c-32.1-16-82.4-17.3-122.8-18.4-5 0-9.7-.2-14.3-.4a8.1 8.1 0 0 0-3.6 15.5l24.6 11.4a382.6 382.6 0 0 0-85.6 0l24.6-11.4a8 8 0 0 0-3.6-15.5l-14.3.4c-40.4 1-90.7 2.4-122.8 18.4a8 8 0 0 0-4 4.2C65.6 180 58 294.8 66.9 366.9a8 8 0 0 0 3 5.3c41.4 33.5 100.3 52.1 140.2 55.7h.7a8 8 0 0 0 7.6-5.2l23.7-63.5a8.1 8.1 0 0 0-7-10.9 173.3 173.3 0 0 1-51.2-13.3c24 4.4 48.2 6.7 72.1 6.7h.1c23.9 0 48-2.2 71.9-6.6a174.4 174.4 0 0 1-51 13c-1.6.3-3.3.9-4.6 2a8.1 8.1 0 0 0-2.3 9l23.7 63.6a8 8 0 0 0 8.3 5.2c40-3.6 98.8-22.2 140.3-55.7a8 8 0 0 0 3-5.3c2.6-22 3.8-48.2 3.3-75.8 0-4.4-3.7-8-8.1-8a8.1 8.1 0 0 0-8.1 8.3z"/><path d="M180.5 183.2a51.3 51.3 0 1 0 .2 102.6 51.3 51.3 0 0 0-.2-102.6zm0 86.3a35 35 0 1 1 .1-70.2 35 35 0 0 1 0 70.2zM331.5 183.2a51.3 51.3 0 1 0 0 102.6 51.3 51.3 0 0 0 0-102.6zm0 86.3a35 35 0 1 1 0-70.2 35 35 0 0 1 0 70.2z"/></svg>