<svg xmlns="http://www.w3.org/2000/svg" width="512" height="512"><circle cx="256" cy="256" r="248.5" fill="#4bc3ef"/><path fill="#1badde" d="M280 480A249 249 0 0 1 93 69a248 248 0 1 0 350 350c-43 38-100 61-163 61z"/><path fill="#fff" d="M352 104h-48c-49 0-88 39-88 88v64h-56c-5 0-8 4-8 8v48c0 5 3 8 8 8h56v144l40 41c14 0 27-2 40-4V320h42c4 0 7-2 8-6l12-48c1-5-3-10-8-10h-54v-64c0-13 11-24 24-24h32c5 0 8-4 8-8v-48c0-5-3-8-8-8z"/><path fill="#e3f5ff" d="M295 479c-16 2-32 2-48 0-4 0-7-4-7-8V320c0-13-11-24-24-24h-32c-5 0-8-4-8-8v-32h-16c-5 0-8 4-8 8v48c0 5 3 8 8 8h56v181a250 250 0 0 0 80 0v-22z"/><path d="M437 75a254 254 0 0 0-362 0 254 254 0 0 0 0 362 254 254 0 0 0 362 0 254 254 0 0 0 0-362zm-11 351c-34 35-76 57-122 66V328h34c7 0 13-5 15-12l12-48a15 15 0 0 0-15-19h-54a8 8 0 0 0 0 15h54c1 0 0 0 0 0l-12 48v1h-42c-4 0-7 3-7 7v175a245 245 0 0 1-203-69 239 239 0 0 1 0-340 239 239 0 0 1 340 0 239 239 0 0 1 0 340z"/><path d="M352 96h-48c-53 0-96 43-96 96v56h-48c-9 0-16 7-16 16v48c0 9 7 16 16 16h48v136a8 8 0 0 0 15 0V320c0-4-3-7-7-7h-56l-1-1v-48l1-1h56c4 0 7-3 7-7v-64c0-45 37-81 81-81h48l1 1v48h-33c-17 0-31 14-31 32v32a8 8 0 0 0 15 0v-32c0-9 7-17 16-17h32c9 0 16-7 16-15v-48c0-9-7-16-16-16z"/></svg>