<svg xmlns="http://www.w3.org/2000/svg" xml:space="preserve" style="enable-background:new 0 0 512 512" viewBox="0 0 512 512"><circle cx="256" cy="256" r="247.9" style="fill:#ef72ad"/><path d="m256 8-32 2a248 248 0 0 1 0 492A248 248 0 1 0 256 8z" style="fill:#ee539e"/><path d="M348 97H164c-37 0-67 30-67 67v184c0 37 30 67 67 67h184c37 0 67-30 67-67V164c0-37-30-67-67-67zm51 251a51 51 0 0 1-51 51H164a51 51 0 0 1-51-51V164a51 51 0 0 1 51-51h184a51 51 0 0 1 51 51v184z" style="fill:#fff"/><circle cx="342.2" cy="159" r="21.6" style="fill:#fff"/><path d="M437 75a254 254 0 0 0-362 0 255 255 0 0 0 0 362 255 255 0 0 0 362 0 255 255 0 0 0 0-362zM256 496a240 240 0 1 1 1-480 240 240 0 0 1-1 480z"/><path d="M348 97H164c-37 0-67 30-67 67v184c0 37 30 67 67 67h184c37 0 67-30 67-67V164c0-37-30-67-67-67zm51 251a51 51 0 0 1-51 51H164a51 51 0 0 1-51-51V164a51 51 0 0 1 51-51h184a51 51 0 0 1 51 51v184z" style="fill:#fff"/><path d="M291 313a68 68 0 0 1-102-59 67 67 0 1 1 127 33 8 8 0 0 0 1 10 8 8 0 0 0 13-2 84 84 0 0 0-70-123 84 84 0 1 0 40 155 8 8 0 0 0 1-13 8 8 0 0 0-10-1z" style="fill:#fff"/><circle cx="342.2" cy="159" r="21.6" style="fill:#fff"/></svg>