<svg xmlns="http://www.w3.org/2000/svg" xml:space="preserve" style="enable-background:new 0 0 512 512" viewBox="0 0 512 512"><circle cx="256" cy="256" r="247.9" style="fill:#ef72ad"/><path d="M256 8c-11 0-21.8.8-32.3 2.2a248 248 0 0 1 0 491.6A248 248 0 1 0 256 8.1z" style="fill:#ee539e"/><path d="M347.8 97H164.2c-37 0-67.2 30.1-67.2 67.2v183.6c0 37 30.1 67.2 67.2 67.2h183.6c37 0 67.2-30.1 67.2-67.2V164.2c0-37-30.1-67.2-67.2-67.2zm51 250.8a51 51 0 0 1-51 51H164.2a51 51 0 0 1-51-51V164.2a51 51 0 0 1 51-51h183.6a51 51 0 0 1 51 51v183.6z" style="fill:#fff"/><circle cx="342.2" cy="159" r="21.6" style="fill:#fff"/><path d="M437 75C388.7 26.6 324.4 0 256 0S123.3 26.6 75 75 0 187.6 0 256s26.6 132.7 75 181 112.6 75 181 75 132.7-26.6 181-75 75-112.6 75-181-26.6-132.7-75-181zM256 495.8C123.8 495.8 16.2 388.2 16.2 256S123.8 16.2 256 16.2 495.8 123.8 495.8 256 388.2 495.8 256 495.8z"/><path d="M347.8 97H164.2c-37 0-67.2 30.1-67.2 67.2v183.6c0 37 30.1 67.2 67.2 67.2h183.6c37 0 67.2-30.1 67.2-67.2V164.2c0-37-30.1-67.2-67.2-67.2zm51 250.8a51 51 0 0 1-51 51H164.2a51 51 0 0 1-51-51V164.2a51 51 0 0 1 51-51h183.6a51 51 0 0 1 51 51v183.6z" style="fill:#fff"/><path d="M291.4 313.3A67.7 67.7 0 0 1 188.6 254a67.4 67.4 0 1 1 127 33.4 8 8 0 0 0 1.3 9.5l.1.1a8 8 0 0 0 12.7-1.8 83.8 83.8 0 0 0-69.8-122.7A83.6 83.6 0 1 0 300 326.9a8 8 0 0 0 1.4-12.4v-.2a8 8 0 0 0-10-1z" style="fill:#fff"/><circle cx="342.2" cy="159" r="21.6" style="fill:#fff"/></svg>