<svg xmlns="http://www.w3.org/2000/svg" xml:space="preserve" style="enable-background:new 0 0 512 512" viewBox="0 0 512 512"><circle cx="256" cy="256" r="247.9" style="fill:#126db1"/><path d="m256 8-32 2a248 248 0 0 1 0 492l32 2a248 248 0 1 0 0-496z" style="fill:#125d95"/><path d="M126 373V215c0-2 1-3 2-3h51c1 0 2 1 2 3v158l-2 2h-51l-2-2zM148 181a33 33 0 1 1 0-66 33 33 0 0 1 0 66zM355 375l-3-2v-56c0-19-4-50-31-50s-32 31-32 50v56c0 1-1 2-3 2h-50l-2-2V215c0-2 1-3 2-3h40c1 0 2 1 2 3v11c0 2 2 3 4 2 15-10 32-16 49-16 25 0 45 10 58 28 12 16 18 37 18 59v74l-2 2h-50z" style="fill:#fff"/><path d="M437 75a254 254 0 0 0-362 0 254 254 0 0 0 0 362 254 254 0 0 0 362 0 254 254 0 0 0 0-362zM256 496a240 240 0 1 1 1-480 240 240 0 0 1-1 480z"/><path d="M181 205h-54c-5 0-8 3-8 8v162c0 4 3 8 8 8h54c4 0 8-4 8-8V213c0-5-4-8-8-8zm-9 161h-37V221h37v145zM148 108a40 40 0 1 0 0 81 40 40 0 0 0 0-81zm0 64a24 24 0 1 1 0-48 24 24 0 0 1 0 48zM331 205c-16 0-31 4-45 12v-4c0-5-4-8-8-8h-44c-4 0-8 3-8 8v162c0 4 4 8 8 8h54c5 0 8-4 8-8v-58c0-19 5-42 25-42 15 0 21 12 23 27 1 4 4 7 8 7 5 0 9-5 8-10-4-26-18-40-39-40-26 0-41 21-41 58v49h-37V221h26v11l3 6c4 3 8 2 11 0 14-11 31-17 48-17 47 0 68 39 68 78v67h-38v-26c0-5-4-8-8-8s-8 3-8 8v35c0 4 4 8 8 8h54c4 0 8-4 8-8v-76c0-55-34-94-84-94z"/></svg>