<svg xmlns="http://www.w3.org/2000/svg" xml:space="preserve" style="enable-background:new 0 0 512 512" viewBox="0 0 512 512"><path d="M256 10a246 246 0 0 0-98 472c0-24 3-48 8-71l26-107v-18l-3-19-1-7v-5c0-19 6-36 16-52 6-9 17-15 29-15h1c15 0 29 10 33 26v1c3 9 3 19 0 29l-18 72a35 35 0 0 0 33 43c46 0 81-48 81-118 0-62-44-105-108-105-74 0-117 55-117 112 0 19 6 39 15 52 3 5 3 11 1 16l-5 16c-3 8-14 11-21 5-23-20-37-58-37-90 0-82 59-157 171-157 90 0 160 64 160 150 0 89-57 161-135 161-20 0-43-12-54-23l-8 28c-7 29-18 57-32 83l-2 4a246 246 0 1 0 65-483z" style="fill:#ff5a5a"/><path d="m158 492-4-1a256 256 0 1 1 280-51 10 10 0 0 1-14-14 236 236 0 1 0-271 40c0-19 3-38 7-57l26-108v-13l-3-20-1-8v-5c0-21 6-40 17-57 9-13 23-20 38-20h1c20 0 38 13 43 33v1c3 11 3 23 0 34l-19 73a25 25 0 0 0 23 30h1c19 0 37-10 50-28 14-20 21-49 21-80 0-56-40-95-98-95-69 0-107 52-107 102 0 16 5 34 13 47 5 7 6 16 3 24l-6 16a23 23 0 0 1-36 10c-24-21-41-61-41-98 0-38 12-75 35-103 24-31 60-51 102-60a10 10 0 1 1 4 20c-74 14-121 70-121 143 0 31 14 66 34 83h2l2-1 6-17c1-2 0-4-1-7-10-15-16-38-16-57 0-31 12-62 34-85 23-24 56-37 93-37 33 0 64 11 85 32s33 50 33 83c0 74-38 128-91 128h-1c-13 0-26-6-34-17-9-11-12-25-8-38l18-73c2-8 2-16 0-24v-1c-3-11-12-18-23-18h-1c-9 0-16 4-21 11-9 13-14 29-14 46v5l1 5 3 20c1 7 1 14-1 21l-25 108c-5 22-8 45-8 68a10 10 0 0 1-10 10zM391 472a10 10 0 0 1-5-19 10 10 0 1 1 11 17l-6 2z"/><path d="M256 512c-23 0-46-3-68-9-3-1-5-3-6-6s-1-6 0-8l2-5c14-25 25-53 32-81l7-28a10 10 0 0 1 17-4c10 9 30 20 47 20 71 0 125-65 125-151 0-64-44-118-109-135a10 10 0 0 1 5-19c36 9 66 28 89 55 22 28 35 62 35 99 0 46-15 89-41 120-26 33-63 51-104 51-17 0-35-7-48-16l-4 13c-7 27-17 54-29 79a237 237 0 0 0 134-11 10 10 0 0 1 7 19c-29 11-59 17-91 17zM264 100h-2a10 10 0 0 1 0-20h2a10 10 0 0 1 0 20z"/></svg>