<svg viewBox="0 0 512 512" xmlns="http://www.w3.org/2000/svg"><path d="M256 0a256 256 0 1 0 0 512 256 256 0 0 0 0-512z"/><path d="M259 450c-58 0-103-19-133-57-26-33-40-79-40-137s14-104 40-137c30-38 75-57 133-57 45 0 82 11 111 34 27 21 46 50 56 88l-33 9c-17-64-63-97-134-97-47 0-83 15-106 44-22 27-33 66-33 116s11 89 33 116c23 29 59 44 106 44 42 0 71-10 94-33 27-26 26-58 18-78-5-11-15-21-27-28-3 22-10 40-21 53a79 79 0 0 1-60 29c-20 1-38-4-53-13a60 60 0 0 1-7-98c15-12 35-20 58-21 18-1 34 0 49 2-2-12-6-21-12-28-8-10-21-14-38-14h-1c-13 0-32 3-44 21l-28-19c16-24 41-37 72-37h1c52 1 83 32 86 87l5 3c24 11 42 28 51 49 13 30 14 78-25 116-30 30-66 43-118 43zm16-189h-12c-29 2-48 16-47 35 1 20 24 30 45 29 20-1 46-9 50-60-11-3-23-4-36-4z" fill="#fff"/></svg>