<?xml version="1.0" encoding="UTF-8"?>
<svg id="Calque_1" data-name="Calque 1" xmlns="http://www.w3.org/2000/svg" viewBox="0 0 279.3 162.78">
  <defs>
    <style>
      .cls-1 {
        fill: #fefefe;
      }

      .cls-1, .cls-2, .cls-3, .cls-4 {
        stroke-width: 0px;
      }

      .cls-2 {
        fill: #fefdfe;
      }

      .cls-3 {
        fill: #d74759;
      }

      .cls-4 {
        fill: #fefdfd;
      }
    </style>
  </defs>
  <path class="cls-3" d="m139.31,2.05c36.81,0,73.61-.01,110.42,0,16.91,0,26.62,9.74,26.62,26.64,0,35.3,0,70.6,0,105.9,0,15.87-9.81,26.05-25.77,26.07-74.45.1-148.89.1-223.34,0-14.52-.02-24.62-10.6-24.63-25.18-.03-35.97-.02-71.93,0-107.9,0-15.2,10.06-25.47,25.28-25.5,37.14-.08,74.28-.03,111.42-.03Z"/>
  <path class="cls-1" d="m160.78,123.91c6.72-.21,6.9,3.91,6.64,9.13-.4,8.06-.11,8.07-8.24,8.07-8.66,0-17.32-.13-25.97.07-3.14.07-4.17-.94-3.86-3.97.22-2.14.35-4.38-.02-6.48-.72-4.1.64-6.41,4.88-6.82-.34-.55-.56-1.14-.67-1.77-.17-16.78-.16-33.57,0-50.35.1-.63.32-1.23.65-1.78-4.32-.36-5.05-2.78-4.91-6.82.36-10.47.12-10.48,10.82-10.48,4.82,0,9.64-.02,14.46.01,1.15,0,3.05-.19,3.33.35,2.58,5.06,5.5,1.75,8.34.53,12.93-5.56,28.9.17,35.27,13.15,5.75,11.72,5.93,23.9-.1,35.52-6.49,12.51-19.55,17.5-34.24,13.26-6.85-1.98-6.81-2.11-6.71,4.96.01.83.12,1.65.18,2.48.22.17.32.37.29.59-.02.23-.06.34-.12.34Z"/>
  <path class="cls-1" d="m44.38,69.99c-1.93-1.98-4.46-.27-6.58-1.07-1.39-5.29-1.16-10.59-.09-15.89,2.1-.93,4.59.55,6.58-1.07-.33-.49-.56-1.03-.69-1.61.3-3.1-1.27-6.43,1.18-9.26,7.83-2.26,15.39-5.41,23.41-7.04,1.76,5.32.28,10.78.76,16.16.05.62-.08,1.21-.38,1.76,3.79,1.75,7.89.01,11.74,1.05.94,5.31,1.18,10.62-.08,15.92-3.88.81-7.99-.94-11.76,1.04.37.53.54,1.12.48,1.76-.21,8.73.47,17.47-.38,26.19.31,3.47,2.69,3.41,5.27,3.18,2.22-.2,4.2-1.8,6.56-1.14.9,4.96.89,9.92,0,14.88-3,2.36-6.4,2.29-10.2,2.94-1.48.17-.6.08-1.72.18-2.3-.07-4.62-.03-6.91-.22-10.64-.87-15.27-5.55-16.25-16.22-.15-1.63-.46-3.24-.7-4.85-.69-4.31-1.01-7.08-1.09-10.65-.12-4.78-.19-9.57.08-14.35.14-.62.4-1.18.77-1.69Z"/>
  <path class="cls-1" d="m90.52,115.62c-.01-4.32.25-8.66-.13-12.95-.3-3.43,1.43-3.91,4.05-3.87,1.12-7.44.24-14.92.55-22.37.09-2.14-.41-4.31.38-6.41-6.02-.69-4.95-5.11-4.91-9.13.08-8.18.02-8.18,8-8.18,5.65,0,11.3.22,16.93-.08,3.64-.19,4.4,1.2,4.35,4.55-.18,12.28-.04,24.57-.1,36.85-.01,2.78-.38,5.51,3.87,4.91,2.18-.31,2.22,1.3,2.3,2.9.2,4.12-.56,8.28.46,12.37,0,0-.04.46-.04.46-.27.36-.55.72-.82,1.09-3.35,1.37-6.85.56-10.27.63-6.82.14-13.64.09-20.46,0-1.39-.02-3.02.75-4.16-.78Z"/>
  <path class="cls-1" d="m241.29,51.78c-1.99,9.06-4.14,18.09-5.89,27.19-.63,3.27-1.94,4.24-5.22,4.23-12.46-.04-12.45.08-15.2-12.04-.4-1.76-.97-3.48-1.46-5.21-1.21-3.11-1.13-3.07-1.55-4.75-.6-2.38-.93-4.71-1.39-7.19-.06-.67-.16-1.17-.18-2.02-.71-7.99-.93-15.98.13-23.96,10.21-.42,20.41-.47,30.62.02,1.25,7.9,1.06,15.82.14,23.73Z"/>
  <path class="cls-2" d="m227.18,89.09c10.82,3.73,12.71,6.31,12.37,16.84-.38,4.07-2.29,6.9-6.43,7.92-4.62,1.74-9.23,2.56-14.1.76-5.42-2-8.48-5.9-8.62-11.45-.13-5.33,1.52-10.16,7.31-12.26.61-.22,1.14-.67,1.71-1.02,2.43-1.83,5.04-1.82,7.76-.79Z"/>
  <path class="cls-4" d="m111.17,47.01c-4.01.2-7.21,1.1-11.04-1.7-4.62-3.38-6.34-7.4-5.91-12.52.44-5.29,3.8-8.71,8.69-10.47,4.72-1.7,12.96.1,15.32,3.15,3.86,4.99,4.17,10.86,1.37,16.3-1.76,3.42-2.29,3.14-6.17,4.75l-2.27.49Z"/>
  <path class="cls-3" d="m174.5,72.84c5.22,7.41,4.92,15.26,1.35,23.07-2.07,4.52-5.27,5.28-9.65,3.19-2.42-1.31-1.97-1.11-3.4-2.23-1.29-1.25-1.13-3.36-1.25-4.94.19-5.31-.81-10.7,1-15.92,1.46-5.88,4.88-7.62,10.05-5.12,1.07.75,1.15,1.08,1.91,1.94Z"/>
</svg>