<svg xmlns="http://www.w3.org/2000/svg" xml:space="preserve" style="enable-background:new 0 0 512 512" viewBox="0 0 512 512"><circle cx="256" cy="256" r="247.9" style="fill:#78baeb"/><path d="m256 8-32 2a248 248 0 0 1 0 492l32 2a248 248 0 1 0 0-496z" style="fill:#59aae7"/><path d="M208 397c-23 0-45-4-67-13l-21-8c-2 0-2-4 1-4l22-4c21-4 40-12 57-24 1-2 1-4-1-5-20-3-37-14-47-32l-5-8c-1-2 0-4 2-4h10c3-1 3-4 1-5-18-9-32-26-35-46l-2-9c0-2 1-4 3-3l9 2 15 2a66 66 0 0 1-28-74l2-10c1-2 3-2 4-1l8 7a190 190 0 0 0 108 53 406 406 0 0 1 3-1 73 73 0 0 1 125-52h2c7-1 14-2 21-5l23-7c2-1 4 2 2 4l-16 17-7 7c-2 2 0 5 2 4l7-1 20-5c3-1 4 2 3 4l-15 15-20 17v3c0 102-84 186-186 186z" style="fill:#fcfcfc"/><path d="M437 75a254 254 0 0 0-362 0 254 254 0 0 0 0 362 254 254 0 0 0 362 0 254 254 0 0 0 0-362zM256 496a240 240 0 1 1 1-480 240 240 0 0 1-1 480z"/><path d="M436 162c-2-2-6-2-9-1l-12 5c4-5 7-12 10-19 1-3 0-6-2-8-2-3-6-4-10-2-11 7-24 11-38 14a81 81 0 0 0-135 53l-30-8c-29-10-56-28-77-51-1-2-3-3-5-3-3-1-7 1-8 4a74 74 0 0 0 6 77 8 8 0 0 0-10 8v2c0 22 10 42 26 55a8 8 0 0 0-3 9c7 23 25 40 47 47a126 126 0 0 1-72 18c-4 0-8 3-9 7 0 3 1 7 4 8a194 194 0 0 0 212-10c4-2 5-8 1-12-3-3-7-3-10-1a177 177 0 0 1-167 22c24-4 47-14 66-30 2-2 3-5 3-8-1-4-4-7-8-7-20 0-37-11-47-28l14-2c3 0 6-3 6-7 1-4-2-7-6-8-21-6-36-23-40-44 6 2 13 2 19 2 4 0 8-3 8-7 0-3-1-6-4-8a58 58 0 0 1-26-64 198 198 0 0 0 114 55h4a8 8 0 0 0 8-8v-2a65 65 0 0 1 111-45c2 2 4 3 7 2l24-5c-4 4-9 8-15 11-3 2-5 7-3 10v1c1 3 5 5 8 4 7 0 13-1 20-3l-19 16c-2 2-4 4-4 7v1l1 1v1c-1 45-18 87-46 118-3 3-3 8 0 11 4 3 9 3 12 0 32-35 49-80 50-128 14-11 26-24 36-39 2-3 1-8-2-11z"/></svg>