<?xml version="1.0" encoding="UTF-8" standalone="no"?>
<!-- Created with Inkscape (http://www.inkscape.org/) -->

<svg
   version="1.1"
   id="svg6159"
   xml:space="preserve"
   width="682.66669"
   height="682.66669"
   viewBox="0 0 682.66669 682.66669"
   xmlns="http://www.w3.org/2000/svg"
   xmlns:svg="http://www.w3.org/2000/svg"><defs
     id="defs6163"><clipPath
       clipPathUnits="userSpaceOnUse"
       id="clipPath6173"><path
         d="M 0,512 H 512 V 0 H 0 Z"
         id="path6171" /></clipPath></defs><g
     id="g6165"
     transform="matrix(1.3333333,0,0,-1.3333333,0,682.66667)"><g
       id="g6167"><g
         id="g6169"
         clip-path="url(#clipPath6173)"><g
           id="g6175"
           transform="translate(299.9648,504.5)"><path
             d="m 0,0 h -87.93 c -22.652,0 -39.311,-21.233 -33.921,-43.235 l 10.983,-44.83 H 22.938 l 10.983,44.83 C 39.312,-21.233 22.653,0 0,0"
             style="fill:#f9d888;fill-opacity:1;fill-rule:nonzero;stroke:none"
             id="path6177" /></g><g
           id="g6179"
           transform="translate(68.0742,176.7588)"><path
             d="m 0,0 c -7.17,32.824 9.293,66.245 39.7,80.555 l 49.429,23.258 c 24.745,11.649 39.063,38.022 35.343,65.123 l -3.864,28.162 h 134.635 l -3.863,-28.162 c -3.721,-27.101 10.598,-53.474 35.343,-65.123 L 336.151,80.555 C 366.559,66.245 383.021,32.824 375.852,0 L 311.047,-96.705 H 71.303 Z"
             style="fill:#b9ebc2;fill-opacity:1;fill-rule:nonzero;stroke:none"
             id="path6181" /></g><g
           id="g6183"
           transform="translate(110.4141,178.3613)"><path
             d="M 0,0 C 0,31.251 6.143,61.063 17.262,88.316 L -2.64,78.952 C -33.047,64.643 -49.51,31.222 -42.34,-1.603 l 55.079,-74.7 C 4.49,-52.387 0,-26.719 0,0"
             style="fill:#8bdf9e;fill-opacity:1;fill-rule:nonzero;stroke:none"
             id="path6185" /></g><g
           id="g6187"
           transform="translate(443.9258,176.7588)"><path
             d="m 0,0 -21.307,-97.462 c -9.161,-41.915 -46.273,-71.797 -89.179,-71.797 h -154.879 c -42.906,0 -80.019,29.882 -89.18,71.797 L -375.852,0 C -251.491,63.414 -123.824,-73.142 0,0"
             style="fill:#5c586f;fill-opacity:1;fill-rule:nonzero;stroke:none"
             id="path6189" /></g><g
           id="g6191"
           transform="translate(256,247.6797)"><path
             d="m 0,0 v 0 c -64.409,0 -116.623,-44.621 -116.623,-109.03 0,-31.389 25.445,-56.833 56.833,-56.833 h 2.063 c 4.404,0 7.973,-3.571 7.973,-7.973 v -10e-4 c 0,-12.228 9.914,-22.142 22.143,-22.142 h 3.129 l 7.5,3.169 7.5,-3.169 H 9.482 l 7.5,3.352 7.5,-3.352 h 3.129 c 12.23,0 22.143,9.914 22.143,22.142 v 10e-4 c 0,4.402 3.569,7.973 7.973,7.973 h 2.063 c 31.388,0 56.833,25.444 56.833,56.833 C 116.623,-44.621 64.409,0 0,0"
             style="fill:#ffffff;fill-opacity:1;fill-rule:nonzero;stroke:none"
             id="path6193" /></g><g
           id="g6195"
           transform="translate(198.7979,333.7412)"><path
             d="m 0,0 h 114.404 c 1.944,0 3.862,0.102 5.759,0.279 -0.194,3.849 -0.045,7.752 0.493,11.674 l 3.864,28.162 H -10.115 L -6.252,11.953 C -5.714,8.031 -5.564,4.128 -5.759,0.279 -3.861,0.102 -1.942,0 0,0"
             style="fill:#8bdf9e;fill-opacity:1;fill-rule:nonzero;stroke:none"
             id="path6197" /></g><g
           id="g6199"
           transform="translate(217.4463,436.4316)"><path
             d="m 0,0 c 0,25.492 8.329,49.036 22.409,68.068 h -27.82 c -22.652,0 -39.312,-21.233 -33.921,-43.235 l 10.982,-44.83 H 1.742 C 0.599,-13.503 0,-6.822 0,0"
             style="fill:#f5c956;fill-opacity:1;fill-rule:nonzero;stroke:none"
             id="path6201" /></g><g
           id="g6203"
           transform="translate(313.2021,426.2939)"><path
             d="m 0,0 h -114.404 c -17.274,0 -31.277,-14.003 -31.277,-31.276 0,-17.274 14.003,-31.277 31.277,-31.277 H 0 c 17.273,0 31.276,14.003 31.276,31.277 C 31.276,-14.003 17.273,0 0,0"
             style="fill:#b9ebc2;fill-opacity:1;fill-rule:nonzero;stroke:none"
             id="path6205" /></g><g
           id="g6207"
           transform="translate(110.4141,178.3613)"><path
             d="M 0,0 C 0,4.329 0.126,8.627 0.358,12.897 -13.91,10.261 -28.146,5.635 -42.34,-1.603 l 21.307,-97.461 c 9.161,-41.915 46.273,-71.797 89.179,-71.797 h 6.018 C 28.53,-128.169 0,-67.421 0,0"
             style="fill:#4f4c5f;fill-opacity:1;fill-rule:nonzero;stroke:none"
             id="path6209" /></g><g
           id="g6211"
           transform="translate(172.0762,121.4346)"><path
             d="M 0,0 C 0,53.865 29.408,100.858 73.044,125.809 13.737,121.09 -32.699,77.954 -32.699,17.215 c 0,-24.505 15.51,-45.387 37.248,-53.367 C 1.579,-24.597 0,-12.482 0,0"
             style="fill:#e8e8e8;fill-opacity:1;fill-rule:nonzero;stroke:none"
             id="path6213" /></g><g
           id="g6215"
           transform="translate(239.0176,51.7012)"><path
             d="M 0,0 V 28.353"
             style="fill:none;stroke:#000000;stroke-width:15;stroke-linecap:round;stroke-linejoin:round;stroke-miterlimit:10;stroke-dasharray:none;stroke-opacity:1"
             id="path6217" /></g><g
           id="g6219"
           transform="translate(272.9824,51.7012)"><path
             d="M 0,0 V 28.353"
             style="fill:none;stroke:#000000;stroke-width:15;stroke-linecap:round;stroke-linejoin:round;stroke-miterlimit:10;stroke-dasharray:none;stroke-opacity:1"
             id="path6221" /></g><g
           id="g6223"
           transform="translate(197.71,120.8994)"><path
             d="M 0,0 V -11.2"
             style="fill:none;stroke:#000000;stroke-width:15;stroke-linecap:round;stroke-linejoin:round;stroke-miterlimit:10;stroke-dasharray:none;stroke-opacity:1"
             id="path6225" /></g><g
           id="g6227"
           transform="translate(314.29,120.8994)"><path
             d="M 0,0 V -11.2"
             style="fill:none;stroke:#000000;stroke-width:15;stroke-linecap:round;stroke-linejoin:round;stroke-miterlimit:10;stroke-dasharray:none;stroke-opacity:1"
             id="path6229" /></g><g
           id="g6231"
           transform="translate(187.2256,424.0742)"><path
             d="m 0,0 c 3.58,1.427 7.482,2.22 11.572,2.22 h 114.405 c 4.089,0 7.991,-0.793 11.572,-2.22 l 9.111,37.19 c 5.391,22.003 -11.268,43.236 -33.921,43.236 H 24.81 C 2.156,80.426 -14.502,59.193 -9.112,37.19 Z"
             style="fill:none;stroke:#000000;stroke-width:15;stroke-linecap:round;stroke-linejoin:round;stroke-miterlimit:10;stroke-dasharray:none;stroke-opacity:1"
             id="path6233" /></g><g
           id="g6235"
           transform="translate(313.2021,426.2939)"><path
             d="m 0,0 h -114.404 c -17.274,0 -31.277,-14.003 -31.277,-31.276 0,-17.274 14.003,-31.277 31.277,-31.277 H 0 c 17.273,0 31.276,14.003 31.276,31.277 C 31.276,-14.003 17.273,0 0,0 Z"
             style="fill:none;stroke:#000000;stroke-width:15;stroke-linecap:round;stroke-linejoin:round;stroke-miterlimit:10;stroke-dasharray:none;stroke-opacity:1"
             id="path6237" /></g><g
           id="g6239"
           transform="translate(404.5,41.4932)"><path
             d="m 0,0 c 8.678,10.754 15.011,23.583 18.119,37.804 l 21.307,97.462 c -24.025,-14.191 -48.194,-20.486 -72.455,-21.88 0.753,-5.253 1.151,-10.666 1.151,-16.23 0,-31.387 -25.444,-56.833 -56.833,-56.833 h -2.062 c -4.404,0 -7.974,-3.57 -7.974,-7.972 0,-12.229 -9.913,-22.143 -22.142,-22.143 h -55.223 c -12.229,0 -22.142,9.914 -22.142,22.143 0,4.402 -3.569,7.972 -7.973,7.972 h -2.063 c -31.388,0 -56.833,25.446 -56.833,56.833 0,20.69 5.394,39.332 14.844,55.115 -28.833,1.573 -57.577,-2.437 -86.148,-17.005 l 21.307,-97.462 c 9.162,-41.915 46.274,-71.797 89.181,-71.797 h 154.878 c 18.504,0 35.923,5.568 50.495,15.251"
             style="fill:none;stroke:#000000;stroke-width:15;stroke-linecap:round;stroke-linejoin:round;stroke-miterlimit:10;stroke-dasharray:none;stroke-opacity:1"
             id="path6241" /></g><g
           id="g6243"
           transform="translate(208.8457,239.0156)"><path
             d="m 0,0 c 14.419,5.623 30.368,8.664 47.154,8.664 58.845,0 107.501,-37.249 115.471,-92.801 24.262,1.395 48.431,7.69 72.455,21.88 7.17,32.824 -9.293,66.245 -39.7,80.555 l -49.429,23.258 c -24.745,11.649 -39.064,38.022 -35.343,65.123 l 2.654,19.341 c -2.824,-0.838 -5.811,-1.294 -8.906,-1.294 H -10.048 c -3.095,0 -6.082,0.456 -8.905,1.294 L -16.3,106.679 C -12.579,79.578 -26.897,53.205 -51.643,41.556 l -49.428,-23.258 c -30.408,-14.31 -46.87,-47.731 -39.701,-80.555 28.57,14.569 57.314,18.578 86.147,17.006 7.604,12.703 17.846,23.544 30.021,32.108"
             style="fill:none;stroke:#000000;stroke-width:15;stroke-linecap:round;stroke-linejoin:round;stroke-miterlimit:10;stroke-dasharray:none;stroke-opacity:1"
             id="path6245" /></g><g
           id="g6247"
           transform="translate(184.2383,225.8848)"><path
             d="m 0,0 c -27.306,-19.199 -44.861,-49.891 -44.861,-87.235 0,-31.388 25.445,-56.833 56.833,-56.833 h 2.063 c 4.403,0 7.973,-3.571 7.973,-7.973 0,-12.229 9.913,-22.143 22.141,-22.143 h 55.224 c 12.229,0 22.142,9.914 22.142,22.143 0,4.402 3.57,7.973 7.973,7.973 h 2.063 c 31.388,0 56.833,25.445 56.833,56.833 0,64.409 -52.213,109.03 -116.622,109.03 -16.786,0 -32.741,-3.037 -47.161,-8.658"
             style="fill:none;stroke:#000000;stroke-width:15;stroke-linecap:round;stroke-linejoin:round;stroke-miterlimit:10;stroke-dasharray:none;stroke-opacity:1"
             id="path6249" /></g></g></g></g></svg>
