<svg xmlns="http://www.w3.org/2000/svg" xml:space="preserve" width="682.7" height="682.7"><defs><clipPath id="a" clipPathUnits="userSpaceOnUse"><path d="M0 512h512V0H0Z"/></clipPath></defs><g clip-path="url(#a)" transform="matrix(1.3333333 0 0 -1.3333333 0 683)"><path d="M0 0h-88c-23 0-39-21-34-43l11-45H23l11 45C39-21 23 0 0 0" style="fill:#f9d888;fill-opacity:1;fill-rule:nonzero;stroke:none" transform="translate(300 505)"/><path d="M0 0c-7 33 9 66 40 81l49 23c25 11 39 38 35 65l-3 28h134l-4-28c-3-27 11-54 36-65l49-23c31-15 47-48 40-81l-65-97H71Z" style="fill:#b9ebc2;fill-opacity:1;fill-rule:nonzero;stroke:none" transform="translate(68 177)"/><path d="M0 0c0 31 6 61 17 88l-20-9A72 72 0 0 1-42-2l55-74C4-52 0-27 0 0" style="fill:#8bdf9e;fill-opacity:1;fill-rule:nonzero;stroke:none" transform="translate(110 178)"/><path d="m0 0-21-97c-9-42-47-72-89-72h-155c-43 0-80 30-90 72l-21 97C-251 63-124-73 0 0" style="fill:#5c586f;fill-opacity:1;fill-rule:nonzero;stroke:none" transform="translate(444 177)"/><path d="M0 0c-64 0-117-45-117-109 0-31 26-57 57-57h2c5 0 8-3 8-8 0-12 10-22 22-22h4l7 3 8-3H9l8 3 7-3h4c12 0 22 10 22 22 0 5 3 8 8 8h2c31 0 57 26 57 57C117-45 64 0 0 0" style="fill:#fff;fill-opacity:1;fill-rule:nonzero;stroke:none" transform="translate(256 248)"/><path d="M0 0h120l1 12 4 28H-10l4-28V0h6" style="fill:#8bdf9e;fill-opacity:1;fill-rule:nonzero;stroke:none" transform="translate(199 334)"/><path d="M0 0c0 25 8 49 22 68H-5c-23 0-40-21-34-43l11-45H2L0 0" style="fill:#f5c956;fill-opacity:1;fill-rule:nonzero;stroke:none" transform="translate(217 436)"/><path d="M0 0h-114a31 31 0 1 1 0-63H0A31 31 0 0 1 0 0" style="fill:#b9ebc2;fill-opacity:1;fill-rule:nonzero;stroke:none" transform="translate(313 426)"/><path d="M0 0v13c-14-3-28-7-42-15l21-97c9-42 46-72 89-72h6C29-128 0-67 0 0" style="fill:#4f4c5f;fill-opacity:1;fill-rule:nonzero;stroke:none" transform="translate(110 178)"/><path d="M0 0c0 54 29 101 73 126C14 121-33 78-33 17c0-24 16-45 38-53C2-25 0-12 0 0" style="fill:#e8e8e8;fill-opacity:1;fill-rule:nonzero;stroke:none" transform="translate(172 121)"/><path d="M0 0v28" style="fill:none;stroke:#000;stroke-width:15;stroke-linecap:round;stroke-linejoin:round;stroke-miterlimit:10;stroke-dasharray:none;stroke-opacity:1" transform="translate(239 52)"/><path d="M0 0v28" style="fill:none;stroke:#000;stroke-width:15;stroke-linecap:round;stroke-linejoin:round;stroke-miterlimit:10;stroke-dasharray:none;stroke-opacity:1" transform="translate(273 52)"/><path d="M0 0v-11" style="fill:none;stroke:#000;stroke-width:15;stroke-linecap:round;stroke-linejoin:round;stroke-miterlimit:10;stroke-dasharray:none;stroke-opacity:1" transform="translate(198 121)"/><path d="M0 0v-11" style="fill:none;stroke:#000;stroke-width:15;stroke-linecap:round;stroke-linejoin:round;stroke-miterlimit:10;stroke-dasharray:none;stroke-opacity:1" transform="translate(314 121)"/><path d="m0 0 12 2h114l12-2 9 37c5 22-12 43-34 43H25C2 80-15 59-9 37Z" style="fill:none;stroke:#000;stroke-width:15;stroke-linecap:round;stroke-linejoin:round;stroke-miterlimit:10;stroke-dasharray:none;stroke-opacity:1" transform="translate(187 424)"/><path d="M0 0h-114a31 31 0 1 1 0-63H0A31 31 0 0 1 0 0Z" style="fill:none;stroke:#000;stroke-width:15;stroke-linecap:round;stroke-linejoin:round;stroke-miterlimit:10;stroke-dasharray:none;stroke-opacity:1" transform="translate(313 426)"/><path d="M0 0c9 11 15 24 18 38l21 97c-24-14-48-20-72-22l1-16c0-31-25-57-57-57h-2c-4 0-8-3-8-8 0-12-10-22-22-22h-55c-12 0-22 10-22 22 0 5-4 8-8 8h-2c-32 0-57 26-57 57 0 21 5 39 15 55-29 2-58-2-86-17l21-97c9-42 46-72 89-72h155c18 0 36 6 50 15" style="fill:none;stroke:#000;stroke-width:15;stroke-linecap:round;stroke-linejoin:round;stroke-miterlimit:10;stroke-dasharray:none;stroke-opacity:1" transform="translate(405 41)"/><path d="M0 0c14 6 30 9 47 9 59 0 108-38 116-93 24 1 48 8 72 22 7 33-9 66-40 80l-49 24a63 63 0 0 0-35 65l2 19-9-1H-10l-9 1 3-19c3-27-11-54-36-65l-49-24a72 72 0 0 1-40-80c29 14 58 18 86 17 8 12 18 23 30 32" style="fill:none;stroke:#000;stroke-width:15;stroke-linecap:round;stroke-linejoin:round;stroke-miterlimit:10;stroke-dasharray:none;stroke-opacity:1" transform="translate(209 239)"/><path d="M0 0c-27-19-45-50-45-87 0-32 26-57 57-57h2c4 0 8-4 8-8 0-12 10-22 22-22h55c13 0 23 10 23 22 0 4 3 8 7 8h3c31 0 56 25 56 57 0 64-52 109-116 109-17 0-33-3-47-9" style="fill:none;stroke:#000;stroke-width:15;stroke-linecap:round;stroke-linejoin:round;stroke-miterlimit:10;stroke-dasharray:none;stroke-opacity:1" transform="translate(184 226)"/></g></svg>