<svg xmlns="http://www.w3.org/2000/svg" width="512" height="512"><path fill="#ff6f4d" d="M256 281.1a46 46 0 0 1 0-92V84A151.3 151.3 0 0 0 104.9 235c0 77.2 58.2 141 133 150h60V254.2a46.2 46.2 0 0 1-41.9 26.9z"/><path fill="#ff8f71" d="M256 84a74.1 74.1 0 0 0 0 105.1 46 46 0 0 1 41.9 65l-60 131-20.5 45a52.6 52.6 0 0 0 95.6 43.7l80.4-175.9A151.3 151.3 0 0 0 256 84z"/><path fill="#8288cb" d="m247.2 139.2 8.6.1c30 0 59.5-5.8 87-17a513.9 513.9 0 0 1 8.7-81 18.5 18.5 0 0 0-12.6-21 275.1 275.1 0 0 0-89.6-12.7l-24 8v110.1z"/><path fill="#676fb2" d="M234.7 39.4a30.3 30.3 0 0 1 14.6-31.8c-25.8.6-51.4 4.8-76.2 12.6a18.5 18.5 0 0 0-12.6 21 513.4 513.4 0 0 1 8.5 81.2 232.5 232.5 0 0 0 78.2 16.8 839 839 0 0 0-12.5-99.8z"/><path fill="#676fb2" d="M255.8 159.2c-39 0-77-9.2-111.9-26.4a21.3 21.3 0 1 1 18.8-38.2c29 14.5 60.3 21.8 93.1 21.8 32.9 0 64.3-7.4 93.3-21.9a21.3 21.3 0 1 1 19 38.2 251.4 251.4 0 0 1-112.3 26.5z"/><g fill="#ffdbe0"><path d="M180.8 298.2c-13.8 0-25 8.9-25 19.9s11.2 19.9 25 19.9 25-9 25-19.9c0-11-11.2-20-25-20zM331.2 298.2c-13.8 0-25 8.9-25 19.9 0 11 11.2 19.9 25 19.9s25-9 25-19.9-11.2-20-25-20z"/></g><path d="M186 292.3v12a7.5 7.5 0 1 0 15 0v-12a7.5 7.5 0 1 0-15 0zM310.9 292.3v12a7.5 7.5 0 1 0 15 0v-12a7.5 7.5 0 1 0-15 0zM277.5 311.5a7 7 0 0 1-14 0 7.5 7.5 0 1 0-15 0 7 7 0 0 1-13.8 0 7.5 7.5 0 1 0-15 0A22 22 0 0 0 256 328a22 22 0 0 0 36.4-16.5 7.5 7.5 0 1 0-15 0z"/><path d="M378.5 134.5a28.8 28.8 0 0 0-25.7-49.1c1.4-14.5 3.4-28.6 6-42.8a26 26 0 0 0-17.7-29.5 282.3 282.3 0 0 0-170.3 0 26 26 0 0 0-17.7 29.6l1.4 7.6a7.5 7.5 0 0 0 14.8-2.5l-1.5-7.9a11 11 0 0 1 7.5-12.5 270 270 0 0 1 161.3 0 11 11 0 0 1 7.5 12.5 514 514 0 0 0-7 52 201.8 201.8 0 0 1-162.2 0 538 538 0 0 0-1.4-14 7.5 7.5 0 0 0-15 1.6l.7 6a28.8 28.8 0 0 0-25.8 49A158.7 158.7 0 0 0 227 391l-16.4 36a60.1 60.1 0 0 0 109.2 50l26.3-57.5a7.5 7.5 0 0 0-13.7-6.3l-26.2 57.5a45.1 45.1 0 0 1-82-37.5l24-52.5a7.5 7.5 0 0 0-13.6-6.2l-1.1 2.4a143.6 143.6 0 0 1-87-234.6 258.2 258.2 0 0 0 219 0 143.4 143.4 0 0 1 21.1 152.5L345 386a7.5 7.5 0 0 0 13.7 6.2l41.7-91.1a158.4 158.4 0 0 0-21.8-166.6zM147.2 126a13.8 13.8 0 1 1 12.2-24.8 216.7 216.7 0 0 0 193 0 13.8 13.8 0 1 1 11.6 25.1c-64.6 31.8-141.2 35.6-216.8-.3z"/><path d="M309.5 235.1a53.5 53.5 0 0 0-53.4-53.5h-.1a53.6 53.6 0 1 0 53.5 53.5zM256 273.6a38.5 38.5 0 1 1 0-77 38.5 38.5 0 0 1 0 77z"/></svg>