<?xml version="1.0" encoding="UTF-8" standalone="no"?>
<!-- Created with Inkscape (http://www.inkscape.org/) -->

<svg
   version="1.1"
   id="svg219"
   xml:space="preserve"
   width="682.66669"
   height="682.66669"
   viewBox="0 0 682.66669 682.66669"
   xmlns="http://www.w3.org/2000/svg"
   xmlns:svg="http://www.w3.org/2000/svg"><defs
     id="defs223"><clipPath
       clipPathUnits="userSpaceOnUse"
       id="clipPath233"><path
         d="M 0,512 H 512 V 0 H 0 Z"
         id="path231" /></clipPath></defs><g
     id="g225"
     transform="matrix(1.3333333,0,0,-1.3333333,0,682.66667)"><g
       id="g227"><g
         id="g229"
         clip-path="url(#clipPath233)"><g
           id="g235"
           transform="translate(8.7178,257.6865)"><path
             d="m 0,0 v -244.999 c 0,-2.863 2.331,-5.188 5.172,-5.188 h 340.074 c -34.36,20.608 -82.418,92.438 0,138.303 C 262.828,-99.213 252.597,-68.032 263.737,0 212.837,-48.728 150.938,-20.721 131.869,42.747 113.396,3.94 78.78,-65.168 0,0"
             style="fill:#eb5569;fill-opacity:1;fill-rule:evenodd;stroke:none"
             id="path237" /></g><g
           id="g239"
           transform="translate(391.5918,56.0859)"><path
             d="M 0,0 111.69,10.318 100.408,68.003 -5.514,28.233 Z"
             style="fill:#ffc344;fill-opacity:1;fill-rule:evenodd;stroke:none"
             id="path241" /></g><g
           id="g243"
           transform="translate(323.8955,220.4961)"><path
             d="m 0,0 18.217,-22.337 123.826,81.326 -37.174,45.61 z"
             style="fill:#ffc344;fill-opacity:1;fill-rule:evenodd;stroke:none"
             id="path245" /></g><g
           id="g247"
           transform="translate(307.6387,503.6777)"><path
             d="M 0,0 -110.439,-199.446 -85.657,-214.129 69.8,-49.096 Z"
             style="fill:#ffc344;fill-opacity:1;fill-rule:evenodd;stroke:none"
             id="path249" /></g><g
           id="g251"
           transform="translate(52.4844,504.5)"><path
             d="M 0,0 10.032,-199.049 H 38.878 L 58.915,0 Z"
             style="fill:#ffc344;fill-opacity:1;fill-rule:evenodd;stroke:none"
             id="path253" /></g><g
           id="g255"
           transform="translate(173.0991,413.9893)"><path
             d="M 0,0 -13.841,-68.542"
             style="fill:none;stroke:#000000;stroke-width:15;stroke-linecap:round;stroke-linejoin:round;stroke-miterlimit:10;stroke-dasharray:none;stroke-opacity:1"
             id="path257" /></g><g
           id="g259"
           transform="translate(402.4199,384.2822)"><path
             d="M 0,0 -90.319,-94.734"
             style="fill:none;stroke:#000000;stroke-width:15;stroke-linecap:round;stroke-linejoin:round;stroke-miterlimit:10;stroke-dasharray:none;stroke-opacity:1"
             id="path261" /></g><g
           id="g263"
           transform="translate(460.1123,184.9492)"><path
             d="M 0,0 -57.692,-30.982"
             style="fill:none;stroke:#000000;stroke-width:15;stroke-linecap:round;stroke-linejoin:round;stroke-miterlimit:10;stroke-dasharray:none;stroke-opacity:1"
             id="path265" /></g><g
           id="g267"
           transform="translate(219.0542,43.7271)"><path
             d="m 0,0 c -5.343,17.603 -0.995,34.384 9.464,48.869 -27.085,8.504 -34.445,21.969 -35.781,52.101 -33.933,-8.816 -55.76,8.334 -68.89,30.955 -15.376,-22.677 -37.031,-31.04 -60.933,-26.108"
             style="fill:none;stroke:#000000;stroke-width:15;stroke-linecap:round;stroke-linejoin:round;stroke-miterlimit:10;stroke-dasharray:none;stroke-opacity:1"
             id="path269" /></g><g
           id="g271"
           transform="translate(279.4746,132.5933)"><path
             d="m 0,0 c -38.509,-47.452 -12.249,-104.485 22.111,-125.093 h 52.378 c -34.36,20.608 -82.418,92.438 0,138.302 C -7.929,25.88 -18.16,57.062 -7.02,125.093 -21.854,110.892 -37.628,103.21 -53.003,101.027 c -37.372,-5.329 -72.386,21.855 -85.885,66.813 -18.473,-38.806 -53.089,-107.915 -131.869,-42.747 V 79.824 c 60.734,-40.309 113.396,-16.073 131.869,22.734 13.755,-45.751 49.763,-53.093 87.874,-46.517 C -46.353,27.014 -33.081,4.677 0,0"
             style="fill:#e53950;fill-opacity:1;fill-rule:evenodd;stroke:none"
             id="path273" /></g><g
           id="g275"
           transform="translate(8.7178,257.6865)"><path
             d="M 0,0 C 78.78,-65.168 113.396,3.94 131.869,42.747 150.938,-20.721 212.837,-48.728 263.737,0 c -11.14,-68.032 -0.909,-99.213 81.509,-111.884 -82.418,-45.865 -34.36,-117.695 0,-138.303 H 5.172 c -2.841,0 -5.172,2.325 -5.172,5.188 z"
             style="fill:none;stroke:#000000;stroke-width:15;stroke-linecap:round;stroke-linejoin:round;stroke-miterlimit:10;stroke-dasharray:none;stroke-opacity:1"
             id="path277" /></g><g
           id="g279"
           transform="translate(89.146,504.5)"><path
             d="M 0,0 -20.036,-199.049 H 2.217 L 22.253,0 Z"
             style="fill:#feb237;fill-opacity:1;fill-rule:evenodd;stroke:none"
             id="path281" /></g><g
           id="g283"
           transform="translate(356.2656,469.4639)"><path
             d="m 0,0 -151.957,-169.445 17.673,-10.471 155.457,165.034 z"
             style="fill:#feb237;fill-opacity:1;fill-rule:evenodd;stroke:none"
             id="path285" /></g><g
           id="g287"
           transform="translate(307.6387,503.6777)"><path
             d="m 0,0 69.8,-49.096 -155.457,-165.033 -24.782,14.683 z"
             style="fill:none;stroke:#000000;stroke-width:15;stroke-linecap:round;stroke-linejoin:round;stroke-miterlimit:10;stroke-dasharray:none;stroke-opacity:1"
             id="path289" /></g><g
           id="g291"
           transform="translate(55.8379,437.8291)"><path
             d="M 0,0 -3.354,66.671 H 55.561 L 35.525,-132.378 H 6.679 l -4.945,98.135"
             style="fill:none;stroke:#000000;stroke-width:15;stroke-linecap:round;stroke-linejoin:round;stroke-miterlimit:10;stroke-dasharray:none;stroke-opacity:1"
             id="path293" /></g><g
           id="g295"
           transform="translate(452.2969,296.2095)"><path
             d="m 0,0 -123.826,-81.326 13.641,-16.725 123.827,81.326 z"
             style="fill:#feb237;fill-opacity:1;fill-rule:evenodd;stroke:none"
             id="path297" /></g><g
           id="g299"
           transform="translate(386.1924,227.1289)"><path
             d="M 0,0 -44.08,-28.97 -62.297,-6.633 42.572,97.966 79.746,52.356 30.039,19.701"
             style="fill:none;stroke:#000000;stroke-width:15;stroke-linecap:round;stroke-linejoin:round;stroke-miterlimit:10;stroke-dasharray:none;stroke-opacity:1"
             id="path301" /></g><g
           id="g303"
           transform="translate(503.2803,66.3999)"><path
             d="M 0,0 -111.69,-10.31 -114.391,3.51 -3.7,18.92 Z"
             style="fill:#feb237;fill-opacity:1;fill-rule:evenodd;stroke:none"
             id="path305" /></g><g
           id="g307"
           transform="translate(492,124.0894)"><path
             d="m 0,0 11.282,-57.685 -111.69,-10.318 -5.514,28.233 z"
             style="fill:none;stroke:#000000;stroke-width:15;stroke-linecap:round;stroke-linejoin:round;stroke-miterlimit:10;stroke-dasharray:none;stroke-opacity:1"
             id="path309" /></g></g></g></g></svg>
