<svg xmlns="http://www.w3.org/2000/svg" xml:space="preserve" width="682.7" height="682.7"><defs><clipPath id="a" clipPathUnits="userSpaceOnUse"><path d="M0 512h512V0H0Z"/></clipPath></defs><g clip-path="url(#a)" transform="matrix(1.3333333 0 0 -1.3333333 0 683)"><path d="M0 0v-245c0-3 2-5 5-5h340c-34 20-82 92 0 138-82 13-92 44-81 112-51-49-113-21-132 43C113 4 79-65 0 0" style="fill:#eb5569;fill-opacity:1;fill-rule:evenodd;stroke:none" transform="translate(9 258)"/><path d="m0 0 112 10-12 58L-6 28Z" style="fill:#ffc344;fill-opacity:1;fill-rule:evenodd;stroke:none" transform="translate(392 56)"/><path d="m0 0 18-22 124 81-37 46z" style="fill:#ffc344;fill-opacity:1;fill-rule:evenodd;stroke:none" transform="translate(324 220)"/><path d="m0 0-110-199 24-15L70-49Z" style="fill:#ffc344;fill-opacity:1;fill-rule:evenodd;stroke:none" transform="translate(308 504)"/><path d="m0 0 10-199h29L59 0Z" style="fill:#ffc344;fill-opacity:1;fill-rule:evenodd;stroke:none" transform="translate(52 505)"/><path d="m0 0-14-69" style="fill:none;stroke:#000;stroke-width:15;stroke-linecap:round;stroke-linejoin:round;stroke-miterlimit:10;stroke-dasharray:none;stroke-opacity:1" transform="translate(173 414)"/><path d="m0 0-90-95" style="fill:none;stroke:#000;stroke-width:15;stroke-linecap:round;stroke-linejoin:round;stroke-miterlimit:10;stroke-dasharray:none;stroke-opacity:1" transform="translate(402 384)"/><path d="m0 0-58-31" style="fill:none;stroke:#000;stroke-width:15;stroke-linecap:round;stroke-linejoin:round;stroke-miterlimit:10;stroke-dasharray:none;stroke-opacity:1" transform="translate(460 185)"/><path d="M0 0c-5 18-1 34 9 49-27 8-34 22-35 52-34-9-56 8-69 31-16-23-37-31-61-26" style="fill:none;stroke:#000;stroke-width:15;stroke-linecap:round;stroke-linejoin:round;stroke-miterlimit:10;stroke-dasharray:none;stroke-opacity:1" transform="translate(219 44)"/><path d="M0 0c-39-47-12-104 22-125h52C40-104-8-33 74 13-8 26-18 57-7 125a84 84 0 0 0-46-24c-37-5-72 22-86 67-18-39-53-108-132-43V80c61-40 114-16 132 23 14-46 50-54 88-47C-46 27-33 5 0 0" style="fill:#e53950;fill-opacity:1;fill-rule:evenodd;stroke:none" transform="translate(279 133)"/><path d="M0 0c79-65 113 4 132 43 19-64 81-92 132-43-11-68-1-99 81-112-82-46-34-118 0-138H5c-3 0-5 2-5 5z" style="fill:none;stroke:#000;stroke-width:15;stroke-linecap:round;stroke-linejoin:round;stroke-miterlimit:10;stroke-dasharray:none;stroke-opacity:1" transform="translate(9 258)"/><path d="m0 0-20-199H2L22 0Z" style="fill:#feb237;fill-opacity:1;fill-rule:evenodd;stroke:none" transform="translate(89 505)"/><path d="m0 0-152-169 18-11L21-15z" style="fill:#feb237;fill-opacity:1;fill-rule:evenodd;stroke:none" transform="translate(356 469)"/><path d="m0 0 70-49-156-165-24 15z" style="fill:none;stroke:#000;stroke-width:15;stroke-linecap:round;stroke-linejoin:round;stroke-miterlimit:10;stroke-dasharray:none;stroke-opacity:1" transform="translate(308 504)"/><path d="m0 0-3 67h59L36-132H7L2-34" style="fill:none;stroke:#000;stroke-width:15;stroke-linecap:round;stroke-linejoin:round;stroke-miterlimit:10;stroke-dasharray:none;stroke-opacity:1" transform="translate(56 438)"/><path d="m0 0-124-81 14-17L14-17z" style="fill:#feb237;fill-opacity:1;fill-rule:evenodd;stroke:none" transform="translate(452 296)"/><path d="m0 0-44-29-18 22L43 98l37-46-50-32" style="fill:none;stroke:#000;stroke-width:15;stroke-linecap:round;stroke-linejoin:round;stroke-miterlimit:10;stroke-dasharray:none;stroke-opacity:1" transform="translate(386 227)"/><path d="m0 0-112-10-2 14L-4 19Z" style="fill:#feb237;fill-opacity:1;fill-rule:evenodd;stroke:none" transform="translate(503 66)"/><path d="m0 0 11-58-111-10-6 28z" style="fill:none;stroke:#000;stroke-width:15;stroke-linecap:round;stroke-linejoin:round;stroke-miterlimit:10;stroke-dasharray:none;stroke-opacity:1" transform="translate(492 124)"/></g></svg>