<svg xmlns="http://www.w3.org/2000/svg" width="512" height="512" viewBox="0 0 508.3 508.3"><path fill="#f1e9e6" d="M398 8s158 216-80 334c-97 48-99 131-97 155 0 3-3 5-5 3-35-27-40-58-37-80 2-17 10-32 21-44 22-24 28-48 27-68-1-26-16-49-38-62C24 147 121 8 121 8h277z"/><path fill="#efe2dd" d="M239 414v-22c2-17 10-32 21-44 22-23 28-47 27-67-1-26-16-50-38-63C129 146 147 53 166 8h-45s-97 139 68 238c22 13 37 36 38 62 1 20-5 44-27 68a78 78 0 0 0-21 44c-3 22 2 53 37 80 2 2 5 0 5-3-1-14-1-47 18-83z"/><path d="M51 176h54c7 12 16 24 28 36a7 7 0 0 0 10 0c3-3 3-8 0-11-8-8-14-16-20-25h253a7 7 0 1 0 0-15H114c-9-18-14-37-14-58h87a7 7 0 1 0 0-15h-86l2-14c5-29 17-51 22-59h269c4 5 12 17 20 34a8 8 0 1 0 13-6c-5-12-11-21-15-28h8a7 7 0 1 0 0-15H93a7 7 0 1 0 0 15h14c-6 12-15 31-19 56-5 24-5 56 10 90H51a19 19 0 0 1 0-38h13a7 7 0 1 0 0-15H51a34 34 0 0 0 0 68z"/><path d="M463 102h-13l-10-29a8 8 0 0 0-14 6c11 28 16 56 16 82h-34a7 7 0 1 0 0 15h34a170 170 0 0 1-48 103h-18a7 7 0 1 0 0 15h3c-18 15-39 29-64 41-36 18-59 40-74 62h-47l11-16a99 99 0 0 0 28-87h43a7 7 0 1 0 0-15h-48c-7-17-19-30-35-40l-25-16a8 8 0 0 0-9 12l26 17c11 7 20 16 26 27h-11a7 7 0 1 0 0 15h17l3 15c0 13-2 25-8 37h-40a33 33 0 0 0 0 66h1l-1 7c-3 23 1 58 39 87a11 11 0 0 0 17-9c-1-14 0-49 21-85h96a26 26 0 0 0 0-52h-16a7 7 0 1 0 0 15h16a11 11 0 0 1 0 22h-85c13-17 33-34 61-48 32-16 59-35 80-55h16a7 7 0 1 0 0-15h-2a182 182 0 0 0 42-103h6a37 37 0 0 0 0-74zM172 397a18 18 0 0 1 0-36h31l-8 10c-8 8-14 17-18 26zm41 91a75 75 0 0 1-25-76h44c-16 30-19 59-19 76zm250-327h-6c0-14-1-29-4-44h10a22 22 0 0 1 0 44zM254 88a7 7 0 1 0 0 15h60a7 7 0 1 0 0-15zM84 330H16a7 7 0 1 0 0 15h68a7 7 0 1 0 0-15z"/><path d="M254 330a7 7 0 1 0 0 15h14a7 7 0 1 0 0-15zM459 360h-63a7 7 0 1 0 0 15h63a7 7 0 1 0 0-15zM437 446H289a7 7 0 1 0 0 15h148a7 7 0 1 0 0-15zM140 432h-13a7 7 0 1 0 0 15h13a7 7 0 1 0 0-15zM84 453H55a7 7 0 1 0 0 15h29a7 7 0 1 0 0-15z"/></svg>