<svg id="Capa_1" enable-background="new 0 0 508.31 508.31" height="512" viewBox="0 0 508.31 508.31" width="512" xmlns="http://www.w3.org/2000/svg"><g><g><g id="XMLID_176_"><g><path d="m398.176 7.502s158.24 216.6-80.13 334.45c-96.64 47.79-98.78 131.1-97.17 155.53.18 2.68-2.91 4.33-5.03 2.67-34.51-26.83-39.49-57.73-36.67-80.65 2.01-16.37 9.58-31.48 20.82-43.55 22.09-23.72 27.99-47.54 27.13-67.58-1.12-26.06-15.84-49.52-38.24-62.87-164.72-98.16-68.31-238-68.31-238h277.6z" fill="#f1e9e6"/></g></g><path d="m239.412 414.255c-1.148-7.996-1.015-15.601-.168-22.483 2.01-16.37 9.58-31.48 20.82-43.55 22.09-23.72 27.99-47.54 27.13-67.58-1.12-26.06-15.84-49.52-38.24-62.87-119.615-71.281-101.529-164.54-82.656-210.27h-45.722s-96.41 139.84 68.31 238c22.4 13.35 37.12 36.81 38.24 62.87.86 20.04-5.04 43.86-27.13 67.58-11.24 12.07-18.81 27.18-20.82 43.55-2.82 22.92 2.16 53.82 36.67 80.65 2.12 1.66 5.21.01 5.03-2.67-.931-14.131-.607-47.964 18.536-83.227z" fill="#efe2dd"/></g><g><path d="m51.434 176.036h53.818c6.846 11.871 15.771 23.795 27.258 35.496 1.469 1.496 3.41 2.246 5.353 2.246 1.896 0 3.794-.715 5.254-2.148 2.956-2.901 3-7.65.098-10.605-7.876-8.022-14.676-16.356-20.405-24.988h252.972c4.142 0 7.5-3.357 7.5-7.5s-3.358-7.5-7.5-7.5h-261.694c-9.116-18.144-13.808-37.482-14.063-57.905h87.075c4.142 0 7.5-3.357 7.5-7.5s-3.358-7.5-7.5-7.5h-86.488c.418-4.611 1.043-9.272 1.893-13.985 5.205-28.854 17.364-51.118 22.207-59.147h269.53c3.61 5.371 11.345 17.492 19.51 34.134 1.303 2.655 3.967 4.198 6.739 4.198 1.109 0 2.235-.247 3.298-.769 3.719-1.824 5.254-6.318 3.43-10.037-5.617-11.45-10.997-20.802-15.141-27.526h8.362c4.142 0 7.5-3.357 7.5-7.5s-3.358-7.5-7.5-7.5h-327.9c-4.142 0-7.5 3.357-7.5 7.5s3.358 7.5 7.5 7.5h14.913c-6.253 11.731-15.115 31.487-19.602 55.907-4.481 24.386-4.947 56.565 9.805 90.129h-46.22c-10.548 0-19.129-8.581-19.129-19.129 0-10.549 8.582-19.131 19.129-19.131h12.874c4.142 0 7.5-3.357 7.5-7.5s-3.358-7.5-7.5-7.5h-12.876c-18.819 0-34.129 15.312-34.129 34.131-.001 18.819 15.31 34.129 34.129 34.129z"/><path d="m463.163 102.212h-13.654c-2.444-9.505-5.46-19.14-9.067-28.9-1.436-3.885-5.748-5.868-9.635-4.436-3.885 1.436-5.871 5.75-4.436 9.635 10.663 28.856 15.948 56.461 15.832 82.525h-34.46c-4.142 0-7.5 3.357-7.5 7.5s3.358 7.5 7.5 7.5h33.779c-.896 10.299-2.672 20.337-5.339 30.093-7.284 26.65-21.252 50.884-41.745 72.552h-18.659c-4.142 0-7.5 3.357-7.5 7.5s3.358 7.5 7.5 7.5h2.958c-17.701 15.339-39.056 29.214-64.014 41.555-35.385 17.496-58.619 39.627-73.803 62.087h-47.026c3.031-5.777 6.912-11.241 11.588-16.262 20.471-21.979 30.273-46.544 29.135-73.013-.21-4.879-.859-9.68-1.902-14.367h43.41c4.142 0 7.5-3.357 7.5-7.5s-3.358-7.5-7.5-7.5h-48.287c-7.025-16.182-19.165-30.116-35.118-39.623-8.651-5.156-16.825-10.596-24.295-16.17-3.32-2.478-8.019-1.794-10.497 1.525-2.477 3.32-1.794 8.02 1.526 10.496 7.884 5.883 16.493 11.614 25.587 17.033 11.187 6.667 20.101 15.946 26.088 26.738h-11.292c-4.142 0-7.5 3.357-7.5 7.5s3.358 7.5 7.5 7.5h17.431c1.338 4.857 2.142 9.885 2.362 15.012.559 13.014-2.109 25.546-7.909 37.493h-39.445c-18.234 0-33.068 14.834-33.068 33.068s14.834 33.068 33.068 33.068h.478c-.421 2.069-.767 4.156-1.026 6.259-2.909 23.634 1.585 57.998 39.512 87.496 1.899 1.477 4.203 2.232 6.521 2.232 1.704 0 3.415-.408 4.978-1.238 3.692-1.96 5.9-5.92 5.625-10.089-.936-14.157-.498-49.147 20.868-84.66h96.083c14.546 0 26.381-11.834 26.381-26.381s-11.834-26.381-26.381-26.381h-16.45c-4.142 0-7.5 3.357-7.5 7.5s3.358 7.5 7.5 7.5h16.45c6.275 0 11.381 5.105 11.381 11.381s-5.105 11.381-11.381 11.381h-85.727c13.846-17.649 33.616-34.713 61.786-48.642 32.092-15.868 58.589-34.247 79.412-55h16.233c4.142 0 7.5-3.357 7.5-7.5s-3.358-7.5-7.5-7.5h-2.501c17.243-20.778 29.326-43.678 36.137-68.597 3.02-11.047 4.985-22.406 5.92-34.048h6.589c20.353 0 36.912-16.559 36.912-36.912s-16.56-36.91-36.913-36.91zm-290.886 295.11c-9.963 0-18.068-8.105-18.068-18.068s8.105-18.068 18.068-18.068h30.27c-2.431 3.269-5.096 6.491-8.041 9.652-7.434 7.981-13.197 16.931-17.15 26.484zm40.827 90.725c-20.769-19.021-29.675-41.733-26.487-67.634.336-2.729.844-5.429 1.517-8.091h43.803c-15.655 29.701-18.752 58.294-18.833 75.725zm250.059-327.011h-5.955c.059-14.227-1.379-28.85-4.301-43.824h10.256c12.082 0 21.912 9.83 21.912 21.912s-9.83 21.912-21.912 21.912z"/><path d="m254.226 88.131c-4.142 0-7.5 3.357-7.5 7.5s3.358 7.5 7.5 7.5h59.451c4.142 0 7.5-3.357 7.5-7.5s-3.358-7.5-7.5-7.5z"/><path d="m84.04 330.388h-68.305c-4.142 0-7.5 3.357-7.5 7.5s3.358 7.5 7.5 7.5h68.305c4.142 0 7.5-3.357 7.5-7.5s-3.358-7.5-7.5-7.5z"/><path d="m254.226 330.388c-4.142 0-7.5 3.357-7.5 7.5s3.358 7.5 7.5 7.5h13.384c4.142 0 7.5-3.357 7.5-7.5s-3.358-7.5-7.5-7.5z"/><path d="m459.008 360.271h-62.608c-4.142 0-7.5 3.357-7.5 7.5s3.358 7.5 7.5 7.5h62.608c4.142 0 7.5-3.357 7.5-7.5s-3.358-7.5-7.5-7.5z"/><path d="m436.951 445.653h-148.193c-4.142 0-7.5 3.357-7.5 7.5s3.358 7.5 7.5 7.5h148.193c4.142 0 7.5-3.357 7.5-7.5s-3.358-7.5-7.5-7.5z"/><path d="m139.87 432.134h-12.428c-4.142 0-7.5 3.357-7.5 7.5s3.358 7.5 7.5 7.5h12.428c4.142 0 7.5-3.357 7.5-7.5s-3.358-7.5-7.5-7.5z"/><path d="m84.04 453.479h-29.172c-4.142 0-7.5 3.357-7.5 7.5s3.358 7.5 7.5 7.5h29.172c4.142 0 7.5-3.357 7.5-7.5s-3.358-7.5-7.5-7.5z"/></g></g></svg>