<?xml version="1.0" encoding="UTF-8" standalone="no"?>
<!-- Created with Inkscape (http://www.inkscape.org/) -->

<svg
   version="1.1"
   id="svg10128"
   xml:space="preserve"
   width="682.66669"
   height="682.66669"
   viewBox="0 0 682.66669 682.66669"
   xmlns="http://www.w3.org/2000/svg"
   xmlns:svg="http://www.w3.org/2000/svg"><defs
     id="defs10132"><clipPath
       clipPathUnits="userSpaceOnUse"
       id="clipPath10142"><path
         d="M 0,512 H 512 V 0 H 0 Z"
         id="path10140" /></clipPath></defs><g
     id="g10134"
     transform="matrix(1.3333333,0,0,-1.3333333,0,682.66667)"><g
       id="g10136"><g
         id="g10138"
         clip-path="url(#clipPath10142)"><g
           id="g10144"
           transform="translate(297.4238,225.4258)"><path
             d="m 0,0 -43.412,-19.031 c -1.897,-0.831 -4.007,-1.046 -6.032,-0.613 l -94.335,20.172 c -4.141,0.886 -7.257,4.312 -7.747,8.518 l -21.216,181.94 c -0.186,1.599 0.021,3.22 0.603,4.72 l 20.048,51.639 c 0.891,2.296 2.608,4.176 4.813,5.271 l 38.448,19.109 c 1.967,0.977 4.203,1.272 6.355,0.837 L -2.2,252.285 c 4.074,-0.823 7.196,-4.108 7.812,-8.219 L 26.633,103.874 c 0.18,-1.203 0.137,-2.43 -0.128,-3.616 L 5.676,6.896 C 4.991,3.825 2.883,1.264 0,0"
             style="fill:#cdc0bb;fill-opacity:1;fill-rule:nonzero;stroke:none"
             id="path10146" /></g><g
           id="g10148"
           transform="translate(323.9277,325.6797)"><path
             d="m 0,0 -20.827,-93.355 c -0.682,-3.073 -2.796,-5.631 -5.681,-6.896 L -69.92,-119.29 c -1.896,-0.829 -4.001,-1.037 -6.026,-0.612 l -22.665,4.851 33.75,14.8 c 2.884,1.265 4.989,3.823 5.68,6.896 L -38.354,0 c 0.267,1.195 0.306,2.42 0.128,3.615 L -59.25,143.811 c -0.612,4.11 -3.734,7.4 -7.814,8.219 l -76.342,15.433 8.072,4.011 c 1.966,0.978 4.198,1.264 6.353,0.83 l 100.28,-20.274 c 4.07,-0.819 7.192,-4.109 7.805,-8.219 L 0.128,3.615 C 0.306,2.42 0.267,1.195 0,0"
             style="fill:#b9acac;fill-opacity:1;fill-rule:nonzero;stroke:none"
             id="path10150" /></g><g
           id="g10152"
           transform="translate(132.6699,347.9131)"><path
             d="m 0,0 13.228,-113.441 c 0.49,-4.206 3.606,-7.632 7.747,-8.517 l 94.335,-20.173 c 2.025,-0.433 4.135,-0.219 6.032,0.612 l 43.412,19.032 c 2.883,1.263 4.991,3.825 5.676,6.896 l 20.829,93.362 c 0.264,1.186 0.308,2.413 0.128,3.615 l -21.021,140.193 c -0.616,4.11 -3.738,7.395 -7.812,8.219 L 62.279,150.074 c -2.152,0.435 -4.388,0.141 -6.355,-0.837 L 17.476,130.13 c -2.205,-1.097 -3.922,-2.977 -4.813,-5.273 L -7.385,73.22 c -0.582,-1.501 -0.789,-3.121 -0.603,-4.721 l 4.152,-35.603"
             style="fill:none;stroke:#000000;stroke-width:15;stroke-linecap:round;stroke-linejoin:round;stroke-miterlimit:10;stroke-dasharray:none;stroke-opacity:1"
             id="path10154" /></g><g
           id="g10156"
           transform="translate(224.3643,415.1543)"><path
             d="M 0,0 V -126.534"
             style="fill:none;stroke:#000000;stroke-width:15;stroke-linecap:round;stroke-linejoin:round;stroke-miterlimit:10;stroke-dasharray:none;stroke-opacity:1"
             id="path10158" /></g><g
           id="g10160"
           transform="translate(269.1006,396.624)"><path
             d="M 0,0 -89.474,-89.474"
             style="fill:none;stroke:#000000;stroke-width:15;stroke-linecap:round;stroke-linejoin:round;stroke-miterlimit:10;stroke-dasharray:none;stroke-opacity:1"
             id="path10162" /></g><g
           id="g10164"
           transform="translate(179.627,396.624)"><path
             d="M 0,0 89.474,-89.474"
             style="fill:none;stroke:#000000;stroke-width:15;stroke-linecap:round;stroke-linejoin:round;stroke-miterlimit:10;stroke-dasharray:none;stroke-opacity:1"
             id="path10166" /></g><g
           id="g10168"
           transform="translate(251.0947,205.1162)"><path
             d="M 0,0 V 28.664 L 3.854,45.896"
             style="fill:none;stroke:#000000;stroke-width:15;stroke-linecap:round;stroke-linejoin:round;stroke-miterlimit:10;stroke-dasharray:none;stroke-opacity:1"
             id="path10170" /></g><g
           id="g10172"
           transform="translate(229.5059,487.1885)"><path
             d="M 0,0 -18.771,-21.058"
             style="fill:none;stroke:#000000;stroke-width:15;stroke-linecap:round;stroke-linejoin:round;stroke-miterlimit:10;stroke-dasharray:none;stroke-opacity:1"
             id="path10174" /></g><g
           id="g10176"
           transform="translate(255.4619,437.4795)"><path
             d="M 0,0 H 0.103"
             style="fill:none;stroke:#000000;stroke-width:15;stroke-linecap:round;stroke-linejoin:round;stroke-miterlimit:10;stroke-dasharray:none;stroke-opacity:1"
             id="path10178" /></g><g
           id="g10180"
           transform="translate(274.8506,447.248)"><path
             d="M 0,0 H 0.103"
             style="fill:none;stroke:#000000;stroke-width:15;stroke-linecap:round;stroke-linejoin:round;stroke-miterlimit:10;stroke-dasharray:none;stroke-opacity:1"
             id="path10182" /></g><g
           id="g10184"
           transform="translate(213.6982,254.9229)"><path
             d="M 0,0 H 0.102"
             style="fill:none;stroke:#000000;stroke-width:15;stroke-linecap:round;stroke-linejoin:round;stroke-miterlimit:10;stroke-dasharray:none;stroke-opacity:1"
             id="path10186" /></g><g
           id="g10188"
           transform="translate(414.0225,125.6025)"><path
             d="m 0,0 -47.322,-2.72 c -2.069,-0.118 -4.121,0.416 -5.868,1.528 l -81.403,51.764 c -3.573,2.273 -5.301,6.569 -4.296,10.682 l 43.481,177.938 c 0.383,1.564 1.14,3.011 2.21,4.214 l 36.777,41.424 c 1.635,1.841 3.899,3.006 6.348,3.265 l 42.695,4.521 c 2.185,0.232 4.383,-0.271 6.249,-1.429 l 86.935,-53.931 c 3.531,-2.192 5.314,-6.359 4.461,-10.426 L 61.143,88.094 C 60.894,86.903 60.426,85.77 59.764,84.749 L 7.723,4.488 C 6.01,1.848 3.142,0.181 0,0"
             style="fill:#cdc0bb;fill-opacity:1;fill-rule:nonzero;stroke:none"
             id="path10190" /></g><g
           id="g10192"
           transform="translate(473.7881,210.3545)"><path
             d="m 0,0 -52.04,-80.265 c -1.719,-2.639 -4.582,-4.305 -7.728,-4.486 l -47.321,-2.717 c -2.066,-0.117 -4.115,0.412 -5.862,1.525 l -19.569,12.435 36.8,2.115 c 3.146,0.181 6.009,1.847 7.718,4.49 l 52.05,80.261 c 0.654,1.022 1.127,2.153 1.371,3.349 l 29.126,138.727 c 0.848,4.069 -0.933,8.24 -4.463,10.426 l -66.174,41.061 8.951,0.943 c 2.184,0.233 4.38,-0.267 6.247,-1.426 l 86.928,-53.936 c 3.539,-2.19 5.32,-6.36 4.463,-10.427 L 1.38,3.345 C 1.127,2.153 0.663,1.019 0,0"
             style="fill:#b9acac;fill-opacity:1;fill-rule:nonzero;stroke:none"
             id="path10194" /></g><g
           id="g10196"
           transform="translate(452.7734,177.9443)"><path
             d="m 0,0 21.013,32.407 c 0.662,1.021 1.13,2.155 1.38,3.346 l 29.123,138.735 c 0.853,4.068 -0.93,8.235 -4.461,10.425 l -86.935,53.932 c -1.866,1.158 -4.064,1.66 -6.249,1.429 l -42.695,-4.521 c -2.449,-0.259 -4.713,-1.424 -6.348,-3.266 l -36.777,-41.422 c -1.07,-1.204 -1.827,-2.651 -2.21,-4.214 L -177.64,8.913 c -1.005,-4.114 0.723,-8.41 4.296,-10.683 l 81.403,-51.764 c 1.747,-1.112 3.8,-1.646 5.868,-1.528 l 47.322,2.72 c 3.142,0.181 6.011,1.847 7.723,4.488 l 12.957,19.984"
             style="fill:none;stroke:#000000;stroke-width:15;stroke-linecap:round;stroke-linejoin:round;stroke-miterlimit:10;stroke-dasharray:none;stroke-opacity:1"
             id="path10198" /></g><g
           id="g10200"
           transform="translate(410.7285,326.5059)"><path
             d="M 0,0 -44.07,-118.611"
             style="fill:none;stroke:#000000;stroke-width:15;stroke-linecap:round;stroke-linejoin:round;stroke-miterlimit:10;stroke-dasharray:none;stroke-opacity:1"
             id="path10202" /></g><g
           id="g10204"
           transform="translate(408.5937,192.3135)"><path
             d="M 0,0 -62.194,89.504 3.912,138.976 21.677,58.342 -83.871,31.163"
             style="fill:none;stroke:#000000;stroke-width:15;stroke-linecap:round;stroke-linejoin:round;stroke-miterlimit:10;stroke-dasharray:none;stroke-opacity:1"
             id="path10206" /></g><g
           id="g10208"
           transform="translate(497.5264,320.2168)"><path
             d="M 0,0 -23.718,1.345"
             style="fill:none;stroke:#000000;stroke-width:15;stroke-linecap:round;stroke-linejoin:round;stroke-miterlimit:10;stroke-dasharray:none;stroke-opacity:1"
             id="path10210" /></g><g
           id="g10212"
           transform="translate(410.0146,418.5752)"><path
             d="M 0,0 -9.114,-24.529"
             style="fill:none;stroke:#000000;stroke-width:15;stroke-linecap:round;stroke-linejoin:round;stroke-miterlimit:10;stroke-dasharray:none;stroke-opacity:1"
             id="path10214" /></g><g
           id="g10216"
           transform="translate(309.4863,157.0615)"><path
             d="M 0,0 11.999,17.679"
             style="fill:none;stroke:#000000;stroke-width:15;stroke-linecap:round;stroke-linejoin:round;stroke-miterlimit:10;stroke-dasharray:none;stroke-opacity:1"
             id="path10218" /></g><g
           id="g10220"
           transform="translate(362.8457,355.3262)"><path
             d="M 0,0 0.096,-0.036"
             style="fill:none;stroke:#000000;stroke-width:15;stroke-linecap:round;stroke-linejoin:round;stroke-miterlimit:10;stroke-dasharray:none;stroke-opacity:1"
             id="path10222" /></g><g
           id="g10224"
           transform="translate(358.5693,168.4629)"><path
             d="M 0,0 0.096,-0.035"
             style="fill:none;stroke:#000000;stroke-width:15;stroke-linecap:round;stroke-linejoin:round;stroke-miterlimit:10;stroke-dasharray:none;stroke-opacity:1"
             id="path10226" /></g><g
           id="g10228"
           transform="translate(390.2881,360.0615)"><path
             d="M 0,0 0.096,-0.035"
             style="fill:none;stroke:#000000;stroke-width:15;stroke-linecap:round;stroke-linejoin:round;stroke-miterlimit:10;stroke-dasharray:none;stroke-opacity:1"
             id="path10230" /></g><g
           id="g10232"
           transform="translate(259.6641,82.7168)"><path
             d="m 0,0 -28.968,-37.519 c -1.265,-1.639 -3.014,-2.839 -5,-3.43 l -92.452,-27.539 c -4.059,-1.209 -8.435,0.302 -10.884,3.759 l -105.87,149.478 c -0.93,1.314 -1.525,2.835 -1.734,4.431 l -7.173,54.927 c -0.318,2.442 0.286,4.915 1.695,6.934 l 24.574,35.207 c 1.257,1.801 3.079,3.131 5.176,3.781 l 97.715,30.297 c 3.97,1.231 8.285,-0.154 10.798,-3.466 l 85.678,-112.938 c 0.735,-0.969 1.285,-2.066 1.622,-3.234 L 1.673,8.774 C 2.545,5.75 1.923,2.491 0,0"
             style="fill:#cdc0bb;fill-opacity:1;fill-rule:nonzero;stroke:none"
             id="path10234" /></g><g
           id="g10236"
           transform="translate(234.8428,183.4092)"><path
             d="m 0,0 26.491,-91.921 c 0.875,-3.022 0.256,-6.277 -1.669,-8.77 l -28.968,-37.518 c -1.267,-1.638 -3.018,-2.842 -5.003,-3.432 l -22.215,-6.613 22.522,29.164 c 1.925,2.493 2.553,5.753 1.678,8.777 l -26.5,91.915 c -0.334,1.168 -0.887,2.262 -1.621,3.234 l -85.674,112.943 c -2.518,3.309 -6.83,4.69 -10.795,3.457 l -74.387,-23.056 5.147,7.373 c 1.265,1.805 3.082,3.136 5.181,3.788 l 97.714,30.289 c 3.965,1.232 8.286,-0.145 10.795,-3.457 L -1.621,3.234 C -0.887,2.262 -0.343,1.163 0,0"
             style="fill:#b9acac;fill-opacity:1;fill-rule:nonzero;stroke:none"
             id="path10238" /></g><g
           id="g10240"
           transform="translate(171.9268,267.4326)"><path
             d="m 0,0 -24.386,32.146 c -2.511,3.31 -6.828,4.695 -10.797,3.464 L -132.898,5.313 c -2.098,-0.65 -3.919,-1.98 -5.176,-3.781 l -24.574,-35.207 c -1.41,-2.019 -2.014,-4.492 -1.696,-6.933 l 7.173,-54.928 c 0.209,-1.596 0.804,-3.117 1.734,-4.431 l 105.872,-149.479 c 2.447,-3.455 6.824,-4.967 10.882,-3.758 l 92.453,27.539 c 1.985,0.591 3.734,1.791 5,3.431 l 28.967,37.518 c 1.923,2.491 2.545,5.75 1.673,8.775 l -26.496,91.913 c -0.337,1.169 -0.887,2.265 -1.622,3.234 l -41.199,54.308"
             style="fill:none;stroke:#000000;stroke-width:15;stroke-linecap:round;stroke-linejoin:round;stroke-miterlimit:10;stroke-dasharray:none;stroke-opacity:1"
             id="path10242" /></g><g
           id="g10244"
           transform="translate(165.2471,103.1328)"><path
             d="m 0,0 -60.683,111.034 58.649,-6.643"
             style="fill:none;stroke:#000000;stroke-width:15;stroke-linecap:round;stroke-linejoin:round;stroke-miterlimit:10;stroke-dasharray:none;stroke-opacity:1"
             id="path10246" /></g><g
           id="g10248"
           transform="translate(119.2715,187.2568)"><path
             d="m 0,0 -26.08,-52.949 58.694,-6.728 26.034,53.034 z"
             style="fill:none;stroke:#000000;stroke-width:15;stroke-linecap:round;stroke-linejoin:round;stroke-miterlimit:10;stroke-dasharray:none;stroke-opacity:1"
             id="path10250" /></g><g
           id="g10252"
           transform="translate(15.0732,169.4658)"><path
             d="M 0,0 26.705,4.716"
             style="fill:none;stroke:#000000;stroke-width:15;stroke-linecap:round;stroke-linejoin:round;stroke-miterlimit:10;stroke-dasharray:none;stroke-opacity:1"
             id="path10254" /></g><g
           id="g10256"
           transform="translate(98.5137,291.1895)"><path
             d="M 0,0 12.615,-23.082"
             style="fill:none;stroke:#000000;stroke-width:15;stroke-linecap:round;stroke-linejoin:round;stroke-miterlimit:10;stroke-dasharray:none;stroke-opacity:1"
             id="path10258" /></g><g
           id="g10260"
           transform="translate(213.5937,96.0713)"><path
             d="M 0,0 0.09,0.048"
             style="fill:none;stroke:#000000;stroke-width:15;stroke-linecap:round;stroke-linejoin:round;stroke-miterlimit:10;stroke-dasharray:none;stroke-opacity:1"
             id="path10262" /></g><g
           id="g10264"
           transform="translate(201.375,72.5254)"><path
             d="M 0,0 0.09,0.049"
             style="fill:none;stroke:#000000;stroke-width:15;stroke-linecap:round;stroke-linejoin:round;stroke-miterlimit:10;stroke-dasharray:none;stroke-opacity:1"
             id="path10266" /></g></g></g></g></svg>
