<svg xmlns="http://www.w3.org/2000/svg" xml:space="preserve" width="682.7" height="682.7"><defs><clipPath id="a" clipPathUnits="userSpaceOnUse"><path d="M0 512h512V0H0Z"/></clipPath></defs><g clip-path="url(#a)" transform="matrix(1.3333333 0 0 -1.3333333 0 683)"><path d="m0 0-43-19-6-1-95 21c-4 0-7 4-8 8l-21 182 1 5 20 51c1 3 3 5 5 6l38 19 7 1 100-21c4-1 7-4 8-8l21-140v-4L6 7C5 4 3 1 0 0" style="fill:#cdc0bb;fill-opacity:1;fill-rule:nonzero;stroke:none" transform="translate(297 225)"/><path d="m0 0-21-93c-1-3-3-6-6-7l-43-19-6-1-23 5 34 15c3 1 5 4 6 7l21 93v4l-21 140c-1 4-4 7-8 8l-76 15 8 4c2 1 4 2 6 1l100-20c4-1 7-4 8-8L0 4V0" style="fill:#b9acac;fill-opacity:1;fill-rule:nonzero;stroke:none" transform="translate(324 326)"/><path d="m0 0 13-113c1-5 4-8 8-9l94-20h6l44 20c3 1 5 3 5 6l21 94v3l-21 141c0 4-3 7-7 8L62 150c-2 1-4 0-6-1l-39-19-4-5-20-52-1-5 4-35" style="fill:none;stroke:#000;stroke-width:15;stroke-linecap:round;stroke-linejoin:round;stroke-miterlimit:10;stroke-dasharray:none;stroke-opacity:1" transform="translate(133 348)"/><path d="M0 0v-127" style="fill:none;stroke:#000;stroke-width:15;stroke-linecap:round;stroke-linejoin:round;stroke-miterlimit:10;stroke-dasharray:none;stroke-opacity:1" transform="translate(224 415)"/><path d="m0 0-89-89" style="fill:none;stroke:#000;stroke-width:15;stroke-linecap:round;stroke-linejoin:round;stroke-miterlimit:10;stroke-dasharray:none;stroke-opacity:1" transform="translate(269 397)"/><path d="m0 0 89-89" style="fill:none;stroke:#000;stroke-width:15;stroke-linecap:round;stroke-linejoin:round;stroke-miterlimit:10;stroke-dasharray:none;stroke-opacity:1" transform="translate(180 397)"/><path d="M0 0v29l4 17" style="fill:none;stroke:#000;stroke-width:15;stroke-linecap:round;stroke-linejoin:round;stroke-miterlimit:10;stroke-dasharray:none;stroke-opacity:1" transform="translate(251 205)"/><path d="m0 0-19-21" style="fill:none;stroke:#000;stroke-width:15;stroke-linecap:round;stroke-linejoin:round;stroke-miterlimit:10;stroke-dasharray:none;stroke-opacity:1" transform="translate(230 487)"/><path d="M0 0h0" style="fill:none;stroke:#000;stroke-width:15;stroke-linecap:round;stroke-linejoin:round;stroke-miterlimit:10;stroke-dasharray:none;stroke-opacity:1" transform="translate(255 437)"/><path d="M0 0h0" style="fill:none;stroke:#000;stroke-width:15;stroke-linecap:round;stroke-linejoin:round;stroke-miterlimit:10;stroke-dasharray:none;stroke-opacity:1" transform="translate(275 447)"/><path d="M0 0h0" style="fill:none;stroke:#000;stroke-width:15;stroke-linecap:round;stroke-linejoin:round;stroke-miterlimit:10;stroke-dasharray:none;stroke-opacity:1" transform="translate(214 255)"/><path d="m0 0-47-3-6 2-82 52c-3 2-5 6-4 10l44 178 2 4 37 42c1 2 3 3 6 3l43 5 6-2 87-54c3-2 5-6 4-10L61 88l-1-3L8 4C6 2 3 0 0 0" style="fill:#cdc0bb;fill-opacity:1;fill-rule:nonzero;stroke:none" transform="translate(414 126)"/><path d="m0 0-52-80c-2-3-5-5-8-5l-47-2c-2-1-4 0-6 1l-20 12 37 3c3 0 6 1 8 4l52 80 1 4 30 138c0 5-1 9-5 11l-66 41 9 1c2 0 4 0 6-2l87-53c4-3 5-7 4-11L1 3 0 0" style="fill:#b9acac;fill-opacity:1;fill-rule:nonzero;stroke:none" transform="translate(474 210)"/><path d="m0 0 21 32 1 4 30 138c0 5-1 9-5 11l-87 54c-2 1-4 2-6 1l-43-4c-2-1-5-2-6-4l-37-41-2-4-44-178c-1-4 1-8 5-11l81-52 6-1 47 3c3 0 6 2 8 4l13 20" style="fill:none;stroke:#000;stroke-width:15;stroke-linecap:round;stroke-linejoin:round;stroke-miterlimit:10;stroke-dasharray:none;stroke-opacity:1" transform="translate(453 178)"/><path d="m0 0-44-119" style="fill:none;stroke:#000;stroke-width:15;stroke-linecap:round;stroke-linejoin:round;stroke-miterlimit:10;stroke-dasharray:none;stroke-opacity:1" transform="translate(411 327)"/><path d="m0 0-62 90 66 49 18-81-106-27" style="fill:none;stroke:#000;stroke-width:15;stroke-linecap:round;stroke-linejoin:round;stroke-miterlimit:10;stroke-dasharray:none;stroke-opacity:1" transform="translate(409 192)"/><path d="m0 0-24 1" style="fill:none;stroke:#000;stroke-width:15;stroke-linecap:round;stroke-linejoin:round;stroke-miterlimit:10;stroke-dasharray:none;stroke-opacity:1" transform="translate(498 320)"/><path d="m0 0-9-25" style="fill:none;stroke:#000;stroke-width:15;stroke-linecap:round;stroke-linejoin:round;stroke-miterlimit:10;stroke-dasharray:none;stroke-opacity:1" transform="translate(410 419)"/><path d="m0 0 12 18" style="fill:none;stroke:#000;stroke-width:15;stroke-linecap:round;stroke-linejoin:round;stroke-miterlimit:10;stroke-dasharray:none;stroke-opacity:1" transform="translate(309 157)"/><path d="M0 0h0" style="fill:none;stroke:#000;stroke-width:15;stroke-linecap:round;stroke-linejoin:round;stroke-miterlimit:10;stroke-dasharray:none;stroke-opacity:1" transform="translate(363 355)"/><path d="M0 0h0" style="fill:none;stroke:#000;stroke-width:15;stroke-linecap:round;stroke-linejoin:round;stroke-miterlimit:10;stroke-dasharray:none;stroke-opacity:1" transform="translate(359 168)"/><path d="M0 0h0" style="fill:none;stroke:#000;stroke-width:15;stroke-linecap:round;stroke-linejoin:round;stroke-miterlimit:10;stroke-dasharray:none;stroke-opacity:1" transform="translate(390 360)"/><path d="m0 0-29-38-5-3-92-27c-4-2-9 0-11 3L-243 85l-2 4-7 55c0 3 0 5 2 7l24 35 5 4 98 30c4 2 8 0 11-3l86-113 1-3L2 9c1-3 0-7-2-9" style="fill:#cdc0bb;fill-opacity:1;fill-rule:nonzero;stroke:none" transform="translate(260 83)"/><path d="m0 0 26-92c1-3 1-6-1-9l-29-37-5-4-22-6 22 29c2 2 3 6 2 9l-27 92-1 3-86 113c-2 3-7 4-11 3l-74-23 5 8c1 1 3 3 5 3l98 31c4 1 8-1 11-4L-2 3l2-3" style="fill:#b9acac;fill-opacity:1;fill-rule:nonzero;stroke:none" transform="translate(235 183)"/><path d="m0 0-24 32c-3 3-7 5-11 4l-98-31c-2 0-4-2-5-3l-25-36c-1-2-2-4-1-7l7-55 2-4 105-149c3-4 7-5 11-4l93 27 5 4 29 37c2 3 2 6 1 9L63-84l-2 3-41 55" style="fill:none;stroke:#000;stroke-width:15;stroke-linecap:round;stroke-linejoin:round;stroke-miterlimit:10;stroke-dasharray:none;stroke-opacity:1" transform="translate(172 267)"/><path d="m0 0-61 111 59-7" style="fill:none;stroke:#000;stroke-width:15;stroke-linecap:round;stroke-linejoin:round;stroke-miterlimit:10;stroke-dasharray:none;stroke-opacity:1" transform="translate(165 103)"/><path d="m0 0-26-53 59-7L59-7z" style="fill:none;stroke:#000;stroke-width:15;stroke-linecap:round;stroke-linejoin:round;stroke-miterlimit:10;stroke-dasharray:none;stroke-opacity:1" transform="translate(119 187)"/><path d="m0 0 27 5" style="fill:none;stroke:#000;stroke-width:15;stroke-linecap:round;stroke-linejoin:round;stroke-miterlimit:10;stroke-dasharray:none;stroke-opacity:1" transform="translate(15 169)"/><path d="m0 0 13-23" style="fill:none;stroke:#000;stroke-width:15;stroke-linecap:round;stroke-linejoin:round;stroke-miterlimit:10;stroke-dasharray:none;stroke-opacity:1" transform="translate(99 291)"/><path d="M0 0h0" style="fill:none;stroke:#000;stroke-width:15;stroke-linecap:round;stroke-linejoin:round;stroke-miterlimit:10;stroke-dasharray:none;stroke-opacity:1" transform="translate(214 96)"/><path d="M0 0h0" style="fill:none;stroke:#000;stroke-width:15;stroke-linecap:round;stroke-linejoin:round;stroke-miterlimit:10;stroke-dasharray:none;stroke-opacity:1" transform="translate(201 73)"/></g></svg>