<?xml version="1.0" encoding="iso-8859-1"?>
<!-- Generator: Adobe Illustrator 19.0.0, SVG Export Plug-In . SVG Version: 6.00 Build 0)  -->
<svg version="1.1" id="Capa_1" xmlns="http://www.w3.org/2000/svg" xmlns:xlink="http://www.w3.org/1999/xlink" x="0px" y="0px"
	 viewBox="0 0 512 512" style="enable-background:new 0 0 512 512;" xml:space="preserve">
<path style="fill:#BE6454;" d="M468.5,386.86c-23.69,16.13-68.51,8.06-90.4-3.84v0.08c0,7.39,39.28,31.54,47.8,33.49
	c0.09,0.02,0.18,0.04,0.26,0.06c-8.74,14.07-39.72,20.34-57.48,16.57c-0.4-0.08-0.8-0.18-1.2-0.27c-0.4-0.1-0.8-0.2-1.2-0.3
	c0.005-0.001,0.009-0.002,0.014-0.003c-16.74-4.17-31.34-14.428-44.254-25.457c-13.53-11.54-27.33-22.49-41.29-33.82
	C130.43,251.36,14.07,422.59,10.28,437.11c-0.65-17.07,16.81-59.25,31.25-79.81c14.02-19.96,72.54-73.74,148.89-87.86
	c41.23-7.63,66.41-5.66,106.87-7.94c49.62-2.8,94.1-36.48,102.86-81c27.61,14.08,54.26,33.36,66.3,60.03
	c12.04,26.67,4.3,61.53-23.19,73.35c20.17,7.65,44.31,4.19,59.95-8.58C509.05,335.94,494.61,369.08,468.5,386.86z"/>
<g>
	<path style="fill:#A35D54;" d="M30.382,376.203c-10.939,21.311-20.588,48.133-20.107,60.906
		c2.658-10.164,60.509-97.16,146.562-106.525C105.155,324.965,61.412,349.282,30.382,376.203z"/>
	<path style="fill:#A35D54;" d="M436.451,240.53c10.536,23.334,5.924,52.941-13.812,67.899c-3.152,2.389-1.484,7.413,2.467,7.607
		c10.093,0.498,19.866-1.503,18.149-2.155c27.493-11.824,35.236-46.685,23.196-73.352c-12.041-26.667-38.688-45.946-66.305-60.03
		c-1.017,5.169-2.534,10.185-4.467,15.031C413.187,207.55,428.227,222.316,436.451,240.53z"/>
	<path style="fill:#A35D54;" d="M426.16,416.65c-8.74,14.07-39.72,20.34-57.48,16.57c-0.4-0.08-0.8-0.18-1.2-0.27
		c-0.4-0.1-0.8-0.2-1.2-0.3c4.85-0.97,9.6-2.35,13.9-4.13c7.77-3.22,10.22-12.91,5.08-19.57c-4.44-5.77-7.77-14.55-7.16-25.85
		c0,7.39,39.28,31.54,47.8,33.49C425.99,416.61,426.08,416.63,426.16,416.65z"/>
	<path style="fill:#A35D54;" d="M503.212,305.297c-7.933,6.482-18.057,10.561-28.74,12.012c0.63,26.971-13.247,54.075-35.973,69.553
		c-6.049,4.12-13.479,6.653-21.55,7.955c18.667,2.496,38.376,1.018,51.55-7.955C494.613,369.077,509.051,335.942,503.212,305.297z"
		/>
</g>
<path style="fill:#CD795E;" d="M79.049,502.855c-40.819-9.863-70.714-50.388-71.531-82.039
	c-1.279-49.552,67.523-127.05,159.991-129.289c56.895-1.378,113.704,26.779,146.991,72.854
	c21.493,29.751,32.162,73.421,8.909,101.823c-12.4,15.146-33.29,22.858-52.579,19.411c10.773-28.51-6.923-46.351-13.276-55.671
	c-3.024,53.365-54.8,78.035-86.928,55.735c10.217-4.872,15.101-17.374,13.883-28.61c-2.395-22.106-31.544-57.312-61.573-61.97
	c-49.411-7.664-71.742,25.185-65.137,56.911c6.619,31.793,57.486,53.338,85.238,36.495
	C123.79,499.567,101.382,508.251,79.049,502.855z"/>
<path style="fill:#4C6B7F;" d="M295.652,179.999l-22.337-14.061c20.667-69.549,28.905-60.095,92.594-149.417
	c6.163-8.108,15.5-11.142,21.639-7.49c0.006,0.004,0.012,0.008,0.012,0.008c0.006,0.004,0.012,0.008,0.012,0.008
	s0.006,0.004,0.012,0.008c5.948,3.956,7.261,13.694,2.617,22.758C337.293,127.92,349.371,131.255,295.652,179.999z"/>
<path style="fill:#3B5366;" d="M387.584,9.053c-0.006-0.004-0.012-0.007-0.012-0.007s-0.006-0.004-0.012-0.008
	c0,0-0.006-0.003-0.012-0.007c-1.257-0.748-2.653-1.201-4.123-1.401c0.804,0.952,0.931,2.2,0.075,3.871
	c-50.408,91.568-62.522,110.779-110.014,154.545l22.166,13.953c53.719-48.743,41.642-52.078,94.549-148.187
	C394.845,22.747,393.531,13.009,387.584,9.053z"/>
<polygon style="fill:#FFD65C;" points="302.36,184.22 286.43,209.56 264.23,195.58 250.67,187.05 266.61,161.71 280.16,170.24 "/>
<polygon style="fill:#FFB254;" points="302.36,184.22 286.43,209.56 264.23,195.58 280.16,170.25 280.16,170.24 "/>
<polygon style="fill:#FFE9B5;" points="287.876,242.173 195.304,379.5 137,342.799 220.66,199.862 255.248,189.927 281.857,206.676 
	"/>
<polygon style="fill:#FFD467;" points="281.856,206.676 262.79,194.675 261.716,226.482 169.512,363.265 195.304,379.5 
	287.875,242.173 "/>
<path style="fill:#BE6454;" d="M146.447,485.49c-20.759,20.092-53.906,19.582-74.035-1.138s-19.619-53.804,1.14-73.896
	s53.906-19.582,74.035,1.138S167.206,465.399,146.447,485.49z"/>
<path style="fill:#CD795E;" d="M133.341,466.361c-9.187,5.248-21.676,0.709-27.895-10.138s-3.813-23.894,5.374-29.142
	s21.676-0.709,27.895,10.138S142.528,461.113,133.341,466.361z"/>
<path d="M510.595,303.897c-0.495-2.597-2.319-4.741-4.804-5.644c-2.484-0.905-5.261-0.434-7.307,1.238
	c-9.713,7.932-23.193,11.73-36.572,10.826c5.653-5.473,10.148-12.264,13.164-20.032c6.393-16.467,5.73-36.223-1.773-52.846
	c-11.077-24.536-33.885-45.35-69.731-63.632c-2.095-1.066-4.57-1.093-6.686-0.063c-2.116,1.028-3.626,2.99-4.08,5.297
	c-3.854,19.582-15.7,37.935-33.358,51.68c-17.647,13.736-39.869,22.007-62.566,23.287c-2.697,0.15-5.404,0.287-8.212,0.415
	l5.434-8.062c1.077-1.598,1.498-3.548,1.176-5.447l-4.307-25.397c0.712-0.541,1.333-1.203,1.817-1.974l15.931-25.336
	c1.872-2.976,1.388-6.757-0.944-9.183c31.785-29.775,38.48-43.554,54.584-76.723c7.997-16.471,17.95-36.971,34.423-66.896
	c0.036-0.065,0.071-0.131,0.104-0.197c6.319-12.335,4.11-26.275-5.144-32.429c-0.039-0.026-0.08-0.053-0.121-0.079
	c-0.076-0.049-0.152-0.097-0.23-0.143c-9.538-5.672-23.059-1.633-31.445,9.398c-0.046,0.062-0.092,0.123-0.136,0.185
	c-19.838,27.824-34.001,45.677-45.383,60.022c-22.907,28.875-32.422,40.874-45.486,82.42c-1.282-0.42-2.662-0.5-3.996-0.194
	c-1.94,0.441-3.626,1.636-4.685,3.321l-15.932,25.336c-0.495,0.787-0.817,1.631-0.993,2.491l-24.745,7.108
	c-1.853,0.532-3.429,1.757-4.403,3.421L199.9,220.479c-2.093,3.575-0.891,8.17,2.685,10.262c3.573,2.093,8.168,0.892,10.261-2.685
	l12.772-21.822l28.479-8.181l0,0l20.931,13.177l4.957,29.234L193.15,369.288l-46.01-28.963l0,0l0,0l49.296-84.23
	c2.093-3.575,0.891-8.17-2.685-10.262c-3.573-2.093-8.168-0.892-10.261,2.685l-9.949,17c-27.95,7.208-55.477,19.727-81.881,37.26
	c-15.946,7.821-30.952,17.97-44.498,30.242C17.379,360.004-0.686,393.726,0.02,421.026c0.877,34.244,32.135,78.233,77.267,89.135
	C82.358,511.388,87.609,512,93.024,512c9.564,0,19.637-1.918,30.101-5.731c8.718-1.942,17.085-5.841,24.394-11.721
	c0.217-0.16,0.42-0.332,0.615-0.512c1.206-0.996,2.39-2.031,3.532-3.137c11.483-11.114,17.941-26.027,18.187-41.991
	c0.056-3.66-0.231-7.271-0.817-10.807c4.508,7.13,7.41,14.146,8.023,19.795c0.843,7.761-2.205,17.478-9.661,21.031
	c-2.414,1.151-4.032,3.498-4.249,6.164c-0.216,2.665,1.003,5.245,3.199,6.769c9.172,6.367,19.879,9.582,30.947,9.581
	c9.051,0,18.345-2.151,27.233-6.486c18.246-8.899,31.416-25.221,37.275-45.401c4.52,8.513,7.304,19.442,2.02,33.434
	c-0.789,2.087-0.607,4.415,0.494,6.355c1.102,1.94,3.009,3.288,5.205,3.68c22.078,3.933,45.514-4.72,59.703-22.055
	c9.394-11.475,13.833-25.052,14.606-39.194c7.859,4.25,15.564,7.158,23.304,8.796c3.92,0.832,8.344,1.241,13.017,1.241
	c7.244,0,15.082-0.985,22.54-2.911c8.229-2.124,23.049-7.325,29.855-18.28c1.305-2.101,1.505-4.707,0.51-6.971
	c-0.994-2.264-3.026-3.89-5.455-4.351c-1.652-0.372-7.348-3.114-14.782-7.494c12.066,1.896,24.756,2.278,36.324,0.269
	c4.081-0.709,6.815-4.593,6.106-8.675c-0.709-4.08-4.582-6.812-8.674-6.106c-22.104,3.841-49.928-2.726-64.88-10.854
	c-2.275-1.238-5.028-1.212-7.284,0.065c-2.253,1.279-3.688,3.63-3.793,6.219c-0.132,3.248-0.378,9.295,24.293,25.58
	c4.552,3.004,11.494,7.311,17.851,10.681c-11.04,6.473-30.339,9.497-42.518,6.911c-8.848-1.871-17.805-5.858-27.296-12.145
	c-2.576-17.686-9.909-35.249-19.617-49.808c-2.298-3.446-6.956-4.376-10.402-2.079c-3.446,2.299-4.377,6.956-2.079,10.402
	c9.085,13.624,15.867,30.159,17.691,46.345c0.009,0.134,0.026,0.267,0.042,0.4c1.662,15.439-1.208,30.536-10.966,42.456
	c-8.848,10.811-22.976,17.298-37.01,17.472c4.99-23.857-7.342-40.383-14.33-49.746c-0.993-1.33-1.851-2.48-2.525-3.466
	c-1.811-2.654-5.109-3.863-8.203-2.998c-3.095,0.86-5.298,3.596-5.48,6.802c-1.321,23.361-13.328,42.777-32.117,51.941
	c-11.296,5.509-23.339,6.395-33.811,2.761c5.916-7.321,8.963-17.513,7.829-27.956c-1.372-12.645-9.747-28.287-22.403-41.842
	c-13.856-14.84-30.009-24.335-45.486-26.737c-25.319-3.928-46.82,1.875-60.551,16.336c-11.877,12.506-16.78,30.749-13.188,48.906
	c1.121,13.769,6.931,26.613,16.69,36.659c0.731,0.753,1.477,1.482,2.238,2.187c-31.743-13.174-53.611-45.992-54.255-71.147
	c-0.587-22.705,15.986-52.734,42.221-76.5c12.371-11.206,26.052-20.487,40.578-27.665c0.372-0.147,0.734-0.324,1.088-0.534
	c17.234-8.367,35.637-13.771,54.444-15.907l-22.815,38.983c-2.045,3.493-0.948,7.979,2.478,10.137l58.307,36.705
	c1.239,0.779,2.622,1.153,3.988,1.153c2.414,0,4.78-1.164,6.226-3.309l45.023-66.795c16.705,8.267,31.754,18.982,44.794,31.923
	c1.463,1.452,3.373,2.177,5.283,2.177c1.929,0,3.858-0.739,5.323-2.217c2.918-2.94,2.901-7.689-0.04-10.607
	c-5.017-4.979-10.307-9.653-15.849-14.015c20.001,3.534,42.302,5.988,65.692,5.988c14.38,0,29.174-0.927,44.089-3.1
	c4.099-0.598,6.938-4.405,6.341-8.504s-4.407-6.929-8.503-6.341c-51.419,7.491-101.532-0.586-137.323-9.852l21.914-32.511
	c7.22-0.249,13.349-0.521,19.449-0.86c25.716-1.451,50.909-10.837,70.939-26.427c17.623-13.717,30.292-31.542,36.397-50.961
	c27.587,15.392,45.927,32.863,54.572,52.014c5.883,13.031,6.429,28.449,1.462,41.244c-2.806,7.228-8.689,16.936-20.78,22.136
	c-2.808,1.207-4.602,3.997-4.535,7.053c0.066,3.056,1.981,5.766,4.838,6.85c18.332,6.954,39.586,5.688,56.393-2.726
	c0.275,20.985-9.138,42.423-25.619,56.982c-3.105,2.742-3.399,7.482-0.656,10.587c1.482,1.679,3.548,2.535,5.624,2.535
	c1.764,0,3.536-0.619,4.962-1.879C504.716,365.727,516.207,333.345,510.595,303.897z M65.147,447.301
	c0.185-11.952,5.022-23.119,13.621-31.442c8.702-8.423,19.969-12.613,31.227-12.613c11.721,0,23.433,4.545,32.216,13.587
	c8.338,8.583,12.829,19.893,12.644,31.844c-0.184,11.953-5.022,23.119-13.621,31.442c-0.813,0.787-1.656,1.525-2.512,2.238
	l-0.794,0.45c-0.014,0.008-0.028,0.017-0.042,0.024c-0.903,0.487-1.668,1.142-2.28,1.906c-17.714,12.305-42.314,10.362-57.814-5.592
	C69.453,470.561,64.963,459.253,65.147,447.301z M326.183,81.486c10.869-13.699,25.749-32.456,45.773-60.536
	c3.812-4.958,9.095-6.886,11.621-5.583c2.276,1.709,2.835,7.318,0.008,12.908c-16.625,30.207-27.08,51.742-34.717,67.472
	c-16.525,34.036-21.977,45.267-54.049,74.847l-12.667-7.974C294.918,120.897,302.676,111.116,326.183,81.486z M268.968,172.048
	l23.064,14.52l-7.946,12.637l-23.065-14.52L268.968,172.048z"/>
<path d="M125.055,476.04c4.153,0,8.269-1.012,12.008-3.148c5.672-3.241,9.79-8.681,11.597-15.322
	c2.119-7.791,0.866-16.563-3.436-24.067c-8.263-14.413-25.365-20.208-38.124-12.921c-5.671,3.24-9.789,8.681-11.596,15.32
	c-2.119,7.792-0.867,16.564,3.436,24.069C104.782,470.158,115.037,476.04,125.055,476.04z M109.98,439.84
	c0.532-1.958,1.756-4.629,4.561-6.231c1.4-0.8,2.969-1.177,4.597-1.177c4.76,0,10.03,3.224,13.074,8.533
	c2.336,4.075,3.056,8.691,1.974,12.668c-0.532,1.958-1.757,4.629-4.562,6.232c-5.493,3.139-13.586-0.232-17.67-7.356
	C109.618,448.434,108.898,443.817,109.98,439.84z"/>
<g>
</g>
<g>
</g>
<g>
</g>
<g>
</g>
<g>
</g>
<g>
</g>
<g>
</g>
<g>
</g>
<g>
</g>
<g>
</g>
<g>
</g>
<g>
</g>
<g>
</g>
<g>
</g>
<g>
</g>
</svg>
