<svg xmlns="http://www.w3.org/2000/svg" xml:space="preserve" style="enable-background:new 0 0 512 512" viewBox="0 0 512 512"><path d="M469 387c-24 16-69 8-91-4 0 7 39 32 48 34-9 14-40 20-57 16h-3c-16-5-31-15-44-26l-41-34C130 251 14 423 10 437c0-17 17-59 32-80 14-20 72-73 148-88 42-7 67-5 107-8 50-2 94-36 103-80 28 14 54 33 66 60 12 26 5 61-23 73 20 8 45 4 60-9 6 31-8 64-34 82z" style="fill:#be6454"/><path d="M30 376c-11 22-20 48-20 61 3-10 61-97 147-106-52-6-96 18-127 45zM436 241c11 23 6 52-13 67-4 3-2 8 2 8 10 1 20-1 18-2 28-12 35-47 23-73-12-27-38-46-66-61l-4 16c17 12 32 26 40 45zM426 417c-9 14-40 20-57 16h-3l14-4c8-4 10-13 5-20-4-6-8-15-7-26 0 7 39 32 48 34zM503 305c-8 7-18 11-29 12 1 27-13 54-36 70-6 4-13 7-21 8 19 2 38 1 51-8 27-18 41-51 35-82z" style="fill:#a35d54"/><path d="M79 503c-41-10-71-51-71-82-2-50 67-127 160-129 56-2 113 26 147 72 21 30 32 74 8 102a57 57 0 0 1-52 20c11-29-7-47-13-56-3 53-55 78-87 56 10-5 15-18 14-29-3-22-32-57-62-62-49-8-72 25-65 57 6 32 57 53 85 37-19 11-42 19-64 14z" style="fill:#cd795e"/><path d="m296 180-23-14c21-70 29-60 93-149 6-9 15-12 22-8 6 4 7 14 2 23-53 96-41 99-94 148z" style="fill:#4c6b7f"/><path d="m388 9-5-1 1 4c-51 91-63 110-111 154l23 14c53-49 41-52 94-148 5-9 4-19-2-23z" style="fill:#3b5366"/><path d="m302 184-16 26-22-14-13-9 16-25 13 8z" style="fill:#ffd65c"/><path d="m302 184-16 26-22-14 16-26z" style="fill:#ffb254"/><path d="m288 242-93 138-58-37 84-143 34-10 27 17z" style="fill:#ffe9b5"/><path d="m282 207-19-12-1 31-92 137 25 17 93-138z" style="fill:#ffd467"/><path d="M146 485a52 52 0 0 1-72-75 52 52 0 0 1 72 75z" style="fill:#be6454"/><path d="M133 466c-9 6-21 1-28-10s-3-24 6-29 21-1 28 10 4 24-6 29z" style="fill:#cd795e"/><path d="M511 304a7 7 0 0 0-13-5c-9 8-23 12-36 11 6-5 10-12 13-20 6-16 6-36-2-53-11-24-34-45-69-63a8 8 0 0 0-11 5c-4 20-16 38-34 52a113 113 0 0 1-70 23l5-8c1-1 2-3 1-5l-4-25 2-2 16-26c2-3 1-7-1-9 32-30 38-44 54-77 8-16 18-37 35-67 6-12 4-26-5-32a6 6 0 0 0-1 0c-9-6-23-2-31 9-20 28-34 46-46 60-22 29-32 41-45 83a7 7 0 0 0-9 3l-16 25-1 3-24 7c-2 0-4 1-5 3l-14 24a7 7 0 1 0 13 8l13-22 28-8 21 13 5 29-87 129-46-29 49-84a7 7 0 1 0-13-7l-9 17c-28 7-56 19-82 37-16 8-31 18-45 30-30 27-48 61-47 88 1 34 32 78 77 89l16 2c10 0 20-2 30-6a59 59 0 0 0 46-68c5 7 7 14 8 20 1 8-2 17-10 21a8 8 0 0 0-1 13c10 6 20 9 31 9 9 0 19-2 28-6 18-9 31-25 37-45 4 8 7 19 2 33a7 7 0 0 0 6 10 64 64 0 0 0 74-61c8 4 15 7 23 9l13 1 23-3c8-2 23-7 30-18a7 7 0 0 0-5-12l-15-7c12 2 25 2 36 0a8 8 0 0 0-2-15c-23 4-50-2-65-11a8 8 0 0 0-11 7c-1 3-1 9 24 25 4 3 11 8 18 11-11 6-31 9-43 7-9-2-18-6-27-12-3-18-10-36-20-50a8 8 0 0 0-12 8c9 14 16 30 18 47 1 15-2 31-11 42s-23 18-37 18c5-24-8-40-15-50l-2-3a7 7 0 0 0-14 4c-1 23-13 42-32 51-11 6-23 7-34 3 6-7 9-17 8-28-1-12-10-28-22-42a82 82 0 0 0-46-26c-25-4-47 2-60 16a55 55 0 0 0-14 49 59 59 0 0 0 19 39c-31-13-53-46-54-71-1-23 16-53 42-77a178 178 0 0 1 96-44l-22 39c-3 4-1 8 2 10l58 37a7 7 0 0 0 11-2l45-67c16 8 31 19 44 32a7 7 0 0 0 11 0c3-3 3-8 0-11l-16-14a379 379 0 0 0 110 3 8 8 0 0 0-2-15c-52 8-102 0-138-10l22-32 20-1c25-1 51-11 71-26 17-14 30-32 36-51 28 15 46 32 55 52 6 13 6 28 1 41-3 7-9 17-21 22a7 7 0 0 0 1 14c18 7 39 6 56-3 0 21-9 43-26 57a7 7 0 1 0 10 11c24-20 35-53 30-82zM65 447a44 44 0 0 1 45-44 45 45 0 0 1 29 79l-1 1-2 2a45 45 0 0 1-71-38zM326 81c11-13 26-32 46-60 4-5 9-7 12-6 2 2 2 8 0 13-17 30-27 52-35 68-17 34-22 45-54 75l-13-8c13-42 21-52 44-82zm-57 91 23 15-8 12-23-14 8-13z"/><path d="M125 476a24 24 0 0 0 24-18c2-8 1-17-4-24-8-15-25-21-38-13-6 3-10 8-11 15-3 8-1 16 3 24 6 10 16 16 26 16zm-15-36c1-2 2-5 5-6l4-2c5 0 10 4 13 9 3 4 3 9 2 13 0 2-2 4-4 6-6 3-14 0-18-7-2-5-3-9-2-13z"/></svg>