<svg xmlns="http://www.w3.org/2000/svg" width="512" height="512"><path fill="#9ea2e3" d="M255.97 37.5h-.01c-91.83 0-166.54 74.73-166.54 166.58h104.05a62.53 62.53 0 0 1 62.5-62.54V37.5z"/><path fill="#d4d4ff" d="M255.97 37.5v104.04a62.53 62.53 0 0 1 62.48 62.54h104.13c0-91.83-74.74-166.58-166.61-166.58z"/><path fill="#976bcf" d="M154 122.03h-34.58a82 82 0 0 0 0 164H154z"/><path fill="#b28ae4" d="M392.58 122.03H358v164h34.58a82 82 0 0 0 0-164zM353.26 33.61A194.01 194.01 0 0 0 278.2 8.8h-37.62v76.47l15.4 15.4h84.52l20.98-36.34a22.5 22.5 0 0 0-8.2-30.72z"/><path fill="#976bcf" d="M278.2 8.8c-7.36-.85-14.76-1.3-22.2-1.3a194.2 194.2 0 0 0-97.26 26.11 22.5 22.5 0 0 0-8.2 30.72l20.97 36.33h84.45V63.04c0-20.3 8-39.78 22.23-54.24z"/><path fill="#ffce71" d="M392.58 204.05c0-75.3-61.29-136.55-136.62-136.55l1.31 101.23c23.67-.3 39.02 23.85 30.45 45.18l-28.93 72.01 29.08 73.58c8 20.22-5.37 43.22-27.54 44.88l1.3 99.96c72.66-2.98 130.85-63.03 130.85-136.42 0-30.7-10.18-59.05-27.33-81.88a135.8 135.8 0 0 0 27.43-81.99z"/><path fill="#ffb357" d="M261.46 286.03c56.65-62.69 54.25-158.78-5.5-218.53-75.3 0-136.54 61.27-136.54 136.58 0 30.72 10.2 59.1 27.38 81.95a135.87 135.87 0 0 0-27.38 81.95c0 75.31 64.07 136.52 139.38 136.52 60.2-60.36 62.96-158.17 2.66-218.47zM256 176.77a27.35 27.35 0 0 1 27.32 27.31 27.35 27.35 0 0 1-27.25 27.32h-.14a27.35 27.35 0 0 1-27.24-27.32A27.35 27.35 0 0 1 256 176.77zm0 218.53a27.35 27.35 0 0 1-27.32-27.32 27.35 27.35 0 0 1 27.25-27.32h.14a27.35 27.35 0 0 1 27.25 27.32A27.35 27.35 0 0 1 256 395.3z"/><g fill="#ff8e9e"><path d="M186.44 284.19c-16.2 0-29.35 10.46-29.35 23.37s13.14 23.38 29.35 23.38 29.36-10.47 29.36-23.38c0-12.9-13.14-23.37-29.36-23.37zM325.56 284.19c-16.21 0-29.36 10.46-29.36 23.37s13.15 23.38 29.36 23.38 29.35-10.47 29.35-23.38c0-12.9-13.14-23.37-29.35-23.37z"/></g><path d="M256 402.8a34.85 34.85 0 0 0 34.82-34.82c0-20.62-17.84-35.5-34.91-34.81a34.88 34.88 0 0 0-34.73 34.81A34.86 34.86 0 0 0 256 402.8zm.1-54.64a19.85 19.85 0 0 1 19.72 19.82c0 10.93-8.9 19.81-19.82 19.81s-19.81-8.89-19.81-19.81c0-10.02 7.65-19.5 19.91-19.82zM290.82 204.08c0-19.2-15.62-34.81-34.82-34.81s-34.82 15.61-34.82 34.81a34.88 34.88 0 0 0 34.75 34.82h.16a34.87 34.87 0 0 0 34.73-34.82zm-34.74 19.82h-.18a19.85 19.85 0 0 1-19.72-19.82c0-10.93 8.9-19.81 19.82-19.81s19.82 8.89 19.82 19.81a19.85 19.85 0 0 1-19.74 19.82zM211.05 285.06v-12a7.5 7.5 0 1 0-15 0v12a7.5 7.5 0 1 0 15 0zM315.95 285.06v-12a7.5 7.5 0 1 0-15 0v12a7.5 7.5 0 1 0 15 0zM266.81 279.78a14.33 14.33 0 0 1-21.62 0 7.5 7.5 0 0 0-11.3 9.85 29.33 29.33 0 0 0 44.23 0 7.5 7.5 0 1 0-11.31-9.85z"/><path d="M482.08 204.03a89.2 89.2 0 0 0-14.11-48.27 7.5 7.5 0 0 0-12.63 8.1 74.2 74.2 0 0 1 11.74 40.17c0 41.08-33.42 74.5-74.5 74.5H379.3c28.6-46.78 27.2-103.3-.25-149h13.54a73.91 73.91 0 0 1 44.23 14.54 7.47 7.47 0 0 0 10.49-1.57 7.5 7.5 0 0 0-1.58-10.49 88.67 88.67 0 0 0-39.93-16.5A173.97 173.97 0 0 0 366.85 70l1.11-1.92a30.04 30.04 0 0 0-10.93-40.96 201.71 201.71 0 0 0-202.05 0 30.04 30.04 0 0 0-10.94 40.96l1.1 1.9a173.89 173.89 0 0 0-38.95 45.53c-43.1 6.41-76.27 43.66-76.27 88.52 0 49.35 40.15 89.5 89.5 89.5h13.3a144.1 144.1 0 0 0-6.88 12.69 7.5 7.5 0 1 0 13.54 6.45 129.7 129.7 0 0 1 11.24-19.14h3.18a7.5 7.5 0 1 0 0-15h-3.17C90.01 193.27 152.22 75 255.96 75c103.93 0 165.88 118.5 105.36 203.53h-3.17a7.5 7.5 0 1 0 0 15h3.15c56.93 80.32 4.6 203.43-105.62 203.43-78.81-1.9-144.18-75.64-125.57-157.58a7.5 7.5 0 1 0-14.63-3.32c-10.68 47.05 2.51 97.21 40.16 133.8C183.6 497.03 220.24 512 258.8 512c37.37 0 75-17.35 100.9-44.27a143.72 143.72 0 0 0 19.54-174.2h13.34c49.35 0 89.5-40.15 89.5-89.5zm-349.4 74.5h-13.26c-41.08 0-74.5-33.42-74.5-74.5s33.42-74.5 74.5-74.5h13.6c-27.05 44.8-29.57 101.21-.35 149zm10.71-164h-18.8a158.87 158.87 0 0 1 28.16-31.37l7.63 13.22c-6 5.4-11.6 11.3-16.99 18.15zm196.46-27.77C315.77 69.37 286.78 60 255.96 60c-30.7 0-59.65 9.4-83.77 26.84l-15.16-26.26a15.02 15.02 0 0 1 5.47-20.48 186.69 186.69 0 0 1 187 0 15.02 15.02 0 0 1 5.47 20.48zm11.82 9.54 7.57-13.12c10.78 9.2 20.2 19.7 28.15 31.35h-18.68a142.44 142.44 0 0 0-17.04-18.23z"/></svg>