<svg xmlns="http://www.w3.org/2000/svg" width="682.7" height="682.7"><defs><clipPath id="a" clipPathUnits="userSpaceOnUse"><path d="M0 512h512V0H0Z"/></clipPath></defs><g clip-path="url(#a)" transform="matrix(1.333 0 0 -1.333 0 683)"><path d="M0 0h-136c-29 0-56 18-66 45l-13 35h190l40 130h80l18-59A118 118 0 0 0 0 0" style="fill:#c68a65;fill-opacity:1;fill-rule:nonzero;stroke:none" transform="translate(295 100)"/><path d="M0 0h-136c-29 0-56 18-66 45l-13 35h190l40 130h80l18-59c9-31 5-65-12-93v0C80 22 42 0 0 0Z" style="fill:none;stroke:#231e1e;stroke-width:20;stroke-linecap:round;stroke-linejoin:round;stroke-miterlimit:10;stroke-dasharray:none;stroke-opacity:1" transform="translate(295 100)"/><path d="M0 0h-20c0-28 22-50 50-50h183a77 77 0 0 1 77 77l-30 73-19-24a70 70 0 0 0-55-26H50C22 50 0 28 0 0" style="fill:#8690a6;fill-opacity:1;fill-rule:nonzero;stroke:none" transform="translate(50 210)"/><path d="M0 0v0h-20v0c0-28 22-50 50-50h183c23 0 46 11 60 29h0c11 14 17 31 17 48l-30 73-19-24a70 70 0 0 0-55-26H50C22 50 0 28 0 0Z" style="fill:none;stroke:#231e1e;stroke-width:20;stroke-linecap:round;stroke-linejoin:round;stroke-miterlimit:10;stroke-dasharray:none;stroke-opacity:1" transform="translate(50 210)"/><path d="M0 0v50h-40v-60c0-17 13-30 30-30h96L66 10Z" style="fill:#ffc15a;fill-opacity:1;fill-rule:nonzero;stroke:none" transform="translate(213 50)"/><path d="M0 0v50h-40v-60c0-17 13-30 30-30h96L66 10Z" style="fill:none;stroke:#231e1e;stroke-width:20;stroke-linecap:round;stroke-linejoin:round;stroke-miterlimit:10;stroke-dasharray:none;stroke-opacity:1" transform="translate(213 50)"/><path d="M0 0h20" style="fill:none;stroke:#231e1e;stroke-width:20;stroke-linecap:round;stroke-linejoin:round;stroke-miterlimit:10;stroke-dasharray:none;stroke-opacity:1" transform="translate(50 210)"/><path d="M0 0c-18-18-47-52-75-52h-145" style="fill:none;stroke:#231e1e;stroke-width:20;stroke-linecap:round;stroke-linejoin:round;stroke-miterlimit:10;stroke-dasharray:120,45,0,45;stroke-dashoffset:0;stroke-opacity:1" transform="translate(330 262)"/><path d="M0 0h-70v-40h80Z" style="fill:#f9f9f9;fill-opacity:1;fill-rule:nonzero;stroke:none" transform="translate(380 350)"/><path d="M0 0h-70v-40h80Z" style="fill:none;stroke:#231e1e;stroke-width:20;stroke-linecap:round;stroke-linejoin:round;stroke-miterlimit:10;stroke-dasharray:none;stroke-opacity:1" transform="translate(380 350)"/><path d="M0 0h-19c-32 0-55-29-49-60l18-92h70l-6 24c-5 19-1 38 19 38h17v40C50-22 28 0 0 0" style="fill:#78d0a9;fill-opacity:1;fill-rule:nonzero;stroke:none" transform="translate(360 502)"/><path d="M0 0h-19c-32 0-55-29-49-60l18-92h70l-6 24c-5 19-1 38 19 38h17v40C50-22 28 0 0 0Z" style="fill:none;stroke:#231e1e;stroke-width:20;stroke-linecap:round;stroke-linejoin:round;stroke-miterlimit:10;stroke-dasharray:none;stroke-opacity:1" transform="translate(360 502)"/><path d="M0 0h-33v40h72L27 17C22 6 11 0 0 0" style="fill:#ffc15a;fill-opacity:1;fill-rule:nonzero;stroke:none" transform="translate(443 412)"/><path d="M0 0h-33v40h72L27 17C22 6 11 0 0 0Z" style="fill:none;stroke:#231e1e;stroke-width:20;stroke-linecap:round;stroke-linejoin:round;stroke-miterlimit:10;stroke-dasharray:none;stroke-opacity:1" transform="translate(443 412)"/><path d="M0 0v0" style="fill:none;stroke:#231e1e;stroke-width:20;stroke-linecap:round;stroke-linejoin:round;stroke-miterlimit:10;stroke-dasharray:none;stroke-opacity:1" transform="translate(350 462)"/></g></svg>