<svg xmlns="http://www.w3.org/2000/svg" width="512pt" height="512pt" viewBox="0 -35 512 512"><path fill="#cb7a6f" d="M317.7 217.7a65.5 65.5 0 1 1-131 0 65.5 65.5 0 0 1 131 0zm0 0"/><path fill="#3f22a8" d="M320.5 419.7a239.8 239.8 0 0 1-184 7.9A239 239 0 0 1 1 303c-1.8-3.8-.3-8.5 3.6-10C30 282.8 111 389.6 273.8 350.4c97-23.4 96-121 75.8-164.4-33-70.7-125.1-67.1-161.1-6.8-15.3 25.6-3.3 77 18.7 85 22 8.1 29.7 6.5 52.7 1.8l1.1-.3a47.7 47.7 0 1 0-23.2-92.3h-.3c-4.2.4-8.3.1-10-3.7a7.6 7.6 0 0 1 3.6-10 68.3 68.3 0 0 1 91.2 33.3 83.4 83.4 0 0 1 2.8 64 83.4 83.4 0 0 1-43.4 47.4c-25 11.6-53 12.8-78.8 3.4a102.3 102.3 0 0 1-58.1-53.3 126 126 0 0 1-4.2-97A126 126 0 0 1 206.3 86a156.9 156.9 0 0 1 208.2 76c45.1 97 3 212.5-94 257.7zm0 0"/><path fill="#7925a5" d="M506.7 178.6c-4 1.2-8.3-1-9.6-5C479.2 116 343.4 50.6 249.5 79c-45.7 13.8-62.9 18.2-91.2 60.7-26.5 39.8-20 63.4-12 98 8.5 36.8 54.2 77.8 110.6 67 29.3-5.6 77.9-38.3 62.3-99.6a54.5 54.5 0 0 0-51.8-41.1c-13.4-.2-22.7 6.5-29.9 9.5l-.5.2a47.7 47.7 0 0 0 22.7 92.4h.2c4.1.5 8.2 1 9.5 5 1.3 4-1 8.2-5 9.5a68.2 68.2 0 0 1-86-45.1 83.4 83.4 0 0 1 5.8-64 83.3 83.3 0 0 1 49.3-41.1c26.3-8.2 54.2-5.7 78.5 7a102.3 102.3 0 0 1 50.6 60.6 126 126 0 0 1-8.8 96.7 126 126 0 0 1-74.6 62.2 157 157 0 0 1-119.4-10.8 155.7 155.7 0 0 1-76.8-92 192.6 192.6 0 0 1 13.3-148c24.1-45.8 64.6-79.6 114-95a239 239 0 0 1 183.4 16.6 239 239 0 0 1 118 141.4c1.2 4-1 8.2-5 9.5zm0 0"/><path fill="#fff75b" d="M283.7 217.7a31.5 31.5 0 1 1-63 0 31.5 31.5 0 0 1 63 0zm0 0"/><path fill="#ff7ae5" d="M433.2 182a21 21 0 1 1-42 0 21 21 0 0 1 42 0zm0 0"/><path fill="#fff75b" d="M117 121.3a21 21 0 1 1-42 0 21 21 0 0 1 42 0zM437.1 402.7h-4.5v-4.4a7.6 7.6 0 1 0-15.2 0v4.4H413a7.6 7.6 0 0 0 0 15.2h4.4v4.5a7.6 7.6 0 1 0 15.2 0V418h4.5a7.6 7.6 0 1 0 0-15.2zm0 0"/><path d="M84.9 160.5c-4.2-.7-8 2.2-8.7 6.3a192 192 0 0 0 6.6 87.2 156.1 156.1 0 0 0 121 107.4 22.8 22.8 0 0 0 44 1.9c10.5-1 21-3.2 31.3-6.4a127 127 0 0 0 83.3-159 103.2 103.2 0 0 0-129-67.6 83.4 83.4 0 0 0-49.4 41.2 83.4 83.4 0 0 0-5.8 64 68.2 68.2 0 0 0 33.7 40.3 68.2 68.2 0 0 0 52.3 4.7 7.6 7.6 0 1 0-4.5-14.5 53.1 53.1 0 0 1-67-35 68.3 68.3 0 0 1 4.8-52.5 68.3 68.3 0 0 1 40.4-33.7 88 88 0 0 1 110 57.7 111.8 111.8 0 0 1-73.4 139.9c-9 2.8-18.1 4.7-27.3 5.6a22.8 22.8 0 0 0-41.6-1.8 141.9 141.9 0 0 1-108.3-96.7 177 177 0 0 1-6-80.4c.5-4.1-2.3-8-6.4-8.6zM226 348.8a7.6 7.6 0 1 1 0 15.3 7.6 7.6 0 0 1 0-15.3zm0 0"/><path d="M511.5 169a239 239 0 0 0-118-141.4A239 239 0 0 0 210.3 11a193.3 193.3 0 0 0-106.9 82.7 28.5 28.5 0 0 0-36 27.6 28.6 28.6 0 1 0 49.1-20c22.7-36.1 57.3-63 98.3-75.7A223.9 223.9 0 0 1 386.5 41 224 224 0 0 1 497 173.5a7.6 7.6 0 1 0 14.5-4.5zM95.9 134.6a13.4 13.4 0 1 1 0-26.7 13.4 13.4 0 0 1 0 26.7zm0 0"/><path d="M206.1 86a127 127 0 0 0-61.5 168.6 103.2 103.2 0 0 0 137 49.9 84 84 0 0 0 40.6-111.6 68.8 68.8 0 0 0-91.2-33.2 7.6 7.6 0 0 0 6.4 13.8 53.5 53.5 0 0 1 71 25.9c16 34.3 1 75.3-33.3 91.3A88 88 0 0 1 158.4 248a111.8 111.8 0 0 1 54.1-148.3 140.7 140.7 0 0 1 106.8-5.2 140.6 140.6 0 0 1 76.3 64.1 28.6 28.6 0 1 0 14.5-5.1 155.7 155.7 0 0 0-85.7-73.3A155.8 155.8 0 0 0 206 86zm219.3 96a13.4 13.4 0 1 1-26.8 0 13.4 13.4 0 0 1 26.8 0zm0 0"/><path d="M432 230.4a7.6 7.6 0 1 0-15.1 1 178.5 178.5 0 0 1-103 174.4 223.9 223.9 0 0 1-172.3 7.5A224 224 0 0 1 14.5 296.7 7.6 7.6 0 1 0 .7 303a239 239 0 0 0 135.7 124.4 239.8 239.8 0 0 0 184-8A193.6 193.6 0 0 0 432 230.3zm0 0"/><path d="M252 178.5a39.2 39.2 0 1 0 .1 78.3 39.2 39.2 0 0 0 0-78.3zm0 63a24 24 0 1 1 0-47.9 24 24 0 0 1 0 48zM437 402.7h-4.5v-4.5a7.6 7.6 0 1 0-15.2 0v4.5h-4.5a7.6 7.6 0 0 0 0 15.2h4.5v4.5a7.6 7.6 0 0 0 15.2 0v-4.5h4.5a7.6 7.6 0 1 0 0-15.2zM391 59.2a7.6 7.6 0 0 0-7.5 7.6v4.5H379a7.6 7.6 0 0 0 0 15.2h4.5V91a7.6 7.6 0 1 0 15.2 0v-4.5h4.4a7.6 7.6 0 1 0 0-15.2h-4.4v-4.5c0-4.2-3.4-7.6-7.6-7.6zM69.5 38.2h4.4v4.5a7.6 7.6 0 0 0 15.2 0v-4.5h4.5a7.6 7.6 0 0 0 0-15.2h-4.5v-4.5a7.6 7.6 0 1 0-15.2 0V23h-4.4a7.6 7.6 0 1 0 0 15.2zM62.9 342.8h4.4v4.5a7.6 7.6 0 1 0 15.2 0v-4.5H87a7.6 7.6 0 1 0 0-15.2h-4.5v-4.5a7.6 7.6 0 1 0-15.2 0v4.5H63a7.6 7.6 0 1 0 0 15.2zM296 261.8a9.1 9.1 0 1 1-18.3 0 9.1 9.1 0 0 1 18.2 0zM261.1 106.5a9.1 9.1 0 1 1-18.2 0 9.1 9.1 0 0 1 18.2 0zM326.7 371.6a9.1 9.1 0 1 1-18.3 0 9.1 9.1 0 0 1 18.3 0zM57.1 203a9.1 9.1 0 1 1-18.2 0 9.1 9.1 0 0 1 18.2 0zM476.6 212.1a9.1 9.1 0 1 1-18.2 0 9.1 9.1 0 0 1 18.2 0zm0 0"/></svg>