<svg xmlns="http://www.w3.org/2000/svg" xml:space="preserve" style="enable-background:new 0 0 512 512" viewBox="0 0 512 512"><path d="M379 469A246 246 0 1 1 133 43a246 246 0 0 1 246 426z" style="fill:#78d2fa"/><path d="m273 182-6 3c-2 1 1 3 0 4-2 2-3 4-7 4-9 0-21-11-29-15 13-12-7-14-14-14-10 1-26 0-35 5-6 4-14 18-19 23-7 8-13 15-18 24-16 34 9 73 48 69 11-1 22-8 32 1 7 6 3 13 5 20s9 11 12 17c5 12 1 19-2 30-5 15 7 31 12 45 2 7 9 26 16 30 10 4 27-10 33-18 5-6 3-12 6-17 4-7 9-8 11-16 3-9 5-11 11-17 9-10 8-16 4-28-7-24 20-36 33-54s-12-12-22-18c-10-7-15-20-20-30s-9-26-17-35c-6-6-25-9-34-13zM400 347l-11 39c-3 10-13 40-26 21-6-8-1-17 1-24 4-9-1-13 2-21 3-9 15-10 20-16l10-17 4 18z" style="fill:#a5dc69"/><path d="M469 133A246 246 0 0 0 274 11l-33 40-68 24-19 45 29 40 3-8c5-15 18-24 33-24h47l54 19 19 18v11l26 50 7-3c16-6 31-16 43-28l-6-9c-2-3 0-7 4-7h15c4 0 9 2 11 5l13 15 2 4 14 38 7-7c4-4 6-10 6-15s2-9 5-12l5-5 4-3c-5-22-14-45-26-66zM101 143l12-13c8-9 11-22 6-34s-16-20-28-22c-44 39-71 92-79 148l19 18 35-4-18-27 25-18 28-48zM125 388c11-4 17-16 14-27l-4-10v-13c4-12-3-25-16-27l-24-5-46-34-37 12a245 245 0 0 0 92 165l11-58 10-3z" style="fill:#a5dc69"/><path d="M374 460v1a10 10 0 0 0 10 17 10 10 0 0 0-10-18z"/><path d="M478 128a254 254 0 0 0-350-94 254 254 0 0 0-94 350 256 256 0 0 0 314 111 10 10 0 1 0-8-19c-78 30-162 17-225-31l9-46 4-2c16-5 25-23 20-39l-3-10v-7a31 31 0 0 0-24-40l-22-4-44-33c-2-2-6-3-9-2l-25 8v-27a58 58 0 0 1 3 4c3 2 4 3 8 3l18-2 17-3a10 10 0 0 0 7-15l-12-18 17-13 3-3 27-47 11-12c11-12 15-30 8-45-3-9-10-16-18-21a237 237 0 0 1 143-51l-18 23-66 23-6 5-18 45c-1 3-1 7 1 10l27 38c-4 3-8 8-12 15l-5 7-4 3c-5 7-11 14-16 23-9 20-7 43 5 60a56 56 0 0 0 63 21c9-2 11-3 14 0l1 6 1 10c2 6 6 10 9 13l3 5c4 8 2 12-1 21l-1 2c-4 14 2 28 8 40l4 11c9 27 16 33 22 36l8 1c15 0 30-13 37-21 4-6 5-11 6-15l1-4 3-5c3-3 6-6 9-13 1-5 2-7 6-11l3-2c13-15 9-26 6-38-3-9 2-16 15-28 6-5 11-10 16-17 2-3 8-11 4-20-4-8-13-10-20-11l-9-2c-6-4-10-12-13-21l-3-4-4-10c-3-9-7-20-14-28-7-6-19-9-29-12l-9-3h-6l-11 4-3 5-12-7c1-5 0-8-1-10-6-12-24-11-28-11l-7 1-14 1v-1c4-10 13-17 24-17h6a10 10 0 0 0 0-20h-6c-16 0-30 8-39 22l-15-21 15-36 65-22 4-4 29-36a236 236 0 0 1 206 174l-4 4a27 27 0 0 0-9 20l-7-19-5-8-12-14c-5-6-12-9-19-9h-15a14 14 0 0 0-12 22l1 3c-9 8-21 15-33 19l-20-39v-9c0-3-1-6-3-7l-19-18-4-2-16-6a10 10 0 1 0-7 19l15 5 14 13v7l1 5 26 49c2 5 7 7 12 5l8-3c17-6 33-17 46-30 4-3 4-8 2-12l-1-1h5c1 0 3 0 4 2l12 14 1 2 14 37a10 10 0 0 0 16 4l7-7c4-4 7-9 8-15 10 80-22 163-88 215a10 10 0 1 0 12 16 256 256 0 0 0 64-329zM47 283l42 31 4 2 25 5c3 0 5 2 7 5s2 6 1 9c-2 6-2 13 0 19l3 10c2 6-1 12-7 14l-10 3c-3 2-6 5-7 8l-8 42a239 239 0 0 1-74-140l24-8zm-26-43zm89-140c3 8 1 17-4 23l-12 13-2 2-26 46-24 17c-4 3-6 10-2 14l8 13-12 2a160 160 0 0 0-13-11c8-51 33-98 71-134 7 2 13 8 16 15zm99 75a182 182 0 0 0 13-1 10 10 0 0 0 5 13l7 4c8 6 17 11 25 12s12-4 14-6l3-3 5 1c6 2 17 5 19 7 4 5 8 14 11 21l4 11 2 5c5 10 10 22 21 29 5 3 11 4 17 5h2c-3 5-8 9-13 14-12 11-27 25-20 48 3 11 3 12-2 18l-2 2c-5 5-9 9-12 19 0 2-2 4-4 6l-5 7-4 11-2 6c-3 3-7 8-13 11-4 3-7 4-8 3s-5-6-11-23l-5-13c-4-9-9-19-7-26l1-2c4-10 7-20 1-35l-7-10-4-5-1-5c0-5 1-13-7-21-11-10-24-7-33-5l-7 2c-14 2-27-4-35-15s-9-26-3-40c3-6 8-11 13-17l4-4 6-9 10-12c5-3 15-3 22-3z"/><path d="M374 423c10-2 18-13 24-34l12-39v-6l-5-18a10 10 0 0 0-18-2l-3 6-5 9-6 4c-6 2-14 6-17 16-2 6-1 11 0 14l-1 6c-3 8-9 22-1 33 6 9 13 11 17 11h3zm-3-22c-2-3 1-10 3-14 3-7 2-13 1-17v-5c1-1 3-3 7-4l5-3-8 26c-3 10-6 15-8 18v-1zM269 119a10 10 0 0 0-6 18v1a10 10 0 1 0 7-19h-1z"/></svg>