<?xml version="1.0" encoding="iso-8859-1"?>
<!-- Generator: Adobe Illustrator 19.0.0, SVG Export Plug-In . SVG Version: 6.00 Build 0)  -->
<svg version="1.1" id="Capa_1" xmlns="http://www.w3.org/2000/svg" xmlns:xlink="http://www.w3.org/1999/xlink" x="0px" y="0px"
	 viewBox="0 0 512 512" style="enable-background:new 0 0 512 512;" xml:space="preserve">
<rect x="187.554" y="397.951" style="fill:#239999;" width="136.881" height="77.5"/>
<path style="fill:#45B8C4;" d="M437.567,71.855h15.195c28.518,0,51.634,23.115,51.634,51.623V362.45
	c0,28.507-23.115,51.623-51.634,51.623H59.227c-28.518,0-51.623-23.115-51.623-51.623V123.478c0-28.507,23.104-51.623,51.623-51.623
	h12.331"/>
<path style="fill:#424C59;" d="M71.557,110.797H59.227c-6.998,0-12.681,5.695-12.681,12.693v238.95
	c0,6.998,5.684,12.693,12.681,12.693h40.413h309.846h43.277c6.998,0,12.693-5.695,12.693-12.693v-238.95
	c0-6.998-5.695-12.693-12.693-12.693h-15.195"/>
<path style="fill:#45B8C4;" d="M369.051,500.167H142.949l0,0c0-22.158,17.963-40.122,40.122-40.122H328.93
	C351.088,460.047,369.051,478.009,369.051,500.167L369.051,500.167z"/>
<path style="fill:#FCC63F;" d="M391.646,11.833c0,127.34,0,75.874,0,142.313S339.048,292.56,256,314.706
	c-83.047-22.146-135.645-94.121-135.645-160.559s0-14.973,0-142.313h271.29V11.833z"/>
<g>
	<polygon style="fill:#F9572B;" points="274.685,180.608 237.315,180.608 231.818,39.916 280.182,39.916 	"/>
	<circle style="fill:#F9572B;" cx="256" cy="237.761" r="24.182"/>
</g>
<path d="M7.604,159.635c4.199,0,7.604-3.405,7.604-7.604v-28.552c0-24.272,19.747-44.019,44.019-44.019h34.315
	c4.199,0,7.604-3.405,7.604-7.604c0-4.199-3.405-7.604-7.604-7.604H59.227C26.569,64.251,0,90.821,0,123.478v28.552
	C0,156.23,3.405,159.635,7.604,159.635z"/>
<path d="M452.763,64.251h-37.18c-4.2,0-7.604,3.405-7.604,7.604c0,4.199,3.404,7.604,7.604,7.604h37.18
	c24.278,0,44.029,19.747,44.029,44.019V362.45c0,24.272-19.751,44.019-44.03,44.019H59.227c-24.272,0-44.019-19.747-44.019-44.019
	V179.511c0-4.199-3.405-7.604-7.604-7.604S0,175.312,0,179.511V362.45c0,32.658,26.569,59.227,59.227,59.227h120.728v30.878
	c-24.867,1.612-44.609,22.344-44.609,47.612c0,4.199,3.405,7.604,7.604,7.604h226.101c4.2,0,7.604-3.405,7.604-7.604
	c0-25.268-19.741-46.001-44.609-47.612v-30.878h120.716c32.664,0,59.238-26.569,59.238-59.227V123.478
	C512,90.821,485.427,64.251,452.763,64.251z M360.549,492.563H151.451c3.433-14.274,16.307-24.914,31.62-24.914H328.93
	C344.242,467.651,357.116,478.289,360.549,492.563z M316.838,452.443H195.162v-30.766h121.677v30.766H316.838z"/>
<path d="M59.227,118.401h34.315c4.199,0,7.604-3.405,7.604-7.604c0-4.199-3.405-7.604-7.604-7.604H59.227
	c-11.185,0-20.285,9.104-20.285,20.296v238.95c0,11.191,9.1,20.297,20.285,20.297h393.536c11.191,0,20.297-9.104,20.297-20.297
	v-238.95c0-11.191-9.104-20.296-20.297-20.296h-37.18c-4.2,0-7.604,3.405-7.604,7.604c0,4.199,3.404,7.604,7.604,7.604h37.18
	c2.806,0,5.089,2.282,5.089,5.089v238.95c0,2.805-2.282,5.089-5.089,5.089H59.227c-2.799,0-5.077-2.282-5.077-5.089v-238.95
	C54.149,120.684,56.427,118.401,59.227,118.401z"/>
<path d="M254.04,322.053c0.642,0.171,1.301,0.257,1.96,0.257s1.317-0.085,1.959-0.257c41.131-10.968,76.719-33.871,102.917-66.233
	c24.745-30.568,38.374-66.677,38.374-101.674V11.833c0-4.199-3.404-7.604-7.604-7.604H356.03c-4.2,0-7.604,3.405-7.604,7.604
	s3.404,7.604,7.604,7.604h28.012v134.71c0,31.525-12.425,64.235-34.986,92.105c-23.398,28.903-56.381,50.358-93.055,60.573
	c-36.673-10.215-69.657-31.67-93.055-60.573c-22.56-27.869-34.985-60.579-34.985-92.105V19.437h200.588
	c4.2,0,7.604-3.405,7.604-7.604s-3.404-7.604-7.604-7.604H120.355c-4.199,0-7.604,3.405-7.604,7.604v142.314
	c0,34.997,13.627,71.106,38.374,101.674C177.322,288.181,212.91,311.085,254.04,322.053z"/>
<path d="M237.315,188.212h37.371c4.084,0,7.439-3.226,7.598-7.307l5.496-140.693c0.081-2.067-0.684-4.077-2.117-5.568
	c-1.434-1.49-3.413-2.333-5.481-2.333h-48.363c-2.068,0-4.047,0.843-5.481,2.333c-1.434,1.49-2.198,3.501-2.117,5.568l5.496,140.693
	C229.876,184.986,233.231,188.212,237.315,188.212z M272.275,47.52l-4.902,125.485h-22.745L239.726,47.52H272.275z"/>
<path d="M256,269.55c17.527,0,31.786-14.259,31.786-31.786S273.527,205.979,256,205.979s-31.786,14.259-31.786,31.786
	S238.473,269.55,256,269.55z M256,221.187c9.141,0,16.578,7.437,16.578,16.578c0,9.141-7.437,16.578-16.578,16.578
	c-9.141,0-16.578-7.437-16.578-16.578C239.422,228.624,246.859,221.187,256,221.187z"/>
<g>
</g>
<g>
</g>
<g>
</g>
<g>
</g>
<g>
</g>
<g>
</g>
<g>
</g>
<g>
</g>
<g>
</g>
<g>
</g>
<g>
</g>
<g>
</g>
<g>
</g>
<g>
</g>
<g>
</g>
</svg>
