<?xml version="1.0" encoding="iso-8859-1"?>
<!-- Generator: Adobe Illustrator 19.0.0, SVG Export Plug-In . SVG Version: 6.00 Build 0)  -->
<svg version="1.1" id="Capa_1" xmlns="http://www.w3.org/2000/svg" xmlns:xlink="http://www.w3.org/1999/xlink" x="0px" y="0px"
	 viewBox="0 0 512 512" style="enable-background:new 0 0 512 512;" xml:space="preserve">
<g>
	<path style="fill:#F9572B;" d="M265.42,344.186l2.981,100.149h-228.3c-17.955,0-32.494-14.559-32.494-32.494V100.161
		c0-17.945,14.539-32.494,32.494-32.494h212.271l-11.487,83.521L226.6,254.966h29.858l-14.924,89.219L265.42,344.186L265.42,344.186
		z"/>
	<path style="fill:#F9572B;" d="M504.396,100.161V411.84c0,17.935-14.559,32.494-32.504,32.494H268.401l38.821-126.509h-22.396
		l28.368-91.247h-20.896l11.933-75.39l13.231-83.521h154.43C489.838,67.667,504.396,82.216,504.396,100.161z"/>
</g>
<g>
	<path style="fill:#BCBCBC;" d="M40.101,67.667h212.271l-11.487,83.511H7.607v-51.017C7.607,82.206,22.146,67.667,40.101,67.667z"/>
	<path style="fill:#BCBCBC;" d="M504.396,100.161v51.017H304.231l13.231-83.511h154.43
		C489.838,67.667,504.396,82.206,504.396,100.161z"/>
</g>
<circle style="fill:#F9572B;" cx="59.371" cy="108.605" r="16.736"/>
<circle style="fill:#FCC63D;" cx="115.721" cy="108.605" r="16.736"/>
<circle style="fill:#45B8C4;" cx="172.061" cy="108.605" r="16.736"/>
<path d="M59.374,84.265c-13.42,0-24.34,10.919-24.34,24.34s10.919,24.34,24.34,24.34c13.421,0,24.341-10.919,24.341-24.34
	C83.714,95.183,72.796,84.265,59.374,84.265z M59.374,117.736c-5.036,0-9.132-4.097-9.132-9.132c0-5.036,4.096-9.132,9.132-9.132
	s9.133,4.097,9.133,9.132C68.506,113.639,64.409,117.736,59.374,117.736z"/>
<path d="M115.718,132.944c13.421,0,24.341-10.919,24.341-24.34c0-13.421-10.919-24.34-24.341-24.34
	c-13.42,0-24.34,10.919-24.34,24.34C91.379,122.025,102.297,132.944,115.718,132.944z M115.718,99.472
	c5.036,0,9.133,4.097,9.133,9.132c0,5.035-4.097,9.132-9.133,9.132s-9.132-4.097-9.132-9.132
	C106.587,103.568,110.683,99.472,115.718,99.472z"/>
<path d="M172.062,132.944c13.421,0,24.341-10.919,24.341-24.34c0-13.421-10.919-24.34-24.341-24.34
	c-13.42,0-24.34,10.919-24.34,24.34S158.642,132.944,172.062,132.944z M172.062,99.472c5.036,0,9.133,4.097,9.133,9.132
	c0,5.035-4.097,9.132-9.133,9.132c-5.036,0-9.132-4.097-9.132-9.132C162.931,103.568,167.027,99.472,172.062,99.472z"/>
<path d="M471.892,60.063h-154.43c-3.74,0-6.925,2.72-7.51,6.415L284.788,225.39c-0.348,2.197,0.284,4.436,1.729,6.127
	c1.445,1.691,3.558,2.665,5.782,2.665h10.568l-25.302,81.385c-0.717,2.308-0.295,4.82,1.139,6.765
	c1.433,1.947,3.706,3.095,6.123,3.095h12.108l-22.302,72.678l-1.612-54.148c-0.123-4.11-3.489-7.378-7.601-7.378h-14.905
	l13.443-80.361c0.368-2.205-0.251-4.461-1.697-6.167c-1.445-1.706-3.568-2.691-5.803-2.691h-21.136l24.583-178.66
	c0.3-2.177-0.358-4.377-1.801-6.033c-1.445-1.657-3.534-2.607-5.731-2.607H40.102c-22.111,0-40.099,17.988-40.099,40.098v50.965
	c0,0.02-0.003,0.04-0.003,0.059c0,0.019,0.003,0.04,0.003,0.059v260.596c0,22.11,17.988,40.098,40.099,40.098h228.217
	c0.029,0,0.06,0,0.089,0c0.028,0,0.059,0,0.088,0h97.899c4.2,0,7.604-3.405,7.604-7.604c0-4.199-3.404-7.604-7.604-7.604h-87.707
	l35.802-116.674c0.708-2.306,0.279-4.811-1.155-6.75c-1.434-1.94-3.703-3.084-6.115-3.084h-12.069l25.302-81.385
	c0.717-2.308,0.295-4.82-1.139-6.765c-1.433-1.947-3.706-3.095-6.123-3.095H301.2l9.53-60.182h186.062V411.84
	c0,13.725-11.171,24.89-24.9,24.89h-80.15c-4.2,0-7.604,3.405-7.604,7.604c0,4.199,3.404,7.604,7.604,7.604h80.15
	c22.115,0,40.108-17.988,40.108-40.098V100.162C512,78.051,494.008,60.063,471.892,60.063z M40.102,436.73
	c-13.725,0-24.891-11.166-24.891-24.89V158.79h54.241c4.2,0,7.604-3.405,7.604-7.604s-3.404-7.604-7.604-7.604H15.211v-43.42
	c0-13.725,11.167-24.89,24.891-24.89h203.55l-9.394,68.314H96.746c-4.2,0-7.604,3.405-7.604,7.604s3.404,7.604,7.604,7.604h135.418
	l-13.096,95.137c-0.3,2.177,0.357,4.377,1.801,6.033c1.445,1.657,3.533,2.608,5.731,2.608h20.877l-13.443,80.361
	c-0.368,2.205,0.251,4.461,1.697,6.167c1.445,1.706,3.568,2.691,5.803,2.691h16.505l2.529,84.941H40.102V436.73z M313.138,143.585
	l10.818-68.314h147.937c13.73,0,24.9,11.166,24.9,24.89v43.423H313.138z"/>
<g>
</g>
<g>
</g>
<g>
</g>
<g>
</g>
<g>
</g>
<g>
</g>
<g>
</g>
<g>
</g>
<g>
</g>
<g>
</g>
<g>
</g>
<g>
</g>
<g>
</g>
<g>
</g>
<g>
</g>
</svg>
